<?xml version="1.0" standalone="no"?>
<!DOCTYPE svg PUBLIC "-//W3C//DTD SVG 1.1//EN" "http://www.w3.org/Graphics/SVG/1.1/DTD/svg11.dtd" >
<svg>
<metadata>
Created by FontForge 20090622 at Mon Nov 12 05:11:56 2018
 By ffonts
Copyright (c) 2016 by M&#195;&#130;ns Greb&#226;&#128;&#176;ck. All rights reserved.
</metadata>
<defs>
<font id="SpecifyPERSONALExtraexpanded-Li" horiz-adv-x="961" >
  <font-face 
    font-family="Specify PERSONAL Extraexpanded"
    font-weight="300"
    font-stretch="extra-expanded"
    units-per-em="1000"
    panose-1="0 0 0 0 0 0 0 0 0 0"
    ascent="800"
    descent="-200"
    x-height="584"
    cap-height="800"
    bbox="-314 -323 1982 1063"
    underline-thickness="50"
    underline-position="-50"
    unicode-range="U+000D-U+FB02"
  />
<missing-glyph horiz-adv-x="660" 
 />
    <glyph glyph-name="fi" unicode="fi" horiz-adv-x="1088" 
d="M35 584h244v46q0 52 22.5 94.5t76.5 67.5t144 29.5t226 -17.5v-42q-122 23 -202.5 20t-128.5 -23.5t-67.5 -55t-19.5 -73.5v-46h618v-584h-51v542h-567v-542h-51v542h-244v42zM888 700q0 16 9 25.5t26 9.5q16 0 25.5 -9.5t9.5 -25.5q0 -17 -9.5 -26.5t-25.5 -9.5
q-17 0 -26 9.5t-9 26.5z" />
    <glyph glyph-name="fl" unicode="fl" horiz-adv-x="986" 
d="M35 534h244v92q0 53 22 95t76 66.5t144.5 29.5t226.5 -17v-43q-122 23 -202.5 20t-128.5 -23.5t-67.5 -54.5t-19.5 -73v-92h393v-42h-393v-492h-51v492h-244v42zM846 0v810h51v-810h-51z" />
    <glyph glyph-name="f_t" unicode="ft" horiz-adv-x="1502" 
d="M35 584h266v42q0 53 22 95t75.5 66.5t143.5 29.5t226 -17v-39q-122 22 -202.5 19t-128 -24t-66.5 -55.5t-19 -74.5v-42h575v180h51v-180h478v-42h-478v-369q0 -45 29.5 -79t88.5 -52.5t147 -19.5t204 20v-42q-133 -21 -231 -18t-162 26t-95.5 65t-31.5 100v369h-575v-542
h-51v542h-266v42z" />
    <glyph glyph-name="t_f" unicode="tf" horiz-adv-x="1502" 
d="M1486 757q-122 23 -202.5 20t-129 -23t-68.5 -54t-20 -74v-42h399v-42h-399v-542h-52v542h-761v-369q0 -45 29.5 -79t88.5 -52.5t146.5 -19.5t204.5 20v-42q-134 -21 -232 -18t-162 26t-95.5 65t-31.5 100v369h-176v42h176v180h52v-180h761v42q0 53 22.5 95t77 66.5
t145.5 29.5t227 -17v-43z" />
    <glyph glyph-name="f_y" unicode="fy" horiz-adv-x="1668" 
d="M35 584h244v42q0 53 22 95t75.5 66.5t143.5 29.5t226 -17v-40q-121 22 -201 19t-128 -24t-67.5 -55t-19.5 -74v-42h399l459 -542l400 542h58l-588 -794h-56l160 217l-455 535h-377v-542h-51v542h-244v42z" />
    <glyph glyph-name=".notdef" horiz-adv-x="660" 
 />
    <glyph glyph-name="NULL" horiz-adv-x="0" 
 />
    <glyph glyph-name="NULL" horiz-adv-x="0" 
 />
    <glyph glyph-name="nonmarkingreturn" unicode="&#xd;" horiz-adv-x="660" 
 />
    <glyph glyph-name="space" unicode=" " horiz-adv-x="660" 
 />
    <glyph glyph-name="D" unicode="D" horiz-adv-x="1086" 
d="M62 800h439q271 0 403 -100.5t132 -299.5q0 -198 -132 -299t-403 -101h-439v800zM985 400q0 180 -119.5 268.5t-364.5 88.5h-387v-715h387q245 0 364.5 88t119.5 270z" />
    <glyph glyph-name="E" unicode="E" horiz-adv-x="929" 
d="M62 0v800h846v-43h-794v-311h724v-42h-724v-362h804v-42h-856z" />
    <glyph glyph-name="G" unicode="G" horiz-adv-x="1120" 
d="M555 396h511v-396h-47l-3 139q-24 -34 -65 -63t-96.5 -50.5t-125.5 -33.5t-152 -12q-112 0 -208 23.5t-166 74.5t-110 130.5t-40 191.5q0 111 39 190.5t109.5 130.5t168.5 75t216 24q101 0 187 -21t150 -55.5t104 -79.5t50 -94h-49q-10 40 -45.5 77.5t-92.5 66t-134 46
t-170 17.5q-102 0 -190 -20.5t-152.5 -66t-101.5 -117t-37 -173.5q0 -103 37 -175t101.5 -117t152.5 -65.5t190 -20.5q96 0 175 17.5t135.5 47t88 67.5t31.5 79v121h-461v42z" />
    <glyph glyph-name="H" unicode="H" horiz-adv-x="1011" 
d="M62 0v800h52v-374h795v374h52v-800h-52v384h-795v-384h-52z" />
    <glyph glyph-name="I" unicode="I" horiz-adv-x="232" 
d="M90 0v800h52v-800h-52z" />
    <glyph glyph-name="J" unicode="J" horiz-adv-x="985" 
d="M914 263q0 -64 -28.5 -116t-83.5 -89t-136 -57.5t-186 -20.5q-104 0 -186.5 19.5t-140 55.5t-88 87.5t-30.5 114.5h51q0 -51 27 -94t78 -74.5t124 -49t165 -17.5q91 0 162.5 18t120.5 50.5t74.5 76.5t25.5 96v537h51v-537z" />
    <glyph glyph-name="K" unicode="K" horiz-adv-x="992" 
d="M62 0v800h52v-439l775 439h81l-628 -358l622 -442h-77l-591 416l-182 -104v-312h-52z" />
    <glyph glyph-name="L" unicode="L" horiz-adv-x="945" 
d="M62 800h52v-758h804v-42h-856v800z" />
    <glyph glyph-name="N" unicode="N" horiz-adv-x="1101" 
d="M62 0v800h53l871 -740v740h52v-800h-52l-871 738v-738h-53z" />
    <glyph glyph-name="M" unicode="M" horiz-adv-x="1270" 
d="M62 0v800h61l491 -634l22 -26l22 26l489 634h60v-800h-47v752l-111 -146l-394 -508h-40l-395 507l-112 147v-752h-46z" />
    <glyph glyph-name="P" unicode="P" horiz-adv-x="1008" 
d="M62 0v800h448q127 0 212.5 -19t137.5 -54t73.5 -84.5t21.5 -110.5t-21.5 -110t-73.5 -84t-137.5 -54t-212.5 -19h-396v-265h-52zM904 532q0 51 -18.5 92.5t-64 71t-121.5 45.5t-190 16h-396v-450h396q114 0 190 15.5t121 45t64 71t19 93.5z" />
    <glyph glyph-name="Q" unicode="Q" horiz-adv-x="1118" 
d="M561 -20q-125 0 -220 29.5t-159 84t-96 132.5t-32 174t32 174t96 132.5t159 84t220 29.5t220 -29.5t159 -84t96.5 -132.5t32.5 -174q0 -131 -58.5 -225t-173.5 -145l55 -47l-31 -32l-70 61q-50 -16 -107 -24t-123 -8zM627 213l173 -151q109 45 163 131t54 207
q0 87 -28.5 156.5t-85.5 118.5t-142.5 75.5t-199.5 26.5t-199.5 -26.5t-142.5 -75.5t-85.5 -118.5t-28.5 -156.5t28.5 -157t85.5 -119t142.5 -75.5t199.5 -26.5q108 0 191 24l-156 137z" />
    <glyph glyph-name="R" unicode="R" horiz-adv-x="1088" 
d="M62 0v800h512q134 0 223.5 -17.5t143.5 -49t77 -74t23 -92.5q0 -47 -20 -87t-67.5 -70.5t-125 -49.5t-192.5 -23l408 -337h-78l-401 336h-451v-336h-52zM989 567q0 43 -21 78t-69.5 60t-128 38.5t-196.5 13.5h-460v-379h460q117 0 196.5 13.5t128 38t69.5 59.5t21 78z
" />
    <glyph glyph-name="S" unicode="S" horiz-adv-x="1186" 
d="M54 616q0 41 30.5 78t95 65t164.5 44.5t239 16.5q143 0 247 -18.5t170.5 -50.5t96.5 -75.5t25 -93.5l-51 -3q5 42 -22 78.5t-87 63t-154.5 41.5t-224.5 15q-126 0 -216.5 -13t-148.5 -35t-85 -51.5t-27 -62.5q0 -47 43.5 -77.5t115 -50.5t163 -34t186.5 -27t186.5 -29.5
t163 -42.5t115 -64t43.5 -96q0 -41 -30 -79.5t-94.5 -68.5t-164.5 -48t-239 -18q-142 0 -246 20t-171 53.5t-97.5 78.5t-25.5 96l52 3q-5 -43 22 -81t87 -66.5t154.5 -45t225.5 -16.5q126 0 216.5 14.5t148 38.5t84.5 55t27 64q0 49 -43.5 80t-115 51.5t-163 34l-187 26.5
t-187 28.5t-163 41t-115 64t-43.5 96.5z" />
    <glyph glyph-name="T" unicode="T" horiz-adv-x="1122" 
d="M539 0v757h-539v43h1122v-43h-531v-757h-52z" />
    <glyph glyph-name="U" unicode="U" horiz-adv-x="1159" 
d="M114 301q0 -65 23 -116.5t77 -87.5t143 -55.5t222 -19.5t222.5 19.5t143.5 55.5t77 87.5t23 116.5v499h51v-499q0 -77 -26.5 -136.5t-87 -100.5t-159.5 -62.5t-244 -21.5t-244 21.5t-159.5 62.5t-87 100.5t-26.5 136.5v499h52v-499z" />
    <glyph glyph-name="V" unicode="V" horiz-adv-x="1171" 
d="M14 800h59l505 -755l7 -16l8 16l505 755h59l-545 -800h-53z" />
    <glyph glyph-name="W" unicode="W" horiz-adv-x="1592" 
d="M799 657l-331 -657h-55l-374 800h54l347 -752l337 656h45l337 -656l349 752h51l-373 -800h-55z" />
    <glyph glyph-name="X" unicode="X" horiz-adv-x="1112" 
d="M518 405l-465 395h69l430 -366l431 366h68l-465 -395l479 -405h-69l-444 376l-443 -376h-69z" />
    <glyph glyph-name="Y" unicode="Y" horiz-adv-x="1106" 
d="M528 0v292l-503 508h63l464 -466l467 466h63l-503 -507v-293h-51z" />
    <glyph glyph-name="Z" unicode="Z" horiz-adv-x="1018" 
d="M6 800h999v-43l-921 -715h921v-42h-999v42l922 715h-922v43z" />
    <glyph glyph-name="C" unicode="C" horiz-adv-x="1147" 
d="M1084 264q-4 -53 -38.5 -104t-97.5 -91t-154 -64.5t-206 -24.5q-113 0 -211 24t-170 75t-113 130.5t-41 190.5q0 112 41 191.5t113 130.5t170 74.5t211 23.5q111 0 201 -23.5t154 -62t100.5 -89t39.5 -104.5l-52 -3q-5 45 -37 87.5t-89 76.5t-137 54.5t-180 20.5
q-102 0 -190 -21.5t-153.5 -67.5t-102.5 -117t-37 -171q0 -101 37 -172.5t102.5 -117t153.5 -67t190 -21.5q105 0 186 22.5t137.5 57.5t87 79t33.5 86z" />
    <glyph glyph-name="a" unicode="a" horiz-adv-x="854" 
d="M791 0h-42l-3 120q-16 -32 -44 -57.5t-71.5 -44t-103 -28.5t-137.5 -10q-105 0 -172.5 14.5t-106.5 39t-53.5 56.5t-14.5 68q0 49 30 80.5t79.5 50t112.5 26.5t129 12t129.5 5.5t113 7t79.5 17.5t30 36q0 39 -16.5 70.5t-55 53.5t-101.5 33.5t-155 11.5
q-96 0 -159.5 -10.5t-100 -29.5t-50 -46.5t-10.5 -60.5l-45 5q-4 44 12 78t58.5 57.5t114 36t179.5 12.5q107 0 178.5 -13.5t115 -40.5t62 -66.5t18.5 -90.5v-393zM392 22q94 0 160.5 14t109 39.5t62.5 61.5t22 79v130q-29 -26 -89 -36t-133 -15t-150 -8.5t-140.5 -16
t-104 -37.5t-40.5 -73q0 -26 12 -51t45 -44.5t92 -31t154 -11.5z" />
    <glyph glyph-name="o" unicode="o" horiz-adv-x="1036" 
d="M519 -20q-92 0 -176 20t-148.5 59.5t-102.5 97.5t-38 135t38 135.5t102.5 97.5t148.5 59t176 20q91 0 175 -20t148.5 -59t102.5 -97.5t38 -135.5t-38 -135t-102.5 -97.5t-148.5 -59.5t-175 -20zM519 22q75 0 149 15.5t132.5 48.5t95 84t36.5 122q0 70 -36.5 121t-95 84
t-132.5 49t-149 16t-149 -16t-133 -49t-95.5 -84t-36.5 -121q0 -71 36.5 -122t95.5 -84t133 -48.5t149 -15.5z" />
    <glyph glyph-name="l" unicode="l" horiz-adv-x="225" 
d="M87 0v810h51v-810h-51z" />
    <glyph glyph-name="i" unicode="i" horiz-adv-x="327" 
d="M138 0v584h51v-584h-51zM129 700q0 16 9 25.5t26 9.5q16 0 25.5 -9.5t9.5 -25.5q0 -17 -9.5 -26.5t-25.5 -9.5q-17 0 -26 9.5t-9 26.5z" />
    <glyph glyph-name="m" unicode="m" horiz-adv-x="1260" 
d="M1146 0v398q0 79 -56 121.5t-186 42.5q-56 0 -102 -10.5t-78.5 -31t-50 -51t-17.5 -71.5v-398h-52v398q0 79 -59.5 121.5t-181.5 42.5q-57 0 -103 -11.5t-78.5 -34t-50 -54.5t-17.5 -74v-388h-52v584h40l8 -96q33 57 101.5 86.5t159.5 29.5q108 0 177 -33.5t92 -99.5
q27 67 99.5 100t174.5 33q283 0 283 -206v-398h-51z" />
    <glyph glyph-name="b" unicode="b" horiz-adv-x="920" 
d="M62 0v810h52v-368q20 37 55 67t82.5 51t106.5 32.5t126 11.5q83 0 156.5 -19.5t128 -58.5t86 -97.5t31.5 -136.5t-32.5 -136.5t-87.5 -97.5t-128 -58.5t-154 -19.5q-59 0 -116.5 9.5t-107 29t-88 49.5t-59.5 72l-6 -140h-45zM475 562q-66 0 -130.5 -13t-115.5 -40
t-83 -68t-32 -96v-106q0 -56 32 -97t83 -67.5t115.5 -39.5t130.5 -13q76 0 141.5 18t114 52.5t76.5 84.5t28 115t-28 115t-76.5 84.5t-114 52.5t-141.5 18z" />
    <glyph glyph-name="c" unicode="c" horiz-adv-x="963" 
d="M847 402q-8 39 -37.5 69t-76.5 50t-110.5 30.5t-139.5 10.5q-90 0 -160 -17.5t-118.5 -51.5t-74 -84.5t-25.5 -116.5q0 -67 25.5 -117.5t74 -84.5t119 -51t159.5 -17q76 0 139.5 11.5t110.5 33t76 53t37 70.5l49 -2q-9 -51 -43 -90t-89 -65t-127.5 -39.5t-157.5 -13.5
q-98 0 -176.5 19t-133.5 57.5t-85 97t-30 138.5q0 79 30 138t85 97.5t133.5 57.5t176.5 19q87 0 159.5 -12t127 -37t88.5 -62.5t43 -88.5z" />
    <glyph glyph-name="d" unicode="d" horiz-adv-x="920" 
d="M44 292q0 78 31.5 136.5t86.5 97.5t128 58.5t157 19.5q134 0 231 -42.5t138 -117.5v366h52v-810h-45l-6 138q-22 -41 -61 -71t-88 -49.5t-106 -28.5t-115 -9q-81 0 -154.5 19.5t-128.5 58.5t-87.5 97.5t-32.5 136.5zM456 22q66 0 130.5 13t115.5 39.5t82.5 67.5t31.5 97
v106q0 55 -31.5 96t-82.5 68t-115.5 40t-130.5 13q-76 0 -142 -18t-114.5 -52.5t-76.5 -84.5t-28 -115t28 -115t76.5 -84.5t114.5 -52.5t142 -18z" />
    <glyph glyph-name="e" unicode="e" horiz-adv-x="956" 
d="M479 604q93 0 170.5 -16.5t134 -50t87.5 -85t31 -121.5v-57h-797q2 -121 99 -186.5t275 -65.5q77 0 141 10t112 29t77 47.5t36 66.5h52q-9 -49 -43.5 -85.5t-89.5 -61t-127.5 -36.5t-157.5 -12q-98 0 -176.5 19t-134 57.5t-85 97t-29.5 138.5q0 79 29.5 138t85 97.5
t134 57.5t176.5 19zM479 562q-181 0 -276 -64t-98 -182v-5h745v38q0 54 -27 94t-76 66.5t-117.5 39.5t-150.5 13z" />
    <glyph glyph-name="f" unicode="f" horiz-adv-x="759" 
d="M35 534h244v92q0 53 22 95t75.5 66.5t143.5 29.5t226 -17v-43q-121 23 -201 20t-128 -23t-67.5 -54t-19.5 -74v-92h392v-42h-392v-492h-51v492h-244v42z" />
    <glyph glyph-name="g" unicode="g" horiz-adv-x="931" 
d="M44 302q0 78 33.5 135t89.5 94t128.5 55t151.5 18q67 0 125.5 -11t106 -32t82.5 -51t55 -67l8 141h44v-596q0 -52 -22.5 -92.5t-71.5 -68.5t-126.5 -42.5t-186.5 -14.5q-198 0 -301.5 47.5t-95.5 131.5l49 1q-3 -33 20 -59.5t68.5 -44.5t111 -27.5t147.5 -9.5
q96 0 164 11.5t110.5 35t62 57.5t19.5 79v165q-22 -41 -60.5 -70.5t-88 -49t-106 -28.5t-114.5 -9q-77 0 -149.5 18t-128.5 55t-90.5 94t-34.5 135zM456 42q66 0 130.5 13t115.5 39.5t82.5 67.5t31.5 97v86q0 55 -31.5 96t-82.5 68t-115.5 40t-130.5 13q-72 0 -137.5 -16.5
t-115 -49t-79 -81t-29.5 -113.5t29.5 -113.5t79 -81t115 -49t137.5 -16.5z" />
    <glyph glyph-name="j" unicode="j" horiz-adv-x="327" 
d="M-241 -167q99 -17 170.5 -12t118 35t68.5 86.5t22 141.5v500h51v-504q0 -96 -25 -160.5t-77.5 -99t-134 -41t-193.5 12.5v41zM129 700q0 16 9 25.5t26 9.5q16 0 25.5 -9.5t9.5 -25.5q0 -17 -9.5 -26.5t-25.5 -9.5q-17 0 -26 9.5t-9 26.5z" />
    <glyph glyph-name="k" unicode="k" horiz-adv-x="950" 
d="M62 0v810h52v-549l720 323h95l-620 -282l625 -302h-85l-591 280l-144 -55v-225h-52z" />
    <glyph glyph-name="p" unicode="p" horiz-adv-x="922" 
d="M886 292q0 -78 -32.5 -136.5t-87.5 -97.5t-128 -58.5t-154 -19.5q-59 0 -115.5 9t-106 28.5t-88 49.5t-60.5 71v-348h-52v794h45l6 -143q20 37 55 67.5t83 51.5t106.5 32.5t126.5 11.5q83 0 156.5 -19.5t128 -58.5t86 -97.5t31.5 -136.5zM475 562q-66 0 -130.5 -13
t-115.5 -40t-83 -68t-32 -96v-106q0 -56 32 -97t83 -67.5t115.5 -39.5t130.5 -13q76 0 141.5 18t114 52.5t76.5 84.5t28 115t-28 115t-76.5 84.5t-114 52.5t-141.5 18z" />
    <glyph glyph-name="q" unicode="q" horiz-adv-x="932" 
d="M45 292q0 78 31.5 136.5t86.5 97.5t128.5 58.5t156.5 19.5q67 0 126 -11.5t107 -32.5t82.5 -51.5t54.5 -67.5l7 143h44v-794h-51v348q-22 -41 -61 -71t-88 -49.5t-106 -28.5t-115 -9q-81 0 -154 19.5t-128.5 58.5t-88 97.5t-32.5 136.5zM457 22q66 0 130.5 13t115.5 39.5
t83 67.5t32 97v106q0 55 -32 96t-83 68t-115.5 40t-130.5 13q-76 0 -141.5 -18t-114 -52.5t-76.5 -84.5t-28 -115t28 -115t76.5 -84.5t114 -52.5t141.5 -18z" />
    <glyph glyph-name="r" unicode="r" horiz-adv-x="735" 
d="M89 0v584h40l9 -83q25 47 76.5 77.5t126 37.5t168.5 -12.5t203 -72.5v-49q-143 69 -250.5 83.5t-178.5 -6t-106.5 -67t-35.5 -101.5v-391h-52z" />
    <glyph glyph-name="s" unicode="s" horiz-adv-x="964" 
d="M64 438q0 30 23 60t72.5 53.5t128 38t190.5 14.5q93 0 171.5 -10t134.5 -32t86 -56.5t25 -83.5l-49 -2q5 41 -22 68t-77.5 43.5t-119.5 23.5t-148 7q-99 0 -168 -12t-112 -31t-62.5 -41.5t-19.5 -43.5q0 -33 34 -52.5t90 -31t127.5 -17l146 -11.5t146 -15t127.5 -26
t90 -45.5t34 -74.5q0 -33 -24 -65.5t-75.5 -58t-131.5 -41.5t-192 -16q-108 0 -191.5 12.5t-139 37.5t-82 63t-21.5 89l47 2q-5 -42 19 -73t74 -50.5t124.5 -29t170.5 -9.5q100 0 170.5 13.5t115.5 34.5t65.5 46t20.5 48q0 36 -34.5 57.5t-90.5 34t-127.5 18.5l-146.5 12
t-146.5 14t-127.5 24t-90.5 43t-34.5 71z" />
    <glyph glyph-name="t" unicode="t" horiz-adv-x="744" 
d="M25 584h168v180h52v-180h452v-42h-452v-369q0 -45 29.5 -79t88.5 -52.5t146.5 -19.5t204.5 20v-42q-134 -21 -232 -18t-162 26t-95.5 65t-31.5 100v369h-168v42z" />
    <glyph glyph-name="u" unicode="u" 
d="M114 584v-328q0 -50 19 -92.5t63.5 -74t116.5 -49.5t178 -18q91 0 158 19t111 48.5t65.5 65.5t21.5 71v358h52v-584h-45l-6 137q-18 -32 -49.5 -60.5t-77.5 -50t-107 -34t-137 -12.5q-110 0 -188.5 20.5t-128.5 57t-74 87t-24 111.5v328h52z" />
    <glyph glyph-name="v" unicode="v" horiz-adv-x="1016" 
d="M20 584h65l424 -549l425 549h65l-459 -584h-62z" />
    <glyph glyph-name="w" unicode="w" horiz-adv-x="1334" 
d="M666 497l-279 -497h-48l-308 584h51l282 -540l277 493h51l277 -493l282 540h51l-308 -584h-48z" />
    <glyph glyph-name="x" unicode="x" horiz-adv-x="935" 
d="M429 298l-387 286h70l352 -260l352 260h70l-387 -286l405 -298h-70l-370 272l-370 -272h-70z" />
    <glyph glyph-name="y" unicode="y" horiz-adv-x="1034" 
d="M417 -210h-56l160 217l-490 577h57l459 -542l400 542h58z" />
    <glyph glyph-name="z" unicode="z" horiz-adv-x="903" 
d="M47 584h807v-33l-716 -509h716v-42h-807v33l719 509h-719v42z" />
    <glyph glyph-name="h" unicode="h" 
d="M62 0v810h52v-362q18 32 49 60.5t77 49.5t108 33.5t140 12.5q110 0 188 -20t127.5 -56.5t72.5 -87.5t23 -112v-328h-52v328q0 49 -19 92t-62.5 74.5t-114.5 49.5t-176 18q-93 0 -160 -18t-111 -46.5t-66 -63.5t-24 -69v-365h-52z" />
    <glyph glyph-name="n" unicode="n" 
d="M62 0v584h45l6 -137q18 32 49 60.5t77.5 50t108.5 34t140 12.5q110 0 188 -20t127.5 -56.5t72.5 -87.5t23 -112v-328h-52v328q0 49 -19 92t-62.5 74.5t-114.5 49.5t-176 18q-93 0 -160 -18t-111 -46.5t-66 -63.5t-24 -69v-365h-52z" />
    <glyph glyph-name="F" unicode="F" horiz-adv-x="914" 
d="M62 0v800h856v-43h-804v-371h724v-42h-724v-344h-52z" />
    <glyph glyph-name="ampersand" unicode="&#x26;" horiz-adv-x="1121" 
d="M532 740q101 0 175 -14.5t123 -39t74 -57t29 -69.5q3 -37 -18 -65t-60 -48.5t-92 -35t-113.5 -25.5t-125 -20.5l-126.5 -19.5q62 -29 134.5 -52.5t146 -40.5t145 -27t131.5 -12q33 63 33 147h40q0 -41 -7 -78t-22 -70q28 1 51.5 3.5t41.5 7.5v-43q-44 -11 -115 -9
q-59 -92 -179.5 -142t-294.5 -50q-110 0 -197 17t-148 45.5t-93.5 66.5t-32.5 79q0 35 20 62t55 48t82 36.5t101 27.5q-67 43 -107 93.5t-40 108.5q0 28 20.5 59.5t66.5 57t120 42.5t182 17zM187 560q0 -54 43 -100.5t114 -85.5q61 12 125.5 22t125 20.5t113.5 22t92.5 27.5
t61 37.5t19.5 50.5q-3 29 -21 55t-58 45.5t-106 31t-163 11.5q-99 0 -165.5 -14t-106.5 -35t-57 -45t-17 -43zM930 174q-66 4 -143 17t-156 33.5t-155 48t-140 62.5q-54 -10 -101 -22.5t-81.5 -29.5t-54.5 -39.5t-20 -52.5q0 -33 30.5 -63.5t86.5 -54t135 -37.5t177 -14
q149 0 256.5 38.5t165.5 113.5z" />
    <glyph glyph-name="one" unicode="1" horiz-adv-x="1272" 
d="M364 266h43q5 -60 8.5 -118t5.5 -117q3 45 5.5 89t7.5 89l6 57h40q5 -48 9 -96l8 -96l3 -43q3 47 4.5 93t5.5 91q2 13 2.5 25.5t1.5 25.5h31l-21 -283h-47q-5 56 -9.5 112t-6.5 113q-2 -42 -5 -84t-7 -84l-4 -57h-48l-12 159l-12 -159h-46l-10 112t-7 113
q-2 -42 -4.5 -84t-6.5 -84l-5 -57h-47l-12 162l-12 -162h-47q-5 56 -9.5 111.5t-6.5 112.5q-1 -43 -4 -84t-7 -83l-6 -57h-46l-22 283h31q5 -60 8.5 -118t5.5 -117l6 89t8 89l6 57h39q6 -48 10 -96t7 -96l3 -43q3 47 4.5 93t5.5 91l5 51h42q5 -60 8.5 -118t6.5 -117
q3 45 5.5 89t6.5 89q3 14 4 28t3 29h40q5 -48 9 -96l8 -96l2 -43q3 47 5 93t6 91zM1227 876h-1153v26h1153v-26zM1227 -197h-1153v25h1153v-25zM754 -17h-36v283h37h22t21 -5q18 -9 23 -31.5t5 -42.5v-22t-2.5 -25.5t-8 -22.5t-14.5 -14l31 -120h-40l-21 113h-17v-113z
M1001 46v-63h-33v283h32l25.5 -98.5t22.5 -99.5q-4 50 -4.5 99t-0.5 99h33v-283h-34l-25 96.5t-22 97.5q2 -33 3 -65.5t3 -65.5zM617 -17h-34l30 283h58l31 -283h-36l-7 67h-34zM1175 160q1 14 0 28.5t-5 26.5q-4 9 -11.5 14.5t-14.5 -5.5q-6 -10 -7 -24.5t-2 -26.5
q-1 -14 -1 -27v-26v-26.5t2 -26.5q0 -11 2 -25.5t11 -21.5q11 -7 16.5 2t8 23.5t3 29t0.5 19.5h-26v33h59v-142h-26l-1 38q-2 -12 -7.5 -25t-17.5 -17q-11 -4 -22 2t-18 15q-14 20 -16.5 49t-2.5 52q-2 29 -1 60t8 59q2 12 7.5 24t15.5 18q21 14 46 4q12 -6 19 -17.5t10 -26
t4 -29.5t1 -27zM227 409q5 9 12.5 16t16.5 9q8 3 16 -1t18 -1l-19 -39q-2 -4 -5.5 -12t0.5 -10q5 -5 11.5 2t11.5 15q2 6 5 11.5l6 11.5l8 21q9 0 15 5l-19 -44q-2 -4 -5 -11.5t1 -10.5q4 -5 10 1.5t10 14.5q4 11 9.5 22l10.5 22t9 21t9 21q7 -3 14 3l-27 -64q-2 -6 -5 -12
t-5 -11q-1 -3 -2.5 -7t-1.5 -7t1 -4.5t6 0.5t9.5 7.5t8.5 13.5q2 5 4 9l4 8q5 9 12 16t17 9q9 3 17 -1t17 -1q-5 -10 -9 -19l-9 -20q-2 -4 -5 -12t0 -10q3 -3 6.5 -1t7 6.5t6.5 9.5t5 8l1 2l33 77q8 0 13 3l-10 -27.5t-13 -25.5q7 8 16.5 13t16.5 -7q7 -11 1 -27t-13 -24
q6 -1 11.5 2t10.5 8q4 11 9 21.5l10 21.5l18 42q5 -2 14 3q-8 -16 -14 -32t-14 -32q-2 -6 -4.5 -12t-5.5 -11q-1 -3 -2 -7t-1 -7t1 -4.5t6 0.5t10.5 9t8.5 14q3 17 13 25q3 4 9.5 9t14 7.5t13.5 0.5t8 -12q1 -9 -3.5 -17t-12 -13.5t-16.5 -8.5t-16 -3q-1 -7 3.5 -11t10.5 -4
q13 0 24 8.5t18 20.5l4 -2q-8 -16 -23.5 -26t-31.5 -6q-17 3 -17 20q-4 -6 -8 -11t-9 -7q-7 -5 -15 -1.5t-6 14.5v2q-2 -2 -4 -2q-4 -4 -12 -4h-7q-2 0 -3 -2t-3 -2q-10 -8 -22 -6.5t-18 12.5q-8 -10 -17 -13t-13 3.5t0 14.5q-5 -8 -14 -15.5t-18 -0.5q-7 4 -7 16
q-7 -12 -14 -16q-8 -5 -15.5 -2t-6.5 12l-5.5 -5.5t-5.5 -4.5q-8 -5 -15.5 -2t-5.5 13l-9 -7.5t-9 -5.5q-9 -3 -12.5 3.5t0.5 14.5h-1q-5 -8 -13.5 -15.5t-18.5 -0.5q-5 2 -6 7.5t0 10.5q-4 -4 -10 -7q-4 -2 -13 -2q-5 0 -6 -1t-4 -3q-11 -8 -24 -7t-9 20q2 14 8 26.5
l11 23.5q6 0 14 5q-4 -9 -7 -17.5t-7 -16.5q-1 -3 -4 -8.5t-5 -11.5t-2 -10.5t4 -5.5q9 -2 17.5 9.5t11.5 17.5q5 9 8 20t3 22q9 2 10 -6t-1 -15q-4 -19 -18 -36q8 -3 15 3t11 14zM961 547q-11 0 -17.5 6t-10 15t-5 19.5t-1.5 20.5q-2 22 -2 45.5t6 45.5q3 10 8.5 17.5
t14.5 8.5q20 5 32 -15q9 -20 9 -43.5v-44.5q0 -11 -0.5 -24t-4 -24t-10.5 -19t-19 -8zM396 547q-11 0 -17.5 6t-10.5 15t-5 19.5l-2 20.5q-1 22 -1 45.5t6 45.5q3 10 8 17.5t16 8.5q21 5 31 -15q8 -20 8.5 -43.5t0.5 -44.5q0 -11 -1 -24t-4.5 -24t-10 -19t-18.5 -8zM883 -17
h-36v283h36v-283zM228 548h-21v176h23h15t13 -3q10 -6 13 -19t3 -24v-14.5t-1.5 -17t-4.5 -15t-9 -9.5l18 -74h-24l-13 70q-3 0 -6 0.5t-6 0.5v-71zM1025 587v-39h-21v176h20l16 -61t14 -62q-2 30 -2.5 61t-0.5 62h21v-176h-22q-8 29 -15.5 59.5t-13.5 61.5q2 -21 2.5 -41
t1.5 -41zM89 548h-23v176h35q25 0 33 -30q4 -16 3 -37.5t-9 -37.5q-7 -11 -17.5 -12t-21.5 -1v-58zM460 587v-39h-21v176h20l15.5 -61t13.5 -62q-2 30 -2.5 61t-0.5 62h21v-176h-22l-14.5 59.5t-13.5 61.5q2 -21 2 -41t2 -41zM533 548h-21l18 176h36l19 -176h-21l-5 43h-22z
M714 547q-16 0 -23.5 10t-10 24t-2 30.5t0.5 29.5v83h23v-123q0 -5 -0.5 -11.5t1.5 -11.5q2 -6 7 -8.5t10 2.5t5.5 15t0.5 17q1 14 0.5 28t-0.5 28v64h22v-83q0 -13 0.5 -29.5t-1.5 -30.5t-9.5 -24t-23.5 -10zM1110 433q7 -1 14 4l-5.5 -12.5t-7.5 -10.5v-2q7 8 15.5 16
t17.5 9q12 0 11.5 -11t-3.5 -19q-2 -2 -4.5 -7t-5.5 -10t-4.5 -10t0.5 -8q2 -4 5.5 -2t7 6t7 9l5.5 8l20 44h-8l3 7h8l8 19q6 0 14 4l-10 -23h15l-4 -7h-14l-18 -43q-2 -5 -5 -11.5t-1 -11.5q3 -3 7 -0.5t8.5 8t7.5 10.5t4 7l4 -2q-5 -9 -12 -19.5t-18 -12.5q-10 -3 -13 1.5
t-1 11.5l-6 -6t-6 -5q-7 -5 -14.5 -2.5t-6.5 13.5q1 10 6.5 18.5t8.5 16.5q1 4 3.5 11.5t-4.5 6.5q-11 -2 -20.5 -16t-14.5 -24q-4 -6 -6.5 -13l-5.5 -15h-12l7 19l-1 -1q-3 -3 -10 -5h-9q-5 -7 -11 -9t-9 -2q-9 -6 -18 3q-8 8 -6.5 20.5t5.5 23.5q5 11 14 19.5t22 8.5
q10 0 14.5 -7t4.5 -16.5t-3.5 -19.5t-7.5 -16q13 0 20 13zM309 630q-11 8 -18 19t-9 26q-2 13 2 26t16 20q9 5 22 4.5t21 -10.5q9 -10 9 -22.5v-24.5q-6 0 -12 0.5t-11 0.5q0 7 0.5 15t-4.5 13q-9 10 -14.5 2t-6.5 -18q0 -14 7.5 -21.5t15.5 -14.5t14.5 -15.5t8.5 -19.5
q2 -12 0.5 -24t-7 -21.5t-14.5 -14.5t-21 -3q-21 4 -23.5 22t-1.5 37h21q0 -5 -0.5 -11t0.5 -13q2 -7 7.5 -11t11.5 1q5 5 6 14.5t-1 16.5q-2 9 -7 15.5t-12 11.5zM785 630q-23 15 -27 45q-1 13 2.5 26t14.5 20q10 5 22.5 4.5t20.5 -10.5q9 -10 8.5 -22.5t-0.5 -24.5
q-5 0 -10 0.5t-10 0.5q0 7 0.5 15t-5.5 13q-9 10 -14.5 2t-6.5 -18q0 -14 7 -21.5t15 -14.5q18 -13 24 -35q2 -12 0.5 -24t-7 -21.5t-14.5 -14.5t-22 -3q-10 2 -15 8t-7.5 14t-2.5 18v19h22q0 -5 -1 -11t1 -13t7 -11t11 1q7 5 8 14.5t-1 16.5q-2 9 -7.5 15.5t-12.5 11.5z
M201 548h-56v176h56v-24h-34v-49h28v-26h-28v-53h34v-24zM891 548h-55v176h55v-24h-32v-49h27v-26h-27v-53h32v-24zM129 400l-42 -3q-5 -8 -9.5 -19t-5.5 -22q-8 -2 -9.5 3t0 13t4.5 15.5t5 9.5l-14 -1l-5 10h23q11 20 27 39.5t36 30.5q6 5 16 5.5t12 -11.5q2 -6 -0.5 -12.5
l-4.5 -11.5q-5 -11 -9.5 -22t-9.5 -22q-3 -8 -9.5 -20.5t-2.5 -21.5q-9 -2 -11 3t-0.5 12t4.5 14.5t5 10.5zM1185 724h21l-10 -49.5l-10 -49.5q-5 -18 -3.5 -38t1.5 -39h-24q0 19 0.5 39t-3.5 38l-10 49.5l-10 49.5h21l8 -44.5t6 -46.5q1 24 5 46zM815 363q-7 5 -5.5 13
t4.5 16l17 40q7 0 14 5l-13 -31q-2 -5 -8 -17t-2 -17q6 -6 14.5 2.5t11.5 13.5t5 9.5t6 9.5l12 27q3 0 6 1l6 2q-4 -11 -8.5 -21.5l-9.5 -21.5q-2 -5 -5 -11.5t0 -11.5q4 -6 10 1t11 15q4 11 9.5 22l10.5 22q4 11 8.5 21l9.5 21q6 -3 14 3l-28 -64l-10 -23q-1 -3 -2 -7
t-1.5 -7t1 -4.5t5.5 0.5q9 3 16 15q4 11 9.5 22.5l10.5 22.5l8 21t9 21q7 -3 15 3l-28 -64l-10 -23q-1 -3 -2 -7t-1.5 -7t0.5 -4.5t6 0.5q7 2 12 10t8 15l4 -2q-5 -9 -10 -17t-13 -13q-7 -5 -14 -2t-6 12q-7 -7 -13 -10q-7 -5 -14 -2t-6 13q-5 -6 -9.5 -10.5t-10.5 -4.5
q-10 0 -11 7t2 14q-6 -8 -16.5 -16t-18.5 -2zM1135 548h-55v176h22v-154h33v-22zM645 548h-55v176h23v-154h32v-22zM754 125q6 0 12.5 -1t11.5 4q9 9 11 23.5t2 25.5q0 13 -2 28t-10 24q-5 5 -12 4.5t-13 -0.5v-108zM687 433q6 -1 15 4q-4 -7 -6.5 -12.5t-6.5 -10.5v-2
q6 8 15 16t18 9q12 0 11.5 -11t-4.5 -19q-1 -2 -4 -7t-5.5 -10t-4.5 -10t0 -8q2 -5 6.5 -2t8.5 8t7.5 10.5t4.5 7.5l4 -2l-10 -16.5t-13 -13.5q-7 -5 -14 -2.5t-6 13.5q1 10 6.5 18.5t8.5 16.5l3 11.5t-5 6.5q-11 -2 -20 -16t-14 -24l-12 -28h-12l4 11l-4 -4t-4 -3
q-8 -5 -15.5 -1.5t-5.5 14.5q0 9 4.5 17.5t7.5 16.5q7 9 10 21q10 0 15 5l-19 -44l-5.5 -11.5t-0.5 -10.5t7.5 0t8.5 8t7 10t4 7zM961 704q-7 0 -10 -9t-4 -20.5t-0.5 -23t0.5 -15.5q0 -5 -0.5 -16t0.5 -22t4 -20t10 -9q6 0 9 9t4 20t0.5 22t-0.5 16q0 4 0.5 15.5t-0.5 23
t-4 20.5t-9 9zM396 704q-7 0 -10 -9t-4 -20.5t-0.5 -23t0.5 -15.5q0 -5 -0.5 -16t0.5 -22t4 -20t10 -9q6 0 8.5 9t3.5 20t0.5 22t-0.5 16q0 4 0.5 15.5t-0.5 23t-3.5 20.5t-8.5 9zM1212 724h23q0 -32 -1 -65t-3 -66h-15q-2 33 -3 65.5t-1 65.5zM154 475q-8 2 -19 -8t-16 -16
q-16 -20 -29 -45h43l13 31q1 3 4 9t5 12t2.5 11t-3.5 6zM1058 460q-5 -4 -6.5 0t-0.5 9q-5 2 -9 0t-7 -6.5t-5 -9.5t-3 -9h14l-3 -7h-14l-45 -104q-7 0 -14 -3l47 107h-16l3 7h16q3 9 8 18.5t15 11.5q6 2 15 -1q2 -2 6 -5.5t-1 -7.5zM850 460q-5 -4 -7 0t-1 9q-5 2 -9 0
t-7 -6.5t-5 -9.5t-3 -9h14l-3 -7h-14l-45 -104q-7 0 -13 -3l45 107h-15l4 7h15q3 9 8 18.5t15 11.5q6 2 15 -1l5.5 -5.5t0.5 -7.5zM633 136q-2 -11 -3 -23t-3 -23h30q-3 34 -8.5 67.5t-7.5 68.5q-1 -23 -3.5 -45t-4.5 -45zM89 626q5 0 9.5 -0.5t7.5 4.5q5 6 5.5 16.5
t0.5 18.5t-0.5 18t-5.5 16q-3 5 -7.5 5h-9.5v-78zM1065 431q-8 0 -15.5 -10t-11.5 -22.5t-4 -22.5t8 -10q6 0 13 10.5t11.5 22.5t5 22t-6.5 10zM945 7q0 -12 -6.5 -17.5t-14 -5.5t-13.5 5.5t-6 17.5t6 17.5t13.5 5.5t14 -5.5t6.5 -17.5zM572 7q0 -12 -6.5 -17.5t-14 -5.5
t-13.5 5.5t-6 17.5t6 17.5t13.5 5.5t14 -5.5t6.5 -17.5zM470 428q-7 0 -12.5 -6t-10 -15t-8.5 -18.5t-7 -15.5q6 -5 11.5 -4.5t10.5 4.5t9 9t6 10q1 3 4 9t4 12t0 10.5t-7 4.5zM235 369q7 0 13 6.5t10.5 16t8 19.5t6.5 17q-10 6 -20 -3.5t-15 -18.5l-4 -8t-4.5 -12.5
t-1 -11.5t6.5 -5zM228 637q5 0 9 -0.5t7 1.5q6 5 7 14.5t1 17.5t-1 17.5t-7 14.5q-3 2 -7 2h-9v-67zM372 369q7 0 13.5 6.5t11 16t8 19.5t6.5 17q-11 6 -21 -3.5t-15 -18.5l-4 -8t-4.5 -12.5t-1 -11.5t6.5 -5zM549 403q-6 -10 -7 -16q11 0 25 11t14 25q0 8 -5.5 7.5
t-10.5 -4.5t-9 -10.5t-7 -12.5zM542 643l-3 -28h18q-2 21 -4.5 41.5t-3.5 41.5q-1 -13 -3 -27zM1236 563q0 -8 -4 -11.5t-8.5 -3.5t-8.5 3.5t-4 11.5q0 7 4 10.5t8.5 3.5t8.5 -3.5t4 -10.5zM679 456q-4 -8 -11.5 -5t-5.5 11q3 10 12 7t5 -13zM332 456q-3 -8 -10.5 -5
t-5.5 11q1 5 5 6.5t7.5 0.5t5 -4.5t-1.5 -8.5zM1216 367q-4 -8 -11.5 -4.5t-3.5 11.5q4 9 11.5 5t3.5 -12zM1237 421q-3 -9 -11 -5.5t-3 12.5q4 7 11 4t3 -11z" />
    <glyph glyph-name="two" unicode="2" horiz-adv-x="1272" 
d="M364 266h43q5 -60 8.5 -118t5.5 -117q3 45 5.5 89t7.5 89l6 57h40q5 -48 9 -96l8 -96l3 -43q3 47 4.5 93t5.5 91q2 13 2.5 25.5t1.5 25.5h31l-21 -283h-47q-5 56 -9.5 112t-6.5 113q-2 -42 -5 -84t-7 -84l-4 -57h-48l-12 159l-12 -159h-46l-10 112t-7 113
q-2 -42 -4.5 -84t-6.5 -84l-5 -57h-47l-12 162l-12 -162h-47q-5 56 -9.5 111.5t-6.5 112.5q-1 -43 -4 -84t-7 -83l-6 -57h-46l-22 283h31q5 -60 8.5 -118t5.5 -117l6 89t8 89l6 57h39q6 -48 10 -96t7 -96l3 -43q3 47 4.5 93t5.5 91l5 51h42q5 -60 8.5 -118t6.5 -117
q3 45 5.5 89t6.5 89q3 14 4 28t3 29h40q5 -48 9 -96l8 -96l2 -43q3 47 5 93t6 91zM1227 876h-1153v26h1153v-26zM1227 -197h-1153v25h1153v-25zM754 -17h-36v283h37h22t21 -5q18 -9 23 -31.5t5 -42.5v-22t-2.5 -25.5t-8 -22.5t-14.5 -14l31 -120h-40l-21 113h-17v-113z
M1001 46v-63h-33v283h32l25.5 -98.5t22.5 -99.5q-4 50 -4.5 99t-0.5 99h33v-283h-34l-25 96.5t-22 97.5q2 -33 3 -65.5t3 -65.5zM617 -17h-34l30 283h58l31 -283h-36l-7 67h-34zM1175 160q1 14 0 28.5t-5 26.5q-4 9 -11.5 14.5t-14.5 -5.5q-6 -10 -7 -24.5t-2 -26.5
q-1 -14 -1 -27v-26v-26.5t2 -26.5q0 -11 2 -25.5t11 -21.5q11 -7 16.5 2t8 23.5t3 29t0.5 19.5h-26v33h59v-142h-26l-1 38q-2 -12 -7.5 -25t-17.5 -17q-11 -4 -22 2t-18 15q-14 20 -16.5 49t-2.5 52q-2 29 -1 60t8 59q2 12 7.5 24t15.5 18q21 14 46 4q12 -6 19 -17.5t10 -26
t4 -29.5t1 -27zM227 409q5 9 12.5 16t16.5 9q8 3 16 -1t18 -1l-19 -39q-2 -4 -5.5 -12t0.5 -10q5 -5 11.5 2t11.5 15q2 6 5 11.5l6 11.5l8 21q9 0 15 5l-19 -44q-2 -4 -5 -11.5t1 -10.5q4 -5 10 1.5t10 14.5q4 11 9.5 22l10.5 22t9 21t9 21q7 -3 14 3l-27 -64q-2 -6 -5 -12
t-5 -11q-1 -3 -2.5 -7t-1.5 -7t1 -4.5t6 0.5t9.5 7.5t8.5 13.5q2 5 4 9l4 8q5 9 12 16t17 9q9 3 17 -1t17 -1q-5 -10 -9 -19l-9 -20q-2 -4 -5 -12t0 -10q3 -3 6.5 -1t7 6.5t6.5 9.5t5 8l1 2l33 77q8 0 13 3l-10 -27.5t-13 -25.5q7 8 16.5 13t16.5 -7q7 -11 1 -27t-13 -24
q6 -1 11.5 2t10.5 8q4 11 9 21.5l10 21.5l18 42q5 -2 14 3q-8 -16 -14 -32t-14 -32q-2 -6 -4.5 -12t-5.5 -11q-1 -3 -2 -7t-1 -7t1 -4.5t6 0.5t10.5 9t8.5 14q3 17 13 25q3 4 9.5 9t14 7.5t13.5 0.5t8 -12q1 -9 -3.5 -17t-12 -13.5t-16.5 -8.5t-16 -3q-1 -7 3.5 -11t10.5 -4
q13 0 24 8.5t18 20.5l4 -2q-8 -16 -23.5 -26t-31.5 -6q-17 3 -17 20q-4 -6 -8 -11t-9 -7q-7 -5 -15 -1.5t-6 14.5v2q-2 -2 -4 -2q-4 -4 -12 -4h-7q-2 0 -3 -2t-3 -2q-10 -8 -22 -6.5t-18 12.5q-8 -10 -17 -13t-13 3.5t0 14.5q-5 -8 -14 -15.5t-18 -0.5q-7 4 -7 16
q-7 -12 -14 -16q-8 -5 -15.5 -2t-6.5 12l-5.5 -5.5t-5.5 -4.5q-8 -5 -15.5 -2t-5.5 13l-9 -7.5t-9 -5.5q-9 -3 -12.5 3.5t0.5 14.5h-1q-5 -8 -13.5 -15.5t-18.5 -0.5q-5 2 -6 7.5t0 10.5q-4 -4 -10 -7q-4 -2 -13 -2q-5 0 -6 -1t-4 -3q-11 -8 -24 -7t-9 20q2 14 8 26.5
l11 23.5q6 0 14 5q-4 -9 -7 -17.5t-7 -16.5q-1 -3 -4 -8.5t-5 -11.5t-2 -10.5t4 -5.5q9 -2 17.5 9.5t11.5 17.5q5 9 8 20t3 22q9 2 10 -6t-1 -15q-4 -19 -18 -36q8 -3 15 3t11 14zM961 547q-11 0 -17.5 6t-10 15t-5 19.5t-1.5 20.5q-2 22 -2 45.5t6 45.5q3 10 8.5 17.5
t14.5 8.5q20 5 32 -15q9 -20 9 -43.5v-44.5q0 -11 -0.5 -24t-4 -24t-10.5 -19t-19 -8zM396 547q-11 0 -17.5 6t-10.5 15t-5 19.5l-2 20.5q-1 22 -1 45.5t6 45.5q3 10 8 17.5t16 8.5q21 5 31 -15q8 -20 8.5 -43.5t0.5 -44.5q0 -11 -1 -24t-4.5 -24t-10 -19t-18.5 -8zM883 -17
h-36v283h36v-283zM228 548h-21v176h23h15t13 -3q10 -6 13 -19t3 -24v-14.5t-1.5 -17t-4.5 -15t-9 -9.5l18 -74h-24l-13 70q-3 0 -6 0.5t-6 0.5v-71zM1025 587v-39h-21v176h20l16 -61t14 -62q-2 30 -2.5 61t-0.5 62h21v-176h-22q-8 29 -15.5 59.5t-13.5 61.5q2 -21 2.5 -41
t1.5 -41zM89 548h-23v176h35q25 0 33 -30q4 -16 3 -37.5t-9 -37.5q-7 -11 -17.5 -12t-21.5 -1v-58zM460 587v-39h-21v176h20l15.5 -61t13.5 -62q-2 30 -2.5 61t-0.5 62h21v-176h-22l-14.5 59.5t-13.5 61.5q2 -21 2 -41t2 -41zM533 548h-21l18 176h36l19 -176h-21l-5 43h-22z
M714 547q-16 0 -23.5 10t-10 24t-2 30.5t0.5 29.5v83h23v-123q0 -5 -0.5 -11.5t1.5 -11.5q2 -6 7 -8.5t10 2.5t5.5 15t0.5 17q1 14 0.5 28t-0.5 28v64h22v-83q0 -13 0.5 -29.5t-1.5 -30.5t-9.5 -24t-23.5 -10zM1110 433q7 -1 14 4l-5.5 -12.5t-7.5 -10.5v-2q7 8 15.5 16
t17.5 9q12 0 11.5 -11t-3.5 -19q-2 -2 -4.5 -7t-5.5 -10t-4.5 -10t0.5 -8q2 -4 5.5 -2t7 6t7 9l5.5 8l20 44h-8l3 7h8l8 19q6 0 14 4l-10 -23h15l-4 -7h-14l-18 -43q-2 -5 -5 -11.5t-1 -11.5q3 -3 7 -0.5t8.5 8t7.5 10.5t4 7l4 -2q-5 -9 -12 -19.5t-18 -12.5q-10 -3 -13 1.5
t-1 11.5l-6 -6t-6 -5q-7 -5 -14.5 -2.5t-6.5 13.5q1 10 6.5 18.5t8.5 16.5q1 4 3.5 11.5t-4.5 6.5q-11 -2 -20.5 -16t-14.5 -24q-4 -6 -6.5 -13l-5.5 -15h-12l7 19l-1 -1q-3 -3 -10 -5h-9q-5 -7 -11 -9t-9 -2q-9 -6 -18 3q-8 8 -6.5 20.5t5.5 23.5q5 11 14 19.5t22 8.5
q10 0 14.5 -7t4.5 -16.5t-3.5 -19.5t-7.5 -16q13 0 20 13zM309 630q-11 8 -18 19t-9 26q-2 13 2 26t16 20q9 5 22 4.5t21 -10.5q9 -10 9 -22.5v-24.5q-6 0 -12 0.5t-11 0.5q0 7 0.5 15t-4.5 13q-9 10 -14.5 2t-6.5 -18q0 -14 7.5 -21.5t15.5 -14.5t14.5 -15.5t8.5 -19.5
q2 -12 0.5 -24t-7 -21.5t-14.5 -14.5t-21 -3q-21 4 -23.5 22t-1.5 37h21q0 -5 -0.5 -11t0.5 -13q2 -7 7.5 -11t11.5 1q5 5 6 14.5t-1 16.5q-2 9 -7 15.5t-12 11.5zM785 630q-23 15 -27 45q-1 13 2.5 26t14.5 20q10 5 22.5 4.5t20.5 -10.5q9 -10 8.5 -22.5t-0.5 -24.5
q-5 0 -10 0.5t-10 0.5q0 7 0.5 15t-5.5 13q-9 10 -14.5 2t-6.5 -18q0 -14 7 -21.5t15 -14.5q18 -13 24 -35q2 -12 0.5 -24t-7 -21.5t-14.5 -14.5t-22 -3q-10 2 -15 8t-7.5 14t-2.5 18v19h22q0 -5 -1 -11t1 -13t7 -11t11 1q7 5 8 14.5t-1 16.5q-2 9 -7.5 15.5t-12.5 11.5z
M201 548h-56v176h56v-24h-34v-49h28v-26h-28v-53h34v-24zM891 548h-55v176h55v-24h-32v-49h27v-26h-27v-53h32v-24zM129 400l-42 -3q-5 -8 -9.5 -19t-5.5 -22q-8 -2 -9.5 3t0 13t4.5 15.5t5 9.5l-14 -1l-5 10h23q11 20 27 39.5t36 30.5q6 5 16 5.5t12 -11.5q2 -6 -0.5 -12.5
l-4.5 -11.5q-5 -11 -9.5 -22t-9.5 -22q-3 -8 -9.5 -20.5t-2.5 -21.5q-9 -2 -11 3t-0.5 12t4.5 14.5t5 10.5zM1185 724h21l-10 -49.5l-10 -49.5q-5 -18 -3.5 -38t1.5 -39h-24q0 19 0.5 39t-3.5 38l-10 49.5l-10 49.5h21l8 -44.5t6 -46.5q1 24 5 46zM815 363q-7 5 -5.5 13
t4.5 16l17 40q7 0 14 5l-13 -31q-2 -5 -8 -17t-2 -17q6 -6 14.5 2.5t11.5 13.5t5 9.5t6 9.5l12 27q3 0 6 1l6 2q-4 -11 -8.5 -21.5l-9.5 -21.5q-2 -5 -5 -11.5t0 -11.5q4 -6 10 1t11 15q4 11 9.5 22l10.5 22q4 11 8.5 21l9.5 21q6 -3 14 3l-28 -64l-10 -23q-1 -3 -2 -7
t-1.5 -7t1 -4.5t5.5 0.5q9 3 16 15q4 11 9.5 22.5l10.5 22.5l8 21t9 21q7 -3 15 3l-28 -64l-10 -23q-1 -3 -2 -7t-1.5 -7t0.5 -4.5t6 0.5q7 2 12 10t8 15l4 -2q-5 -9 -10 -17t-13 -13q-7 -5 -14 -2t-6 12q-7 -7 -13 -10q-7 -5 -14 -2t-6 13q-5 -6 -9.5 -10.5t-10.5 -4.5
q-10 0 -11 7t2 14q-6 -8 -16.5 -16t-18.5 -2zM1135 548h-55v176h22v-154h33v-22zM645 548h-55v176h23v-154h32v-22zM754 125q6 0 12.5 -1t11.5 4q9 9 11 23.5t2 25.5q0 13 -2 28t-10 24q-5 5 -12 4.5t-13 -0.5v-108zM687 433q6 -1 15 4q-4 -7 -6.5 -12.5t-6.5 -10.5v-2
q6 8 15 16t18 9q12 0 11.5 -11t-4.5 -19q-1 -2 -4 -7t-5.5 -10t-4.5 -10t0 -8q2 -5 6.5 -2t8.5 8t7.5 10.5t4.5 7.5l4 -2l-10 -16.5t-13 -13.5q-7 -5 -14 -2.5t-6 13.5q1 10 6.5 18.5t8.5 16.5l3 11.5t-5 6.5q-11 -2 -20 -16t-14 -24l-12 -28h-12l4 11l-4 -4t-4 -3
q-8 -5 -15.5 -1.5t-5.5 14.5q0 9 4.5 17.5t7.5 16.5q7 9 10 21q10 0 15 5l-19 -44l-5.5 -11.5t-0.5 -10.5t7.5 0t8.5 8t7 10t4 7zM961 704q-7 0 -10 -9t-4 -20.5t-0.5 -23t0.5 -15.5q0 -5 -0.5 -16t0.5 -22t4 -20t10 -9q6 0 9 9t4 20t0.5 22t-0.5 16q0 4 0.5 15.5t-0.5 23
t-4 20.5t-9 9zM396 704q-7 0 -10 -9t-4 -20.5t-0.5 -23t0.5 -15.5q0 -5 -0.5 -16t0.5 -22t4 -20t10 -9q6 0 8.5 9t3.5 20t0.5 22t-0.5 16q0 4 0.5 15.5t-0.5 23t-3.5 20.5t-8.5 9zM1212 724h23q0 -32 -1 -65t-3 -66h-15q-2 33 -3 65.5t-1 65.5zM154 475q-8 2 -19 -8t-16 -16
q-16 -20 -29 -45h43l13 31q1 3 4 9t5 12t2.5 11t-3.5 6zM1058 460q-5 -4 -6.5 0t-0.5 9q-5 2 -9 0t-7 -6.5t-5 -9.5t-3 -9h14l-3 -7h-14l-45 -104q-7 0 -14 -3l47 107h-16l3 7h16q3 9 8 18.5t15 11.5q6 2 15 -1q2 -2 6 -5.5t-1 -7.5zM850 460q-5 -4 -7 0t-1 9q-5 2 -9 0
t-7 -6.5t-5 -9.5t-3 -9h14l-3 -7h-14l-45 -104q-7 0 -13 -3l45 107h-15l4 7h15q3 9 8 18.5t15 11.5q6 2 15 -1l5.5 -5.5t0.5 -7.5zM633 136q-2 -11 -3 -23t-3 -23h30q-3 34 -8.5 67.5t-7.5 68.5q-1 -23 -3.5 -45t-4.5 -45zM89 626q5 0 9.5 -0.5t7.5 4.5q5 6 5.5 16.5
t0.5 18.5t-0.5 18t-5.5 16q-3 5 -7.5 5h-9.5v-78zM1065 431q-8 0 -15.5 -10t-11.5 -22.5t-4 -22.5t8 -10q6 0 13 10.5t11.5 22.5t5 22t-6.5 10zM945 7q0 -12 -6.5 -17.5t-14 -5.5t-13.5 5.5t-6 17.5t6 17.5t13.5 5.5t14 -5.5t6.5 -17.5zM572 7q0 -12 -6.5 -17.5t-14 -5.5
t-13.5 5.5t-6 17.5t6 17.5t13.5 5.5t14 -5.5t6.5 -17.5zM470 428q-7 0 -12.5 -6t-10 -15t-8.5 -18.5t-7 -15.5q6 -5 11.5 -4.5t10.5 4.5t9 9t6 10q1 3 4 9t4 12t0 10.5t-7 4.5zM235 369q7 0 13 6.5t10.5 16t8 19.5t6.5 17q-10 6 -20 -3.5t-15 -18.5l-4 -8t-4.5 -12.5
t-1 -11.5t6.5 -5zM228 637q5 0 9 -0.5t7 1.5q6 5 7 14.5t1 17.5t-1 17.5t-7 14.5q-3 2 -7 2h-9v-67zM372 369q7 0 13.5 6.5t11 16t8 19.5t6.5 17q-11 6 -21 -3.5t-15 -18.5l-4 -8t-4.5 -12.5t-1 -11.5t6.5 -5zM549 403q-6 -10 -7 -16q11 0 25 11t14 25q0 8 -5.5 7.5
t-10.5 -4.5t-9 -10.5t-7 -12.5zM542 643l-3 -28h18q-2 21 -4.5 41.5t-3.5 41.5q-1 -13 -3 -27zM1236 563q0 -8 -4 -11.5t-8.5 -3.5t-8.5 3.5t-4 11.5q0 7 4 10.5t8.5 3.5t8.5 -3.5t4 -10.5zM679 456q-4 -8 -11.5 -5t-5.5 11q3 10 12 7t5 -13zM332 456q-3 -8 -10.5 -5
t-5.5 11q1 5 5 6.5t7.5 0.5t5 -4.5t-1.5 -8.5zM1216 367q-4 -8 -11.5 -4.5t-3.5 11.5q4 9 11.5 5t3.5 -12zM1237 421q-3 -9 -11 -5.5t-3 12.5q4 7 11 4t3 -11z" />
    <glyph glyph-name="zero" unicode="0" horiz-adv-x="1272" 
d="M364 266h43q5 -60 8.5 -118t5.5 -117q3 45 5.5 89t7.5 89l6 57h40q5 -48 9 -96l8 -96l3 -43q3 47 4.5 93t5.5 91q2 13 2.5 25.5t1.5 25.5h31l-21 -283h-47q-5 56 -9.5 112t-6.5 113q-2 -42 -5 -84t-7 -84l-4 -57h-48l-12 159l-12 -159h-46l-10 112t-7 113
q-2 -42 -4.5 -84t-6.5 -84l-5 -57h-47l-12 162l-12 -162h-47q-5 56 -9.5 111.5t-6.5 112.5q-1 -43 -4 -84t-7 -83l-6 -57h-46l-22 283h31q5 -60 8.5 -118t5.5 -117l6 89t8 89l6 57h39q6 -48 10 -96t7 -96l3 -43q3 47 4.5 93t5.5 91l5 51h42q5 -60 8.5 -118t6.5 -117
q3 45 5.5 89t6.5 89q3 14 4 28t3 29h40q5 -48 9 -96l8 -96l2 -43q3 47 5 93t6 91zM1227 876h-1153v26h1153v-26zM1227 -197h-1153v25h1153v-25zM754 -17h-36v283h37h22t21 -5q18 -9 23 -31.5t5 -42.5v-22t-2.5 -25.5t-8 -22.5t-14.5 -14l31 -120h-40l-21 113h-17v-113z
M1001 46v-63h-33v283h32l25.5 -98.5t22.5 -99.5q-4 50 -4.5 99t-0.5 99h33v-283h-34l-25 96.5t-22 97.5q2 -33 3 -65.5t3 -65.5zM617 -17h-34l30 283h58l31 -283h-36l-7 67h-34zM1175 160q1 14 0 28.5t-5 26.5q-4 9 -11.5 14.5t-14.5 -5.5q-6 -10 -7 -24.5t-2 -26.5
q-1 -14 -1 -27v-26v-26.5t2 -26.5q0 -11 2 -25.5t11 -21.5q11 -7 16.5 2t8 23.5t3 29t0.5 19.5h-26v33h59v-142h-26l-1 38q-2 -12 -7.5 -25t-17.5 -17q-11 -4 -22 2t-18 15q-14 20 -16.5 49t-2.5 52q-2 29 -1 60t8 59q2 12 7.5 24t15.5 18q21 14 46 4q12 -6 19 -17.5t10 -26
t4 -29.5t1 -27zM227 409q5 9 12.5 16t16.5 9q8 3 16 -1t18 -1l-19 -39q-2 -4 -5.5 -12t0.5 -10q5 -5 11.5 2t11.5 15q2 6 5 11.5l6 11.5l8 21q9 0 15 5l-19 -44q-2 -4 -5 -11.5t1 -10.5q4 -5 10 1.5t10 14.5q4 11 9.5 22l10.5 22t9 21t9 21q7 -3 14 3l-27 -64q-2 -6 -5 -12
t-5 -11q-1 -3 -2.5 -7t-1.5 -7t1 -4.5t6 0.5t9.5 7.5t8.5 13.5q2 5 4 9l4 8q5 9 12 16t17 9q9 3 17 -1t17 -1q-5 -10 -9 -19l-9 -20q-2 -4 -5 -12t0 -10q3 -3 6.5 -1t7 6.5t6.5 9.5t5 8l1 2l33 77q8 0 13 3l-10 -27.5t-13 -25.5q7 8 16.5 13t16.5 -7q7 -11 1 -27t-13 -24
q6 -1 11.5 2t10.5 8q4 11 9 21.5l10 21.5l18 42q5 -2 14 3q-8 -16 -14 -32t-14 -32q-2 -6 -4.5 -12t-5.5 -11q-1 -3 -2 -7t-1 -7t1 -4.5t6 0.5t10.5 9t8.5 14q3 17 13 25q3 4 9.5 9t14 7.5t13.5 0.5t8 -12q1 -9 -3.5 -17t-12 -13.5t-16.5 -8.5t-16 -3q-1 -7 3.5 -11t10.5 -4
q13 0 24 8.5t18 20.5l4 -2q-8 -16 -23.5 -26t-31.5 -6q-17 3 -17 20q-4 -6 -8 -11t-9 -7q-7 -5 -15 -1.5t-6 14.5v2q-2 -2 -4 -2q-4 -4 -12 -4h-7q-2 0 -3 -2t-3 -2q-10 -8 -22 -6.5t-18 12.5q-8 -10 -17 -13t-13 3.5t0 14.5q-5 -8 -14 -15.5t-18 -0.5q-7 4 -7 16
q-7 -12 -14 -16q-8 -5 -15.5 -2t-6.5 12l-5.5 -5.5t-5.5 -4.5q-8 -5 -15.5 -2t-5.5 13l-9 -7.5t-9 -5.5q-9 -3 -12.5 3.5t0.5 14.5h-1q-5 -8 -13.5 -15.5t-18.5 -0.5q-5 2 -6 7.5t0 10.5q-4 -4 -10 -7q-4 -2 -13 -2q-5 0 -6 -1t-4 -3q-11 -8 -24 -7t-9 20q2 14 8 26.5
l11 23.5q6 0 14 5q-4 -9 -7 -17.5t-7 -16.5q-1 -3 -4 -8.5t-5 -11.5t-2 -10.5t4 -5.5q9 -2 17.5 9.5t11.5 17.5q5 9 8 20t3 22q9 2 10 -6t-1 -15q-4 -19 -18 -36q8 -3 15 3t11 14zM961 547q-11 0 -17.5 6t-10 15t-5 19.5t-1.5 20.5q-2 22 -2 45.5t6 45.5q3 10 8.5 17.5
t14.5 8.5q20 5 32 -15q9 -20 9 -43.5v-44.5q0 -11 -0.5 -24t-4 -24t-10.5 -19t-19 -8zM396 547q-11 0 -17.5 6t-10.5 15t-5 19.5l-2 20.5q-1 22 -1 45.5t6 45.5q3 10 8 17.5t16 8.5q21 5 31 -15q8 -20 8.5 -43.5t0.5 -44.5q0 -11 -1 -24t-4.5 -24t-10 -19t-18.5 -8zM883 -17
h-36v283h36v-283zM228 548h-21v176h23h15t13 -3q10 -6 13 -19t3 -24v-14.5t-1.5 -17t-4.5 -15t-9 -9.5l18 -74h-24l-13 70q-3 0 -6 0.5t-6 0.5v-71zM1025 587v-39h-21v176h20l16 -61t14 -62q-2 30 -2.5 61t-0.5 62h21v-176h-22q-8 29 -15.5 59.5t-13.5 61.5q2 -21 2.5 -41
t1.5 -41zM89 548h-23v176h35q25 0 33 -30q4 -16 3 -37.5t-9 -37.5q-7 -11 -17.5 -12t-21.5 -1v-58zM460 587v-39h-21v176h20l15.5 -61t13.5 -62q-2 30 -2.5 61t-0.5 62h21v-176h-22l-14.5 59.5t-13.5 61.5q2 -21 2 -41t2 -41zM533 548h-21l18 176h36l19 -176h-21l-5 43h-22z
M714 547q-16 0 -23.5 10t-10 24t-2 30.5t0.5 29.5v83h23v-123q0 -5 -0.5 -11.5t1.5 -11.5q2 -6 7 -8.5t10 2.5t5.5 15t0.5 17q1 14 0.5 28t-0.5 28v64h22v-83q0 -13 0.5 -29.5t-1.5 -30.5t-9.5 -24t-23.5 -10zM1110 433q7 -1 14 4l-5.5 -12.5t-7.5 -10.5v-2q7 8 15.5 16
t17.5 9q12 0 11.5 -11t-3.5 -19q-2 -2 -4.5 -7t-5.5 -10t-4.5 -10t0.5 -8q2 -4 5.5 -2t7 6t7 9l5.5 8l20 44h-8l3 7h8l8 19q6 0 14 4l-10 -23h15l-4 -7h-14l-18 -43q-2 -5 -5 -11.5t-1 -11.5q3 -3 7 -0.5t8.5 8t7.5 10.5t4 7l4 -2q-5 -9 -12 -19.5t-18 -12.5q-10 -3 -13 1.5
t-1 11.5l-6 -6t-6 -5q-7 -5 -14.5 -2.5t-6.5 13.5q1 10 6.5 18.5t8.5 16.5q1 4 3.5 11.5t-4.5 6.5q-11 -2 -20.5 -16t-14.5 -24q-4 -6 -6.5 -13l-5.5 -15h-12l7 19l-1 -1q-3 -3 -10 -5h-9q-5 -7 -11 -9t-9 -2q-9 -6 -18 3q-8 8 -6.5 20.5t5.5 23.5q5 11 14 19.5t22 8.5
q10 0 14.5 -7t4.5 -16.5t-3.5 -19.5t-7.5 -16q13 0 20 13zM309 630q-11 8 -18 19t-9 26q-2 13 2 26t16 20q9 5 22 4.5t21 -10.5q9 -10 9 -22.5v-24.5q-6 0 -12 0.5t-11 0.5q0 7 0.5 15t-4.5 13q-9 10 -14.5 2t-6.5 -18q0 -14 7.5 -21.5t15.5 -14.5t14.5 -15.5t8.5 -19.5
q2 -12 0.5 -24t-7 -21.5t-14.5 -14.5t-21 -3q-21 4 -23.5 22t-1.5 37h21q0 -5 -0.5 -11t0.5 -13q2 -7 7.5 -11t11.5 1q5 5 6 14.5t-1 16.5q-2 9 -7 15.5t-12 11.5zM785 630q-23 15 -27 45q-1 13 2.5 26t14.5 20q10 5 22.5 4.5t20.5 -10.5q9 -10 8.5 -22.5t-0.5 -24.5
q-5 0 -10 0.5t-10 0.5q0 7 0.5 15t-5.5 13q-9 10 -14.5 2t-6.5 -18q0 -14 7 -21.5t15 -14.5q18 -13 24 -35q2 -12 0.5 -24t-7 -21.5t-14.5 -14.5t-22 -3q-10 2 -15 8t-7.5 14t-2.5 18v19h22q0 -5 -1 -11t1 -13t7 -11t11 1q7 5 8 14.5t-1 16.5q-2 9 -7.5 15.5t-12.5 11.5z
M201 548h-56v176h56v-24h-34v-49h28v-26h-28v-53h34v-24zM891 548h-55v176h55v-24h-32v-49h27v-26h-27v-53h32v-24zM129 400l-42 -3q-5 -8 -9.5 -19t-5.5 -22q-8 -2 -9.5 3t0 13t4.5 15.5t5 9.5l-14 -1l-5 10h23q11 20 27 39.5t36 30.5q6 5 16 5.5t12 -11.5q2 -6 -0.5 -12.5
l-4.5 -11.5q-5 -11 -9.5 -22t-9.5 -22q-3 -8 -9.5 -20.5t-2.5 -21.5q-9 -2 -11 3t-0.5 12t4.5 14.5t5 10.5zM1185 724h21l-10 -49.5l-10 -49.5q-5 -18 -3.5 -38t1.5 -39h-24q0 19 0.5 39t-3.5 38l-10 49.5l-10 49.5h21l8 -44.5t6 -46.5q1 24 5 46zM815 363q-7 5 -5.5 13
t4.5 16l17 40q7 0 14 5l-13 -31q-2 -5 -8 -17t-2 -17q6 -6 14.5 2.5t11.5 13.5t5 9.5t6 9.5l12 27q3 0 6 1l6 2q-4 -11 -8.5 -21.5l-9.5 -21.5q-2 -5 -5 -11.5t0 -11.5q4 -6 10 1t11 15q4 11 9.5 22l10.5 22q4 11 8.5 21l9.5 21q6 -3 14 3l-28 -64l-10 -23q-1 -3 -2 -7
t-1.5 -7t1 -4.5t5.5 0.5q9 3 16 15q4 11 9.5 22.5l10.5 22.5l8 21t9 21q7 -3 15 3l-28 -64l-10 -23q-1 -3 -2 -7t-1.5 -7t0.5 -4.5t6 0.5q7 2 12 10t8 15l4 -2q-5 -9 -10 -17t-13 -13q-7 -5 -14 -2t-6 12q-7 -7 -13 -10q-7 -5 -14 -2t-6 13q-5 -6 -9.5 -10.5t-10.5 -4.5
q-10 0 -11 7t2 14q-6 -8 -16.5 -16t-18.5 -2zM1135 548h-55v176h22v-154h33v-22zM645 548h-55v176h23v-154h32v-22zM754 125q6 0 12.5 -1t11.5 4q9 9 11 23.5t2 25.5q0 13 -2 28t-10 24q-5 5 -12 4.5t-13 -0.5v-108zM687 433q6 -1 15 4q-4 -7 -6.5 -12.5t-6.5 -10.5v-2
q6 8 15 16t18 9q12 0 11.5 -11t-4.5 -19q-1 -2 -4 -7t-5.5 -10t-4.5 -10t0 -8q2 -5 6.5 -2t8.5 8t7.5 10.5t4.5 7.5l4 -2l-10 -16.5t-13 -13.5q-7 -5 -14 -2.5t-6 13.5q1 10 6.5 18.5t8.5 16.5l3 11.5t-5 6.5q-11 -2 -20 -16t-14 -24l-12 -28h-12l4 11l-4 -4t-4 -3
q-8 -5 -15.5 -1.5t-5.5 14.5q0 9 4.5 17.5t7.5 16.5q7 9 10 21q10 0 15 5l-19 -44l-5.5 -11.5t-0.5 -10.5t7.5 0t8.5 8t7 10t4 7zM961 704q-7 0 -10 -9t-4 -20.5t-0.5 -23t0.5 -15.5q0 -5 -0.5 -16t0.5 -22t4 -20t10 -9q6 0 9 9t4 20t0.5 22t-0.5 16q0 4 0.5 15.5t-0.5 23
t-4 20.5t-9 9zM396 704q-7 0 -10 -9t-4 -20.5t-0.5 -23t0.5 -15.5q0 -5 -0.5 -16t0.5 -22t4 -20t10 -9q6 0 8.5 9t3.5 20t0.5 22t-0.5 16q0 4 0.5 15.5t-0.5 23t-3.5 20.5t-8.5 9zM1212 724h23q0 -32 -1 -65t-3 -66h-15q-2 33 -3 65.5t-1 65.5zM154 475q-8 2 -19 -8t-16 -16
q-16 -20 -29 -45h43l13 31q1 3 4 9t5 12t2.5 11t-3.5 6zM1058 460q-5 -4 -6.5 0t-0.5 9q-5 2 -9 0t-7 -6.5t-5 -9.5t-3 -9h14l-3 -7h-14l-45 -104q-7 0 -14 -3l47 107h-16l3 7h16q3 9 8 18.5t15 11.5q6 2 15 -1q2 -2 6 -5.5t-1 -7.5zM850 460q-5 -4 -7 0t-1 9q-5 2 -9 0
t-7 -6.5t-5 -9.5t-3 -9h14l-3 -7h-14l-45 -104q-7 0 -13 -3l45 107h-15l4 7h15q3 9 8 18.5t15 11.5q6 2 15 -1l5.5 -5.5t0.5 -7.5zM633 136q-2 -11 -3 -23t-3 -23h30q-3 34 -8.5 67.5t-7.5 68.5q-1 -23 -3.5 -45t-4.5 -45zM89 626q5 0 9.5 -0.5t7.5 4.5q5 6 5.5 16.5
t0.5 18.5t-0.5 18t-5.5 16q-3 5 -7.5 5h-9.5v-78zM1065 431q-8 0 -15.5 -10t-11.5 -22.5t-4 -22.5t8 -10q6 0 13 10.5t11.5 22.5t5 22t-6.5 10zM945 7q0 -12 -6.5 -17.5t-14 -5.5t-13.5 5.5t-6 17.5t6 17.5t13.5 5.5t14 -5.5t6.5 -17.5zM572 7q0 -12 -6.5 -17.5t-14 -5.5
t-13.5 5.5t-6 17.5t6 17.5t13.5 5.5t14 -5.5t6.5 -17.5zM470 428q-7 0 -12.5 -6t-10 -15t-8.5 -18.5t-7 -15.5q6 -5 11.5 -4.5t10.5 4.5t9 9t6 10q1 3 4 9t4 12t0 10.5t-7 4.5zM235 369q7 0 13 6.5t10.5 16t8 19.5t6.5 17q-10 6 -20 -3.5t-15 -18.5l-4 -8t-4.5 -12.5
t-1 -11.5t6.5 -5zM228 637q5 0 9 -0.5t7 1.5q6 5 7 14.5t1 17.5t-1 17.5t-7 14.5q-3 2 -7 2h-9v-67zM372 369q7 0 13.5 6.5t11 16t8 19.5t6.5 17q-11 6 -21 -3.5t-15 -18.5l-4 -8t-4.5 -12.5t-1 -11.5t6.5 -5zM549 403q-6 -10 -7 -16q11 0 25 11t14 25q0 8 -5.5 7.5
t-10.5 -4.5t-9 -10.5t-7 -12.5zM542 643l-3 -28h18q-2 21 -4.5 41.5t-3.5 41.5q-1 -13 -3 -27zM1236 563q0 -8 -4 -11.5t-8.5 -3.5t-8.5 3.5t-4 11.5q0 7 4 10.5t8.5 3.5t8.5 -3.5t4 -10.5zM679 456q-4 -8 -11.5 -5t-5.5 11q3 10 12 7t5 -13zM332 456q-3 -8 -10.5 -5
t-5.5 11q1 5 5 6.5t7.5 0.5t5 -4.5t-1.5 -8.5zM1216 367q-4 -8 -11.5 -4.5t-3.5 11.5q4 9 11.5 5t3.5 -12zM1237 421q-3 -9 -11 -5.5t-3 12.5q4 7 11 4t3 -11z" />
    <glyph glyph-name="eight" unicode="8" horiz-adv-x="1272" 
d="M364 266h43q5 -60 8.5 -118t5.5 -117q3 45 5.5 89t7.5 89l6 57h40q5 -48 9 -96l8 -96l3 -43q3 47 4.5 93t5.5 91q2 13 2.5 25.5t1.5 25.5h31l-21 -283h-47q-5 56 -9.5 112t-6.5 113q-2 -42 -5 -84t-7 -84l-4 -57h-48l-12 159l-12 -159h-46l-10 112t-7 113
q-2 -42 -4.5 -84t-6.5 -84l-5 -57h-47l-12 162l-12 -162h-47q-5 56 -9.5 111.5t-6.5 112.5q-1 -43 -4 -84t-7 -83l-6 -57h-46l-22 283h31q5 -60 8.5 -118t5.5 -117l6 89t8 89l6 57h39q6 -48 10 -96t7 -96l3 -43q3 47 4.5 93t5.5 91l5 51h42q5 -60 8.5 -118t6.5 -117
q3 45 5.5 89t6.5 89q3 14 4 28t3 29h40q5 -48 9 -96l8 -96l2 -43q3 47 5 93t6 91zM1227 876h-1153v26h1153v-26zM1227 -197h-1153v25h1153v-25zM754 -17h-36v283h37h22t21 -5q18 -9 23 -31.5t5 -42.5v-22t-2.5 -25.5t-8 -22.5t-14.5 -14l31 -120h-40l-21 113h-17v-113z
M1001 46v-63h-33v283h32l25.5 -98.5t22.5 -99.5q-4 50 -4.5 99t-0.5 99h33v-283h-34l-25 96.5t-22 97.5q2 -33 3 -65.5t3 -65.5zM617 -17h-34l30 283h58l31 -283h-36l-7 67h-34zM1175 160q1 14 0 28.5t-5 26.5q-4 9 -11.5 14.5t-14.5 -5.5q-6 -10 -7 -24.5t-2 -26.5
q-1 -14 -1 -27v-26v-26.5t2 -26.5q0 -11 2 -25.5t11 -21.5q11 -7 16.5 2t8 23.5t3 29t0.5 19.5h-26v33h59v-142h-26l-1 38q-2 -12 -7.5 -25t-17.5 -17q-11 -4 -22 2t-18 15q-14 20 -16.5 49t-2.5 52q-2 29 -1 60t8 59q2 12 7.5 24t15.5 18q21 14 46 4q12 -6 19 -17.5t10 -26
t4 -29.5t1 -27zM227 409q5 9 12.5 16t16.5 9q8 3 16 -1t18 -1l-19 -39q-2 -4 -5.5 -12t0.5 -10q5 -5 11.5 2t11.5 15q2 6 5 11.5l6 11.5l8 21q9 0 15 5l-19 -44q-2 -4 -5 -11.5t1 -10.5q4 -5 10 1.5t10 14.5q4 11 9.5 22l10.5 22t9 21t9 21q7 -3 14 3l-27 -64q-2 -6 -5 -12
t-5 -11q-1 -3 -2.5 -7t-1.5 -7t1 -4.5t6 0.5t9.5 7.5t8.5 13.5q2 5 4 9l4 8q5 9 12 16t17 9q9 3 17 -1t17 -1q-5 -10 -9 -19l-9 -20q-2 -4 -5 -12t0 -10q3 -3 6.5 -1t7 6.5t6.5 9.5t5 8l1 2l33 77q8 0 13 3l-10 -27.5t-13 -25.5q7 8 16.5 13t16.5 -7q7 -11 1 -27t-13 -24
q6 -1 11.5 2t10.5 8q4 11 9 21.5l10 21.5l18 42q5 -2 14 3q-8 -16 -14 -32t-14 -32q-2 -6 -4.5 -12t-5.5 -11q-1 -3 -2 -7t-1 -7t1 -4.5t6 0.5t10.5 9t8.5 14q3 17 13 25q3 4 9.5 9t14 7.5t13.5 0.5t8 -12q1 -9 -3.5 -17t-12 -13.5t-16.5 -8.5t-16 -3q-1 -7 3.5 -11t10.5 -4
q13 0 24 8.5t18 20.5l4 -2q-8 -16 -23.5 -26t-31.5 -6q-17 3 -17 20q-4 -6 -8 -11t-9 -7q-7 -5 -15 -1.5t-6 14.5v2q-2 -2 -4 -2q-4 -4 -12 -4h-7q-2 0 -3 -2t-3 -2q-10 -8 -22 -6.5t-18 12.5q-8 -10 -17 -13t-13 3.5t0 14.5q-5 -8 -14 -15.5t-18 -0.5q-7 4 -7 16
q-7 -12 -14 -16q-8 -5 -15.5 -2t-6.5 12l-5.5 -5.5t-5.5 -4.5q-8 -5 -15.5 -2t-5.5 13l-9 -7.5t-9 -5.5q-9 -3 -12.5 3.5t0.5 14.5h-1q-5 -8 -13.5 -15.5t-18.5 -0.5q-5 2 -6 7.5t0 10.5q-4 -4 -10 -7q-4 -2 -13 -2q-5 0 -6 -1t-4 -3q-11 -8 -24 -7t-9 20q2 14 8 26.5
l11 23.5q6 0 14 5q-4 -9 -7 -17.5t-7 -16.5q-1 -3 -4 -8.5t-5 -11.5t-2 -10.5t4 -5.5q9 -2 17.5 9.5t11.5 17.5q5 9 8 20t3 22q9 2 10 -6t-1 -15q-4 -19 -18 -36q8 -3 15 3t11 14zM961 547q-11 0 -17.5 6t-10 15t-5 19.5t-1.5 20.5q-2 22 -2 45.5t6 45.5q3 10 8.5 17.5
t14.5 8.5q20 5 32 -15q9 -20 9 -43.5v-44.5q0 -11 -0.5 -24t-4 -24t-10.5 -19t-19 -8zM396 547q-11 0 -17.5 6t-10.5 15t-5 19.5l-2 20.5q-1 22 -1 45.5t6 45.5q3 10 8 17.5t16 8.5q21 5 31 -15q8 -20 8.5 -43.5t0.5 -44.5q0 -11 -1 -24t-4.5 -24t-10 -19t-18.5 -8zM883 -17
h-36v283h36v-283zM228 548h-21v176h23h15t13 -3q10 -6 13 -19t3 -24v-14.5t-1.5 -17t-4.5 -15t-9 -9.5l18 -74h-24l-13 70q-3 0 -6 0.5t-6 0.5v-71zM1025 587v-39h-21v176h20l16 -61t14 -62q-2 30 -2.5 61t-0.5 62h21v-176h-22q-8 29 -15.5 59.5t-13.5 61.5q2 -21 2.5 -41
t1.5 -41zM89 548h-23v176h35q25 0 33 -30q4 -16 3 -37.5t-9 -37.5q-7 -11 -17.5 -12t-21.5 -1v-58zM460 587v-39h-21v176h20l15.5 -61t13.5 -62q-2 30 -2.5 61t-0.5 62h21v-176h-22l-14.5 59.5t-13.5 61.5q2 -21 2 -41t2 -41zM533 548h-21l18 176h36l19 -176h-21l-5 43h-22z
M714 547q-16 0 -23.5 10t-10 24t-2 30.5t0.5 29.5v83h23v-123q0 -5 -0.5 -11.5t1.5 -11.5q2 -6 7 -8.5t10 2.5t5.5 15t0.5 17q1 14 0.5 28t-0.5 28v64h22v-83q0 -13 0.5 -29.5t-1.5 -30.5t-9.5 -24t-23.5 -10zM1110 433q7 -1 14 4l-5.5 -12.5t-7.5 -10.5v-2q7 8 15.5 16
t17.5 9q12 0 11.5 -11t-3.5 -19q-2 -2 -4.5 -7t-5.5 -10t-4.5 -10t0.5 -8q2 -4 5.5 -2t7 6t7 9l5.5 8l20 44h-8l3 7h8l8 19q6 0 14 4l-10 -23h15l-4 -7h-14l-18 -43q-2 -5 -5 -11.5t-1 -11.5q3 -3 7 -0.5t8.5 8t7.5 10.5t4 7l4 -2q-5 -9 -12 -19.5t-18 -12.5q-10 -3 -13 1.5
t-1 11.5l-6 -6t-6 -5q-7 -5 -14.5 -2.5t-6.5 13.5q1 10 6.5 18.5t8.5 16.5q1 4 3.5 11.5t-4.5 6.5q-11 -2 -20.5 -16t-14.5 -24q-4 -6 -6.5 -13l-5.5 -15h-12l7 19l-1 -1q-3 -3 -10 -5h-9q-5 -7 -11 -9t-9 -2q-9 -6 -18 3q-8 8 -6.5 20.5t5.5 23.5q5 11 14 19.5t22 8.5
q10 0 14.5 -7t4.5 -16.5t-3.5 -19.5t-7.5 -16q13 0 20 13zM309 630q-11 8 -18 19t-9 26q-2 13 2 26t16 20q9 5 22 4.5t21 -10.5q9 -10 9 -22.5v-24.5q-6 0 -12 0.5t-11 0.5q0 7 0.5 15t-4.5 13q-9 10 -14.5 2t-6.5 -18q0 -14 7.5 -21.5t15.5 -14.5t14.5 -15.5t8.5 -19.5
q2 -12 0.5 -24t-7 -21.5t-14.5 -14.5t-21 -3q-21 4 -23.5 22t-1.5 37h21q0 -5 -0.5 -11t0.5 -13q2 -7 7.5 -11t11.5 1q5 5 6 14.5t-1 16.5q-2 9 -7 15.5t-12 11.5zM785 630q-23 15 -27 45q-1 13 2.5 26t14.5 20q10 5 22.5 4.5t20.5 -10.5q9 -10 8.5 -22.5t-0.5 -24.5
q-5 0 -10 0.5t-10 0.5q0 7 0.5 15t-5.5 13q-9 10 -14.5 2t-6.5 -18q0 -14 7 -21.5t15 -14.5q18 -13 24 -35q2 -12 0.5 -24t-7 -21.5t-14.5 -14.5t-22 -3q-10 2 -15 8t-7.5 14t-2.5 18v19h22q0 -5 -1 -11t1 -13t7 -11t11 1q7 5 8 14.5t-1 16.5q-2 9 -7.5 15.5t-12.5 11.5z
M201 548h-56v176h56v-24h-34v-49h28v-26h-28v-53h34v-24zM891 548h-55v176h55v-24h-32v-49h27v-26h-27v-53h32v-24zM129 400l-42 -3q-5 -8 -9.5 -19t-5.5 -22q-8 -2 -9.5 3t0 13t4.5 15.5t5 9.5l-14 -1l-5 10h23q11 20 27 39.5t36 30.5q6 5 16 5.5t12 -11.5q2 -6 -0.5 -12.5
l-4.5 -11.5q-5 -11 -9.5 -22t-9.5 -22q-3 -8 -9.5 -20.5t-2.5 -21.5q-9 -2 -11 3t-0.5 12t4.5 14.5t5 10.5zM1185 724h21l-10 -49.5l-10 -49.5q-5 -18 -3.5 -38t1.5 -39h-24q0 19 0.5 39t-3.5 38l-10 49.5l-10 49.5h21l8 -44.5t6 -46.5q1 24 5 46zM815 363q-7 5 -5.5 13
t4.5 16l17 40q7 0 14 5l-13 -31q-2 -5 -8 -17t-2 -17q6 -6 14.5 2.5t11.5 13.5t5 9.5t6 9.5l12 27q3 0 6 1l6 2q-4 -11 -8.5 -21.5l-9.5 -21.5q-2 -5 -5 -11.5t0 -11.5q4 -6 10 1t11 15q4 11 9.5 22l10.5 22q4 11 8.5 21l9.5 21q6 -3 14 3l-28 -64l-10 -23q-1 -3 -2 -7
t-1.5 -7t1 -4.5t5.5 0.5q9 3 16 15q4 11 9.5 22.5l10.5 22.5l8 21t9 21q7 -3 15 3l-28 -64l-10 -23q-1 -3 -2 -7t-1.5 -7t0.5 -4.5t6 0.5q7 2 12 10t8 15l4 -2q-5 -9 -10 -17t-13 -13q-7 -5 -14 -2t-6 12q-7 -7 -13 -10q-7 -5 -14 -2t-6 13q-5 -6 -9.5 -10.5t-10.5 -4.5
q-10 0 -11 7t2 14q-6 -8 -16.5 -16t-18.5 -2zM1135 548h-55v176h22v-154h33v-22zM645 548h-55v176h23v-154h32v-22zM754 125q6 0 12.5 -1t11.5 4q9 9 11 23.5t2 25.5q0 13 -2 28t-10 24q-5 5 -12 4.5t-13 -0.5v-108zM687 433q6 -1 15 4q-4 -7 -6.5 -12.5t-6.5 -10.5v-2
q6 8 15 16t18 9q12 0 11.5 -11t-4.5 -19q-1 -2 -4 -7t-5.5 -10t-4.5 -10t0 -8q2 -5 6.5 -2t8.5 8t7.5 10.5t4.5 7.5l4 -2l-10 -16.5t-13 -13.5q-7 -5 -14 -2.5t-6 13.5q1 10 6.5 18.5t8.5 16.5l3 11.5t-5 6.5q-11 -2 -20 -16t-14 -24l-12 -28h-12l4 11l-4 -4t-4 -3
q-8 -5 -15.5 -1.5t-5.5 14.5q0 9 4.5 17.5t7.5 16.5q7 9 10 21q10 0 15 5l-19 -44l-5.5 -11.5t-0.5 -10.5t7.5 0t8.5 8t7 10t4 7zM961 704q-7 0 -10 -9t-4 -20.5t-0.5 -23t0.5 -15.5q0 -5 -0.5 -16t0.5 -22t4 -20t10 -9q6 0 9 9t4 20t0.5 22t-0.5 16q0 4 0.5 15.5t-0.5 23
t-4 20.5t-9 9zM396 704q-7 0 -10 -9t-4 -20.5t-0.5 -23t0.5 -15.5q0 -5 -0.5 -16t0.5 -22t4 -20t10 -9q6 0 8.5 9t3.5 20t0.5 22t-0.5 16q0 4 0.5 15.5t-0.5 23t-3.5 20.5t-8.5 9zM1212 724h23q0 -32 -1 -65t-3 -66h-15q-2 33 -3 65.5t-1 65.5zM154 475q-8 2 -19 -8t-16 -16
q-16 -20 -29 -45h43l13 31q1 3 4 9t5 12t2.5 11t-3.5 6zM1058 460q-5 -4 -6.5 0t-0.5 9q-5 2 -9 0t-7 -6.5t-5 -9.5t-3 -9h14l-3 -7h-14l-45 -104q-7 0 -14 -3l47 107h-16l3 7h16q3 9 8 18.5t15 11.5q6 2 15 -1q2 -2 6 -5.5t-1 -7.5zM850 460q-5 -4 -7 0t-1 9q-5 2 -9 0
t-7 -6.5t-5 -9.5t-3 -9h14l-3 -7h-14l-45 -104q-7 0 -13 -3l45 107h-15l4 7h15q3 9 8 18.5t15 11.5q6 2 15 -1l5.5 -5.5t0.5 -7.5zM633 136q-2 -11 -3 -23t-3 -23h30q-3 34 -8.5 67.5t-7.5 68.5q-1 -23 -3.5 -45t-4.5 -45zM89 626q5 0 9.5 -0.5t7.5 4.5q5 6 5.5 16.5
t0.5 18.5t-0.5 18t-5.5 16q-3 5 -7.5 5h-9.5v-78zM1065 431q-8 0 -15.5 -10t-11.5 -22.5t-4 -22.5t8 -10q6 0 13 10.5t11.5 22.5t5 22t-6.5 10zM945 7q0 -12 -6.5 -17.5t-14 -5.5t-13.5 5.5t-6 17.5t6 17.5t13.5 5.5t14 -5.5t6.5 -17.5zM572 7q0 -12 -6.5 -17.5t-14 -5.5
t-13.5 5.5t-6 17.5t6 17.5t13.5 5.5t14 -5.5t6.5 -17.5zM470 428q-7 0 -12.5 -6t-10 -15t-8.5 -18.5t-7 -15.5q6 -5 11.5 -4.5t10.5 4.5t9 9t6 10q1 3 4 9t4 12t0 10.5t-7 4.5zM235 369q7 0 13 6.5t10.5 16t8 19.5t6.5 17q-10 6 -20 -3.5t-15 -18.5l-4 -8t-4.5 -12.5
t-1 -11.5t6.5 -5zM228 637q5 0 9 -0.5t7 1.5q6 5 7 14.5t1 17.5t-1 17.5t-7 14.5q-3 2 -7 2h-9v-67zM372 369q7 0 13.5 6.5t11 16t8 19.5t6.5 17q-11 6 -21 -3.5t-15 -18.5l-4 -8t-4.5 -12.5t-1 -11.5t6.5 -5zM549 403q-6 -10 -7 -16q11 0 25 11t14 25q0 8 -5.5 7.5
t-10.5 -4.5t-9 -10.5t-7 -12.5zM542 643l-3 -28h18q-2 21 -4.5 41.5t-3.5 41.5q-1 -13 -3 -27zM1236 563q0 -8 -4 -11.5t-8.5 -3.5t-8.5 3.5t-4 11.5q0 7 4 10.5t8.5 3.5t8.5 -3.5t4 -10.5zM679 456q-4 -8 -11.5 -5t-5.5 11q3 10 12 7t5 -13zM332 456q-3 -8 -10.5 -5
t-5.5 11q1 5 5 6.5t7.5 0.5t5 -4.5t-1.5 -8.5zM1216 367q-4 -8 -11.5 -4.5t-3.5 11.5q4 9 11.5 5t3.5 -12zM1237 421q-3 -9 -11 -5.5t-3 12.5q4 7 11 4t3 -11z" />
    <glyph glyph-name="three" unicode="3" horiz-adv-x="1272" 
d="M364 266h43q5 -60 8.5 -118t5.5 -117q3 45 5.5 89t7.5 89l6 57h40q5 -48 9 -96l8 -96l3 -43q3 47 4.5 93t5.5 91q2 13 2.5 25.5t1.5 25.5h31l-21 -283h-47q-5 56 -9.5 112t-6.5 113q-2 -42 -5 -84t-7 -84l-4 -57h-48l-12 159l-12 -159h-46l-10 112t-7 113
q-2 -42 -4.5 -84t-6.5 -84l-5 -57h-47l-12 162l-12 -162h-47q-5 56 -9.5 111.5t-6.5 112.5q-1 -43 -4 -84t-7 -83l-6 -57h-46l-22 283h31q5 -60 8.5 -118t5.5 -117l6 89t8 89l6 57h39q6 -48 10 -96t7 -96l3 -43q3 47 4.5 93t5.5 91l5 51h42q5 -60 8.5 -118t6.5 -117
q3 45 5.5 89t6.5 89q3 14 4 28t3 29h40q5 -48 9 -96l8 -96l2 -43q3 47 5 93t6 91zM1227 876h-1153v26h1153v-26zM1227 -197h-1153v25h1153v-25zM754 -17h-36v283h37h22t21 -5q18 -9 23 -31.5t5 -42.5v-22t-2.5 -25.5t-8 -22.5t-14.5 -14l31 -120h-40l-21 113h-17v-113z
M1001 46v-63h-33v283h32l25.5 -98.5t22.5 -99.5q-4 50 -4.5 99t-0.5 99h33v-283h-34l-25 96.5t-22 97.5q2 -33 3 -65.5t3 -65.5zM617 -17h-34l30 283h58l31 -283h-36l-7 67h-34zM1175 160q1 14 0 28.5t-5 26.5q-4 9 -11.5 14.5t-14.5 -5.5q-6 -10 -7 -24.5t-2 -26.5
q-1 -14 -1 -27v-26v-26.5t2 -26.5q0 -11 2 -25.5t11 -21.5q11 -7 16.5 2t8 23.5t3 29t0.5 19.5h-26v33h59v-142h-26l-1 38q-2 -12 -7.5 -25t-17.5 -17q-11 -4 -22 2t-18 15q-14 20 -16.5 49t-2.5 52q-2 29 -1 60t8 59q2 12 7.5 24t15.5 18q21 14 46 4q12 -6 19 -17.5t10 -26
t4 -29.5t1 -27zM227 409q5 9 12.5 16t16.5 9q8 3 16 -1t18 -1l-19 -39q-2 -4 -5.5 -12t0.5 -10q5 -5 11.5 2t11.5 15q2 6 5 11.5l6 11.5l8 21q9 0 15 5l-19 -44q-2 -4 -5 -11.5t1 -10.5q4 -5 10 1.5t10 14.5q4 11 9.5 22l10.5 22t9 21t9 21q7 -3 14 3l-27 -64q-2 -6 -5 -12
t-5 -11q-1 -3 -2.5 -7t-1.5 -7t1 -4.5t6 0.5t9.5 7.5t8.5 13.5q2 5 4 9l4 8q5 9 12 16t17 9q9 3 17 -1t17 -1q-5 -10 -9 -19l-9 -20q-2 -4 -5 -12t0 -10q3 -3 6.5 -1t7 6.5t6.5 9.5t5 8l1 2l33 77q8 0 13 3l-10 -27.5t-13 -25.5q7 8 16.5 13t16.5 -7q7 -11 1 -27t-13 -24
q6 -1 11.5 2t10.5 8q4 11 9 21.5l10 21.5l18 42q5 -2 14 3q-8 -16 -14 -32t-14 -32q-2 -6 -4.5 -12t-5.5 -11q-1 -3 -2 -7t-1 -7t1 -4.5t6 0.5t10.5 9t8.5 14q3 17 13 25q3 4 9.5 9t14 7.5t13.5 0.5t8 -12q1 -9 -3.5 -17t-12 -13.5t-16.5 -8.5t-16 -3q-1 -7 3.5 -11t10.5 -4
q13 0 24 8.5t18 20.5l4 -2q-8 -16 -23.5 -26t-31.5 -6q-17 3 -17 20q-4 -6 -8 -11t-9 -7q-7 -5 -15 -1.5t-6 14.5v2q-2 -2 -4 -2q-4 -4 -12 -4h-7q-2 0 -3 -2t-3 -2q-10 -8 -22 -6.5t-18 12.5q-8 -10 -17 -13t-13 3.5t0 14.5q-5 -8 -14 -15.5t-18 -0.5q-7 4 -7 16
q-7 -12 -14 -16q-8 -5 -15.5 -2t-6.5 12l-5.5 -5.5t-5.5 -4.5q-8 -5 -15.5 -2t-5.5 13l-9 -7.5t-9 -5.5q-9 -3 -12.5 3.5t0.5 14.5h-1q-5 -8 -13.5 -15.5t-18.5 -0.5q-5 2 -6 7.5t0 10.5q-4 -4 -10 -7q-4 -2 -13 -2q-5 0 -6 -1t-4 -3q-11 -8 -24 -7t-9 20q2 14 8 26.5
l11 23.5q6 0 14 5q-4 -9 -7 -17.5t-7 -16.5q-1 -3 -4 -8.5t-5 -11.5t-2 -10.5t4 -5.5q9 -2 17.5 9.5t11.5 17.5q5 9 8 20t3 22q9 2 10 -6t-1 -15q-4 -19 -18 -36q8 -3 15 3t11 14zM961 547q-11 0 -17.5 6t-10 15t-5 19.5t-1.5 20.5q-2 22 -2 45.5t6 45.5q3 10 8.5 17.5
t14.5 8.5q20 5 32 -15q9 -20 9 -43.5v-44.5q0 -11 -0.5 -24t-4 -24t-10.5 -19t-19 -8zM396 547q-11 0 -17.5 6t-10.5 15t-5 19.5l-2 20.5q-1 22 -1 45.5t6 45.5q3 10 8 17.5t16 8.5q21 5 31 -15q8 -20 8.5 -43.5t0.5 -44.5q0 -11 -1 -24t-4.5 -24t-10 -19t-18.5 -8zM883 -17
h-36v283h36v-283zM228 548h-21v176h23h15t13 -3q10 -6 13 -19t3 -24v-14.5t-1.5 -17t-4.5 -15t-9 -9.5l18 -74h-24l-13 70q-3 0 -6 0.5t-6 0.5v-71zM1025 587v-39h-21v176h20l16 -61t14 -62q-2 30 -2.5 61t-0.5 62h21v-176h-22q-8 29 -15.5 59.5t-13.5 61.5q2 -21 2.5 -41
t1.5 -41zM89 548h-23v176h35q25 0 33 -30q4 -16 3 -37.5t-9 -37.5q-7 -11 -17.5 -12t-21.5 -1v-58zM460 587v-39h-21v176h20l15.5 -61t13.5 -62q-2 30 -2.5 61t-0.5 62h21v-176h-22l-14.5 59.5t-13.5 61.5q2 -21 2 -41t2 -41zM533 548h-21l18 176h36l19 -176h-21l-5 43h-22z
M714 547q-16 0 -23.5 10t-10 24t-2 30.5t0.5 29.5v83h23v-123q0 -5 -0.5 -11.5t1.5 -11.5q2 -6 7 -8.5t10 2.5t5.5 15t0.5 17q1 14 0.5 28t-0.5 28v64h22v-83q0 -13 0.5 -29.5t-1.5 -30.5t-9.5 -24t-23.5 -10zM1110 433q7 -1 14 4l-5.5 -12.5t-7.5 -10.5v-2q7 8 15.5 16
t17.5 9q12 0 11.5 -11t-3.5 -19q-2 -2 -4.5 -7t-5.5 -10t-4.5 -10t0.5 -8q2 -4 5.5 -2t7 6t7 9l5.5 8l20 44h-8l3 7h8l8 19q6 0 14 4l-10 -23h15l-4 -7h-14l-18 -43q-2 -5 -5 -11.5t-1 -11.5q3 -3 7 -0.5t8.5 8t7.5 10.5t4 7l4 -2q-5 -9 -12 -19.5t-18 -12.5q-10 -3 -13 1.5
t-1 11.5l-6 -6t-6 -5q-7 -5 -14.5 -2.5t-6.5 13.5q1 10 6.5 18.5t8.5 16.5q1 4 3.5 11.5t-4.5 6.5q-11 -2 -20.5 -16t-14.5 -24q-4 -6 -6.5 -13l-5.5 -15h-12l7 19l-1 -1q-3 -3 -10 -5h-9q-5 -7 -11 -9t-9 -2q-9 -6 -18 3q-8 8 -6.5 20.5t5.5 23.5q5 11 14 19.5t22 8.5
q10 0 14.5 -7t4.5 -16.5t-3.5 -19.5t-7.5 -16q13 0 20 13zM309 630q-11 8 -18 19t-9 26q-2 13 2 26t16 20q9 5 22 4.5t21 -10.5q9 -10 9 -22.5v-24.5q-6 0 -12 0.5t-11 0.5q0 7 0.5 15t-4.5 13q-9 10 -14.5 2t-6.5 -18q0 -14 7.5 -21.5t15.5 -14.5t14.5 -15.5t8.5 -19.5
q2 -12 0.5 -24t-7 -21.5t-14.5 -14.5t-21 -3q-21 4 -23.5 22t-1.5 37h21q0 -5 -0.5 -11t0.5 -13q2 -7 7.5 -11t11.5 1q5 5 6 14.5t-1 16.5q-2 9 -7 15.5t-12 11.5zM785 630q-23 15 -27 45q-1 13 2.5 26t14.5 20q10 5 22.5 4.5t20.5 -10.5q9 -10 8.5 -22.5t-0.5 -24.5
q-5 0 -10 0.5t-10 0.5q0 7 0.5 15t-5.5 13q-9 10 -14.5 2t-6.5 -18q0 -14 7 -21.5t15 -14.5q18 -13 24 -35q2 -12 0.5 -24t-7 -21.5t-14.5 -14.5t-22 -3q-10 2 -15 8t-7.5 14t-2.5 18v19h22q0 -5 -1 -11t1 -13t7 -11t11 1q7 5 8 14.5t-1 16.5q-2 9 -7.5 15.5t-12.5 11.5z
M201 548h-56v176h56v-24h-34v-49h28v-26h-28v-53h34v-24zM891 548h-55v176h55v-24h-32v-49h27v-26h-27v-53h32v-24zM129 400l-42 -3q-5 -8 -9.5 -19t-5.5 -22q-8 -2 -9.5 3t0 13t4.5 15.5t5 9.5l-14 -1l-5 10h23q11 20 27 39.5t36 30.5q6 5 16 5.5t12 -11.5q2 -6 -0.5 -12.5
l-4.5 -11.5q-5 -11 -9.5 -22t-9.5 -22q-3 -8 -9.5 -20.5t-2.5 -21.5q-9 -2 -11 3t-0.5 12t4.5 14.5t5 10.5zM1185 724h21l-10 -49.5l-10 -49.5q-5 -18 -3.5 -38t1.5 -39h-24q0 19 0.5 39t-3.5 38l-10 49.5l-10 49.5h21l8 -44.5t6 -46.5q1 24 5 46zM815 363q-7 5 -5.5 13
t4.5 16l17 40q7 0 14 5l-13 -31q-2 -5 -8 -17t-2 -17q6 -6 14.5 2.5t11.5 13.5t5 9.5t6 9.5l12 27q3 0 6 1l6 2q-4 -11 -8.5 -21.5l-9.5 -21.5q-2 -5 -5 -11.5t0 -11.5q4 -6 10 1t11 15q4 11 9.5 22l10.5 22q4 11 8.5 21l9.5 21q6 -3 14 3l-28 -64l-10 -23q-1 -3 -2 -7
t-1.5 -7t1 -4.5t5.5 0.5q9 3 16 15q4 11 9.5 22.5l10.5 22.5l8 21t9 21q7 -3 15 3l-28 -64l-10 -23q-1 -3 -2 -7t-1.5 -7t0.5 -4.5t6 0.5q7 2 12 10t8 15l4 -2q-5 -9 -10 -17t-13 -13q-7 -5 -14 -2t-6 12q-7 -7 -13 -10q-7 -5 -14 -2t-6 13q-5 -6 -9.5 -10.5t-10.5 -4.5
q-10 0 -11 7t2 14q-6 -8 -16.5 -16t-18.5 -2zM1135 548h-55v176h22v-154h33v-22zM645 548h-55v176h23v-154h32v-22zM754 125q6 0 12.5 -1t11.5 4q9 9 11 23.5t2 25.5q0 13 -2 28t-10 24q-5 5 -12 4.5t-13 -0.5v-108zM687 433q6 -1 15 4q-4 -7 -6.5 -12.5t-6.5 -10.5v-2
q6 8 15 16t18 9q12 0 11.5 -11t-4.5 -19q-1 -2 -4 -7t-5.5 -10t-4.5 -10t0 -8q2 -5 6.5 -2t8.5 8t7.5 10.5t4.5 7.5l4 -2l-10 -16.5t-13 -13.5q-7 -5 -14 -2.5t-6 13.5q1 10 6.5 18.5t8.5 16.5l3 11.5t-5 6.5q-11 -2 -20 -16t-14 -24l-12 -28h-12l4 11l-4 -4t-4 -3
q-8 -5 -15.5 -1.5t-5.5 14.5q0 9 4.5 17.5t7.5 16.5q7 9 10 21q10 0 15 5l-19 -44l-5.5 -11.5t-0.5 -10.5t7.5 0t8.5 8t7 10t4 7zM961 704q-7 0 -10 -9t-4 -20.5t-0.5 -23t0.5 -15.5q0 -5 -0.5 -16t0.5 -22t4 -20t10 -9q6 0 9 9t4 20t0.5 22t-0.5 16q0 4 0.5 15.5t-0.5 23
t-4 20.5t-9 9zM396 704q-7 0 -10 -9t-4 -20.5t-0.5 -23t0.5 -15.5q0 -5 -0.5 -16t0.5 -22t4 -20t10 -9q6 0 8.5 9t3.5 20t0.5 22t-0.5 16q0 4 0.5 15.5t-0.5 23t-3.5 20.5t-8.5 9zM1212 724h23q0 -32 -1 -65t-3 -66h-15q-2 33 -3 65.5t-1 65.5zM154 475q-8 2 -19 -8t-16 -16
q-16 -20 -29 -45h43l13 31q1 3 4 9t5 12t2.5 11t-3.5 6zM1058 460q-5 -4 -6.5 0t-0.5 9q-5 2 -9 0t-7 -6.5t-5 -9.5t-3 -9h14l-3 -7h-14l-45 -104q-7 0 -14 -3l47 107h-16l3 7h16q3 9 8 18.5t15 11.5q6 2 15 -1q2 -2 6 -5.5t-1 -7.5zM850 460q-5 -4 -7 0t-1 9q-5 2 -9 0
t-7 -6.5t-5 -9.5t-3 -9h14l-3 -7h-14l-45 -104q-7 0 -13 -3l45 107h-15l4 7h15q3 9 8 18.5t15 11.5q6 2 15 -1l5.5 -5.5t0.5 -7.5zM633 136q-2 -11 -3 -23t-3 -23h30q-3 34 -8.5 67.5t-7.5 68.5q-1 -23 -3.5 -45t-4.5 -45zM89 626q5 0 9.5 -0.5t7.5 4.5q5 6 5.5 16.5
t0.5 18.5t-0.5 18t-5.5 16q-3 5 -7.5 5h-9.5v-78zM1065 431q-8 0 -15.5 -10t-11.5 -22.5t-4 -22.5t8 -10q6 0 13 10.5t11.5 22.5t5 22t-6.5 10zM945 7q0 -12 -6.5 -17.5t-14 -5.5t-13.5 5.5t-6 17.5t6 17.5t13.5 5.5t14 -5.5t6.5 -17.5zM572 7q0 -12 -6.5 -17.5t-14 -5.5
t-13.5 5.5t-6 17.5t6 17.5t13.5 5.5t14 -5.5t6.5 -17.5zM470 428q-7 0 -12.5 -6t-10 -15t-8.5 -18.5t-7 -15.5q6 -5 11.5 -4.5t10.5 4.5t9 9t6 10q1 3 4 9t4 12t0 10.5t-7 4.5zM235 369q7 0 13 6.5t10.5 16t8 19.5t6.5 17q-10 6 -20 -3.5t-15 -18.5l-4 -8t-4.5 -12.5
t-1 -11.5t6.5 -5zM228 637q5 0 9 -0.5t7 1.5q6 5 7 14.5t1 17.5t-1 17.5t-7 14.5q-3 2 -7 2h-9v-67zM372 369q7 0 13.5 6.5t11 16t8 19.5t6.5 17q-11 6 -21 -3.5t-15 -18.5l-4 -8t-4.5 -12.5t-1 -11.5t6.5 -5zM549 403q-6 -10 -7 -16q11 0 25 11t14 25q0 8 -5.5 7.5
t-10.5 -4.5t-9 -10.5t-7 -12.5zM542 643l-3 -28h18q-2 21 -4.5 41.5t-3.5 41.5q-1 -13 -3 -27zM1236 563q0 -8 -4 -11.5t-8.5 -3.5t-8.5 3.5t-4 11.5q0 7 4 10.5t8.5 3.5t8.5 -3.5t4 -10.5zM679 456q-4 -8 -11.5 -5t-5.5 11q3 10 12 7t5 -13zM332 456q-3 -8 -10.5 -5
t-5.5 11q1 5 5 6.5t7.5 0.5t5 -4.5t-1.5 -8.5zM1216 367q-4 -8 -11.5 -4.5t-3.5 11.5q4 9 11.5 5t3.5 -12zM1237 421q-3 -9 -11 -5.5t-3 12.5q4 7 11 4t3 -11z" />
    <glyph glyph-name="four" unicode="4" horiz-adv-x="1272" 
d="M364 266h43q5 -60 8.5 -118t5.5 -117q3 45 5.5 89t7.5 89l6 57h40q5 -48 9 -96l8 -96l3 -43q3 47 4.5 93t5.5 91q2 13 2.5 25.5t1.5 25.5h31l-21 -283h-47q-5 56 -9.5 112t-6.5 113q-2 -42 -5 -84t-7 -84l-4 -57h-48l-12 159l-12 -159h-46l-10 112t-7 113
q-2 -42 -4.5 -84t-6.5 -84l-5 -57h-47l-12 162l-12 -162h-47q-5 56 -9.5 111.5t-6.5 112.5q-1 -43 -4 -84t-7 -83l-6 -57h-46l-22 283h31q5 -60 8.5 -118t5.5 -117l6 89t8 89l6 57h39q6 -48 10 -96t7 -96l3 -43q3 47 4.5 93t5.5 91l5 51h42q5 -60 8.5 -118t6.5 -117
q3 45 5.5 89t6.5 89q3 14 4 28t3 29h40q5 -48 9 -96l8 -96l2 -43q3 47 5 93t6 91zM1227 876h-1153v26h1153v-26zM1227 -197h-1153v25h1153v-25zM754 -17h-36v283h37h22t21 -5q18 -9 23 -31.5t5 -42.5v-22t-2.5 -25.5t-8 -22.5t-14.5 -14l31 -120h-40l-21 113h-17v-113z
M1001 46v-63h-33v283h32l25.5 -98.5t22.5 -99.5q-4 50 -4.5 99t-0.5 99h33v-283h-34l-25 96.5t-22 97.5q2 -33 3 -65.5t3 -65.5zM617 -17h-34l30 283h58l31 -283h-36l-7 67h-34zM1175 160q1 14 0 28.5t-5 26.5q-4 9 -11.5 14.5t-14.5 -5.5q-6 -10 -7 -24.5t-2 -26.5
q-1 -14 -1 -27v-26v-26.5t2 -26.5q0 -11 2 -25.5t11 -21.5q11 -7 16.5 2t8 23.5t3 29t0.5 19.5h-26v33h59v-142h-26l-1 38q-2 -12 -7.5 -25t-17.5 -17q-11 -4 -22 2t-18 15q-14 20 -16.5 49t-2.5 52q-2 29 -1 60t8 59q2 12 7.5 24t15.5 18q21 14 46 4q12 -6 19 -17.5t10 -26
t4 -29.5t1 -27zM227 409q5 9 12.5 16t16.5 9q8 3 16 -1t18 -1l-19 -39q-2 -4 -5.5 -12t0.5 -10q5 -5 11.5 2t11.5 15q2 6 5 11.5l6 11.5l8 21q9 0 15 5l-19 -44q-2 -4 -5 -11.5t1 -10.5q4 -5 10 1.5t10 14.5q4 11 9.5 22l10.5 22t9 21t9 21q7 -3 14 3l-27 -64q-2 -6 -5 -12
t-5 -11q-1 -3 -2.5 -7t-1.5 -7t1 -4.5t6 0.5t9.5 7.5t8.5 13.5q2 5 4 9l4 8q5 9 12 16t17 9q9 3 17 -1t17 -1q-5 -10 -9 -19l-9 -20q-2 -4 -5 -12t0 -10q3 -3 6.5 -1t7 6.5t6.5 9.5t5 8l1 2l33 77q8 0 13 3l-10 -27.5t-13 -25.5q7 8 16.5 13t16.5 -7q7 -11 1 -27t-13 -24
q6 -1 11.5 2t10.5 8q4 11 9 21.5l10 21.5l18 42q5 -2 14 3q-8 -16 -14 -32t-14 -32q-2 -6 -4.5 -12t-5.5 -11q-1 -3 -2 -7t-1 -7t1 -4.5t6 0.5t10.5 9t8.5 14q3 17 13 25q3 4 9.5 9t14 7.5t13.5 0.5t8 -12q1 -9 -3.5 -17t-12 -13.5t-16.5 -8.5t-16 -3q-1 -7 3.5 -11t10.5 -4
q13 0 24 8.5t18 20.5l4 -2q-8 -16 -23.5 -26t-31.5 -6q-17 3 -17 20q-4 -6 -8 -11t-9 -7q-7 -5 -15 -1.5t-6 14.5v2q-2 -2 -4 -2q-4 -4 -12 -4h-7q-2 0 -3 -2t-3 -2q-10 -8 -22 -6.5t-18 12.5q-8 -10 -17 -13t-13 3.5t0 14.5q-5 -8 -14 -15.5t-18 -0.5q-7 4 -7 16
q-7 -12 -14 -16q-8 -5 -15.5 -2t-6.5 12l-5.5 -5.5t-5.5 -4.5q-8 -5 -15.5 -2t-5.5 13l-9 -7.5t-9 -5.5q-9 -3 -12.5 3.5t0.5 14.5h-1q-5 -8 -13.5 -15.5t-18.5 -0.5q-5 2 -6 7.5t0 10.5q-4 -4 -10 -7q-4 -2 -13 -2q-5 0 -6 -1t-4 -3q-11 -8 -24 -7t-9 20q2 14 8 26.5
l11 23.5q6 0 14 5q-4 -9 -7 -17.5t-7 -16.5q-1 -3 -4 -8.5t-5 -11.5t-2 -10.5t4 -5.5q9 -2 17.5 9.5t11.5 17.5q5 9 8 20t3 22q9 2 10 -6t-1 -15q-4 -19 -18 -36q8 -3 15 3t11 14zM961 547q-11 0 -17.5 6t-10 15t-5 19.5t-1.5 20.5q-2 22 -2 45.5t6 45.5q3 10 8.5 17.5
t14.5 8.5q20 5 32 -15q9 -20 9 -43.5v-44.5q0 -11 -0.5 -24t-4 -24t-10.5 -19t-19 -8zM396 547q-11 0 -17.5 6t-10.5 15t-5 19.5l-2 20.5q-1 22 -1 45.5t6 45.5q3 10 8 17.5t16 8.5q21 5 31 -15q8 -20 8.5 -43.5t0.5 -44.5q0 -11 -1 -24t-4.5 -24t-10 -19t-18.5 -8zM883 -17
h-36v283h36v-283zM228 548h-21v176h23h15t13 -3q10 -6 13 -19t3 -24v-14.5t-1.5 -17t-4.5 -15t-9 -9.5l18 -74h-24l-13 70q-3 0 -6 0.5t-6 0.5v-71zM1025 587v-39h-21v176h20l16 -61t14 -62q-2 30 -2.5 61t-0.5 62h21v-176h-22q-8 29 -15.5 59.5t-13.5 61.5q2 -21 2.5 -41
t1.5 -41zM89 548h-23v176h35q25 0 33 -30q4 -16 3 -37.5t-9 -37.5q-7 -11 -17.5 -12t-21.5 -1v-58zM460 587v-39h-21v176h20l15.5 -61t13.5 -62q-2 30 -2.5 61t-0.5 62h21v-176h-22l-14.5 59.5t-13.5 61.5q2 -21 2 -41t2 -41zM533 548h-21l18 176h36l19 -176h-21l-5 43h-22z
M714 547q-16 0 -23.5 10t-10 24t-2 30.5t0.5 29.5v83h23v-123q0 -5 -0.5 -11.5t1.5 -11.5q2 -6 7 -8.5t10 2.5t5.5 15t0.5 17q1 14 0.5 28t-0.5 28v64h22v-83q0 -13 0.5 -29.5t-1.5 -30.5t-9.5 -24t-23.5 -10zM1110 433q7 -1 14 4l-5.5 -12.5t-7.5 -10.5v-2q7 8 15.5 16
t17.5 9q12 0 11.5 -11t-3.5 -19q-2 -2 -4.5 -7t-5.5 -10t-4.5 -10t0.5 -8q2 -4 5.5 -2t7 6t7 9l5.5 8l20 44h-8l3 7h8l8 19q6 0 14 4l-10 -23h15l-4 -7h-14l-18 -43q-2 -5 -5 -11.5t-1 -11.5q3 -3 7 -0.5t8.5 8t7.5 10.5t4 7l4 -2q-5 -9 -12 -19.5t-18 -12.5q-10 -3 -13 1.5
t-1 11.5l-6 -6t-6 -5q-7 -5 -14.5 -2.5t-6.5 13.5q1 10 6.5 18.5t8.5 16.5q1 4 3.5 11.5t-4.5 6.5q-11 -2 -20.5 -16t-14.5 -24q-4 -6 -6.5 -13l-5.5 -15h-12l7 19l-1 -1q-3 -3 -10 -5h-9q-5 -7 -11 -9t-9 -2q-9 -6 -18 3q-8 8 -6.5 20.5t5.5 23.5q5 11 14 19.5t22 8.5
q10 0 14.5 -7t4.5 -16.5t-3.5 -19.5t-7.5 -16q13 0 20 13zM309 630q-11 8 -18 19t-9 26q-2 13 2 26t16 20q9 5 22 4.5t21 -10.5q9 -10 9 -22.5v-24.5q-6 0 -12 0.5t-11 0.5q0 7 0.5 15t-4.5 13q-9 10 -14.5 2t-6.5 -18q0 -14 7.5 -21.5t15.5 -14.5t14.5 -15.5t8.5 -19.5
q2 -12 0.5 -24t-7 -21.5t-14.5 -14.5t-21 -3q-21 4 -23.5 22t-1.5 37h21q0 -5 -0.5 -11t0.5 -13q2 -7 7.5 -11t11.5 1q5 5 6 14.5t-1 16.5q-2 9 -7 15.5t-12 11.5zM785 630q-23 15 -27 45q-1 13 2.5 26t14.5 20q10 5 22.5 4.5t20.5 -10.5q9 -10 8.5 -22.5t-0.5 -24.5
q-5 0 -10 0.5t-10 0.5q0 7 0.5 15t-5.5 13q-9 10 -14.5 2t-6.5 -18q0 -14 7 -21.5t15 -14.5q18 -13 24 -35q2 -12 0.5 -24t-7 -21.5t-14.5 -14.5t-22 -3q-10 2 -15 8t-7.5 14t-2.5 18v19h22q0 -5 -1 -11t1 -13t7 -11t11 1q7 5 8 14.5t-1 16.5q-2 9 -7.5 15.5t-12.5 11.5z
M201 548h-56v176h56v-24h-34v-49h28v-26h-28v-53h34v-24zM891 548h-55v176h55v-24h-32v-49h27v-26h-27v-53h32v-24zM129 400l-42 -3q-5 -8 -9.5 -19t-5.5 -22q-8 -2 -9.5 3t0 13t4.5 15.5t5 9.5l-14 -1l-5 10h23q11 20 27 39.5t36 30.5q6 5 16 5.5t12 -11.5q2 -6 -0.5 -12.5
l-4.5 -11.5q-5 -11 -9.5 -22t-9.5 -22q-3 -8 -9.5 -20.5t-2.5 -21.5q-9 -2 -11 3t-0.5 12t4.5 14.5t5 10.5zM1185 724h21l-10 -49.5l-10 -49.5q-5 -18 -3.5 -38t1.5 -39h-24q0 19 0.5 39t-3.5 38l-10 49.5l-10 49.5h21l8 -44.5t6 -46.5q1 24 5 46zM815 363q-7 5 -5.5 13
t4.5 16l17 40q7 0 14 5l-13 -31q-2 -5 -8 -17t-2 -17q6 -6 14.5 2.5t11.5 13.5t5 9.5t6 9.5l12 27q3 0 6 1l6 2q-4 -11 -8.5 -21.5l-9.5 -21.5q-2 -5 -5 -11.5t0 -11.5q4 -6 10 1t11 15q4 11 9.5 22l10.5 22q4 11 8.5 21l9.5 21q6 -3 14 3l-28 -64l-10 -23q-1 -3 -2 -7
t-1.5 -7t1 -4.5t5.5 0.5q9 3 16 15q4 11 9.5 22.5l10.5 22.5l8 21t9 21q7 -3 15 3l-28 -64l-10 -23q-1 -3 -2 -7t-1.5 -7t0.5 -4.5t6 0.5q7 2 12 10t8 15l4 -2q-5 -9 -10 -17t-13 -13q-7 -5 -14 -2t-6 12q-7 -7 -13 -10q-7 -5 -14 -2t-6 13q-5 -6 -9.5 -10.5t-10.5 -4.5
q-10 0 -11 7t2 14q-6 -8 -16.5 -16t-18.5 -2zM1135 548h-55v176h22v-154h33v-22zM645 548h-55v176h23v-154h32v-22zM754 125q6 0 12.5 -1t11.5 4q9 9 11 23.5t2 25.5q0 13 -2 28t-10 24q-5 5 -12 4.5t-13 -0.5v-108zM687 433q6 -1 15 4q-4 -7 -6.5 -12.5t-6.5 -10.5v-2
q6 8 15 16t18 9q12 0 11.5 -11t-4.5 -19q-1 -2 -4 -7t-5.5 -10t-4.5 -10t0 -8q2 -5 6.5 -2t8.5 8t7.5 10.5t4.5 7.5l4 -2l-10 -16.5t-13 -13.5q-7 -5 -14 -2.5t-6 13.5q1 10 6.5 18.5t8.5 16.5l3 11.5t-5 6.5q-11 -2 -20 -16t-14 -24l-12 -28h-12l4 11l-4 -4t-4 -3
q-8 -5 -15.5 -1.5t-5.5 14.5q0 9 4.5 17.5t7.5 16.5q7 9 10 21q10 0 15 5l-19 -44l-5.5 -11.5t-0.5 -10.5t7.5 0t8.5 8t7 10t4 7zM961 704q-7 0 -10 -9t-4 -20.5t-0.5 -23t0.5 -15.5q0 -5 -0.5 -16t0.5 -22t4 -20t10 -9q6 0 9 9t4 20t0.5 22t-0.5 16q0 4 0.5 15.5t-0.5 23
t-4 20.5t-9 9zM396 704q-7 0 -10 -9t-4 -20.5t-0.5 -23t0.5 -15.5q0 -5 -0.5 -16t0.5 -22t4 -20t10 -9q6 0 8.5 9t3.5 20t0.5 22t-0.5 16q0 4 0.5 15.5t-0.5 23t-3.5 20.5t-8.5 9zM1212 724h23q0 -32 -1 -65t-3 -66h-15q-2 33 -3 65.5t-1 65.5zM154 475q-8 2 -19 -8t-16 -16
q-16 -20 -29 -45h43l13 31q1 3 4 9t5 12t2.5 11t-3.5 6zM1058 460q-5 -4 -6.5 0t-0.5 9q-5 2 -9 0t-7 -6.5t-5 -9.5t-3 -9h14l-3 -7h-14l-45 -104q-7 0 -14 -3l47 107h-16l3 7h16q3 9 8 18.5t15 11.5q6 2 15 -1q2 -2 6 -5.5t-1 -7.5zM850 460q-5 -4 -7 0t-1 9q-5 2 -9 0
t-7 -6.5t-5 -9.5t-3 -9h14l-3 -7h-14l-45 -104q-7 0 -13 -3l45 107h-15l4 7h15q3 9 8 18.5t15 11.5q6 2 15 -1l5.5 -5.5t0.5 -7.5zM633 136q-2 -11 -3 -23t-3 -23h30q-3 34 -8.5 67.5t-7.5 68.5q-1 -23 -3.5 -45t-4.5 -45zM89 626q5 0 9.5 -0.5t7.5 4.5q5 6 5.5 16.5
t0.5 18.5t-0.5 18t-5.5 16q-3 5 -7.5 5h-9.5v-78zM1065 431q-8 0 -15.5 -10t-11.5 -22.5t-4 -22.5t8 -10q6 0 13 10.5t11.5 22.5t5 22t-6.5 10zM945 7q0 -12 -6.5 -17.5t-14 -5.5t-13.5 5.5t-6 17.5t6 17.5t13.5 5.5t14 -5.5t6.5 -17.5zM572 7q0 -12 -6.5 -17.5t-14 -5.5
t-13.5 5.5t-6 17.5t6 17.5t13.5 5.5t14 -5.5t6.5 -17.5zM470 428q-7 0 -12.5 -6t-10 -15t-8.5 -18.5t-7 -15.5q6 -5 11.5 -4.5t10.5 4.5t9 9t6 10q1 3 4 9t4 12t0 10.5t-7 4.5zM235 369q7 0 13 6.5t10.5 16t8 19.5t6.5 17q-10 6 -20 -3.5t-15 -18.5l-4 -8t-4.5 -12.5
t-1 -11.5t6.5 -5zM228 637q5 0 9 -0.5t7 1.5q6 5 7 14.5t1 17.5t-1 17.5t-7 14.5q-3 2 -7 2h-9v-67zM372 369q7 0 13.5 6.5t11 16t8 19.5t6.5 17q-11 6 -21 -3.5t-15 -18.5l-4 -8t-4.5 -12.5t-1 -11.5t6.5 -5zM549 403q-6 -10 -7 -16q11 0 25 11t14 25q0 8 -5.5 7.5
t-10.5 -4.5t-9 -10.5t-7 -12.5zM542 643l-3 -28h18q-2 21 -4.5 41.5t-3.5 41.5q-1 -13 -3 -27zM1236 563q0 -8 -4 -11.5t-8.5 -3.5t-8.5 3.5t-4 11.5q0 7 4 10.5t8.5 3.5t8.5 -3.5t4 -10.5zM679 456q-4 -8 -11.5 -5t-5.5 11q3 10 12 7t5 -13zM332 456q-3 -8 -10.5 -5
t-5.5 11q1 5 5 6.5t7.5 0.5t5 -4.5t-1.5 -8.5zM1216 367q-4 -8 -11.5 -4.5t-3.5 11.5q4 9 11.5 5t3.5 -12zM1237 421q-3 -9 -11 -5.5t-3 12.5q4 7 11 4t3 -11z" />
    <glyph glyph-name="five" unicode="5" horiz-adv-x="1272" 
d="M364 266h43q5 -60 8.5 -118t5.5 -117q3 45 5.5 89t7.5 89l6 57h40q5 -48 9 -96l8 -96l3 -43q3 47 4.5 93t5.5 91q2 13 2.5 25.5t1.5 25.5h31l-21 -283h-47q-5 56 -9.5 112t-6.5 113q-2 -42 -5 -84t-7 -84l-4 -57h-48l-12 159l-12 -159h-46l-10 112t-7 113
q-2 -42 -4.5 -84t-6.5 -84l-5 -57h-47l-12 162l-12 -162h-47q-5 56 -9.5 111.5t-6.5 112.5q-1 -43 -4 -84t-7 -83l-6 -57h-46l-22 283h31q5 -60 8.5 -118t5.5 -117l6 89t8 89l6 57h39q6 -48 10 -96t7 -96l3 -43q3 47 4.5 93t5.5 91l5 51h42q5 -60 8.5 -118t6.5 -117
q3 45 5.5 89t6.5 89q3 14 4 28t3 29h40q5 -48 9 -96l8 -96l2 -43q3 47 5 93t6 91zM1227 876h-1153v26h1153v-26zM1227 -197h-1153v25h1153v-25zM754 -17h-36v283h37h22t21 -5q18 -9 23 -31.5t5 -42.5v-22t-2.5 -25.5t-8 -22.5t-14.5 -14l31 -120h-40l-21 113h-17v-113z
M1001 46v-63h-33v283h32l25.5 -98.5t22.5 -99.5q-4 50 -4.5 99t-0.5 99h33v-283h-34l-25 96.5t-22 97.5q2 -33 3 -65.5t3 -65.5zM617 -17h-34l30 283h58l31 -283h-36l-7 67h-34zM1175 160q1 14 0 28.5t-5 26.5q-4 9 -11.5 14.5t-14.5 -5.5q-6 -10 -7 -24.5t-2 -26.5
q-1 -14 -1 -27v-26v-26.5t2 -26.5q0 -11 2 -25.5t11 -21.5q11 -7 16.5 2t8 23.5t3 29t0.5 19.5h-26v33h59v-142h-26l-1 38q-2 -12 -7.5 -25t-17.5 -17q-11 -4 -22 2t-18 15q-14 20 -16.5 49t-2.5 52q-2 29 -1 60t8 59q2 12 7.5 24t15.5 18q21 14 46 4q12 -6 19 -17.5t10 -26
t4 -29.5t1 -27zM227 409q5 9 12.5 16t16.5 9q8 3 16 -1t18 -1l-19 -39q-2 -4 -5.5 -12t0.5 -10q5 -5 11.5 2t11.5 15q2 6 5 11.5l6 11.5l8 21q9 0 15 5l-19 -44q-2 -4 -5 -11.5t1 -10.5q4 -5 10 1.5t10 14.5q4 11 9.5 22l10.5 22t9 21t9 21q7 -3 14 3l-27 -64q-2 -6 -5 -12
t-5 -11q-1 -3 -2.5 -7t-1.5 -7t1 -4.5t6 0.5t9.5 7.5t8.5 13.5q2 5 4 9l4 8q5 9 12 16t17 9q9 3 17 -1t17 -1q-5 -10 -9 -19l-9 -20q-2 -4 -5 -12t0 -10q3 -3 6.5 -1t7 6.5t6.5 9.5t5 8l1 2l33 77q8 0 13 3l-10 -27.5t-13 -25.5q7 8 16.5 13t16.5 -7q7 -11 1 -27t-13 -24
q6 -1 11.5 2t10.5 8q4 11 9 21.5l10 21.5l18 42q5 -2 14 3q-8 -16 -14 -32t-14 -32q-2 -6 -4.5 -12t-5.5 -11q-1 -3 -2 -7t-1 -7t1 -4.5t6 0.5t10.5 9t8.5 14q3 17 13 25q3 4 9.5 9t14 7.5t13.5 0.5t8 -12q1 -9 -3.5 -17t-12 -13.5t-16.5 -8.5t-16 -3q-1 -7 3.5 -11t10.5 -4
q13 0 24 8.5t18 20.5l4 -2q-8 -16 -23.5 -26t-31.5 -6q-17 3 -17 20q-4 -6 -8 -11t-9 -7q-7 -5 -15 -1.5t-6 14.5v2q-2 -2 -4 -2q-4 -4 -12 -4h-7q-2 0 -3 -2t-3 -2q-10 -8 -22 -6.5t-18 12.5q-8 -10 -17 -13t-13 3.5t0 14.5q-5 -8 -14 -15.5t-18 -0.5q-7 4 -7 16
q-7 -12 -14 -16q-8 -5 -15.5 -2t-6.5 12l-5.5 -5.5t-5.5 -4.5q-8 -5 -15.5 -2t-5.5 13l-9 -7.5t-9 -5.5q-9 -3 -12.5 3.5t0.5 14.5h-1q-5 -8 -13.5 -15.5t-18.5 -0.5q-5 2 -6 7.5t0 10.5q-4 -4 -10 -7q-4 -2 -13 -2q-5 0 -6 -1t-4 -3q-11 -8 -24 -7t-9 20q2 14 8 26.5
l11 23.5q6 0 14 5q-4 -9 -7 -17.5t-7 -16.5q-1 -3 -4 -8.5t-5 -11.5t-2 -10.5t4 -5.5q9 -2 17.5 9.5t11.5 17.5q5 9 8 20t3 22q9 2 10 -6t-1 -15q-4 -19 -18 -36q8 -3 15 3t11 14zM961 547q-11 0 -17.5 6t-10 15t-5 19.5t-1.5 20.5q-2 22 -2 45.5t6 45.5q3 10 8.5 17.5
t14.5 8.5q20 5 32 -15q9 -20 9 -43.5v-44.5q0 -11 -0.5 -24t-4 -24t-10.5 -19t-19 -8zM396 547q-11 0 -17.5 6t-10.5 15t-5 19.5l-2 20.5q-1 22 -1 45.5t6 45.5q3 10 8 17.5t16 8.5q21 5 31 -15q8 -20 8.5 -43.5t0.5 -44.5q0 -11 -1 -24t-4.5 -24t-10 -19t-18.5 -8zM883 -17
h-36v283h36v-283zM228 548h-21v176h23h15t13 -3q10 -6 13 -19t3 -24v-14.5t-1.5 -17t-4.5 -15t-9 -9.5l18 -74h-24l-13 70q-3 0 -6 0.5t-6 0.5v-71zM1025 587v-39h-21v176h20l16 -61t14 -62q-2 30 -2.5 61t-0.5 62h21v-176h-22q-8 29 -15.5 59.5t-13.5 61.5q2 -21 2.5 -41
t1.5 -41zM89 548h-23v176h35q25 0 33 -30q4 -16 3 -37.5t-9 -37.5q-7 -11 -17.5 -12t-21.5 -1v-58zM460 587v-39h-21v176h20l15.5 -61t13.5 -62q-2 30 -2.5 61t-0.5 62h21v-176h-22l-14.5 59.5t-13.5 61.5q2 -21 2 -41t2 -41zM533 548h-21l18 176h36l19 -176h-21l-5 43h-22z
M714 547q-16 0 -23.5 10t-10 24t-2 30.5t0.5 29.5v83h23v-123q0 -5 -0.5 -11.5t1.5 -11.5q2 -6 7 -8.5t10 2.5t5.5 15t0.5 17q1 14 0.5 28t-0.5 28v64h22v-83q0 -13 0.5 -29.5t-1.5 -30.5t-9.5 -24t-23.5 -10zM1110 433q7 -1 14 4l-5.5 -12.5t-7.5 -10.5v-2q7 8 15.5 16
t17.5 9q12 0 11.5 -11t-3.5 -19q-2 -2 -4.5 -7t-5.5 -10t-4.5 -10t0.5 -8q2 -4 5.5 -2t7 6t7 9l5.5 8l20 44h-8l3 7h8l8 19q6 0 14 4l-10 -23h15l-4 -7h-14l-18 -43q-2 -5 -5 -11.5t-1 -11.5q3 -3 7 -0.5t8.5 8t7.5 10.5t4 7l4 -2q-5 -9 -12 -19.5t-18 -12.5q-10 -3 -13 1.5
t-1 11.5l-6 -6t-6 -5q-7 -5 -14.5 -2.5t-6.5 13.5q1 10 6.5 18.5t8.5 16.5q1 4 3.5 11.5t-4.5 6.5q-11 -2 -20.5 -16t-14.5 -24q-4 -6 -6.5 -13l-5.5 -15h-12l7 19l-1 -1q-3 -3 -10 -5h-9q-5 -7 -11 -9t-9 -2q-9 -6 -18 3q-8 8 -6.5 20.5t5.5 23.5q5 11 14 19.5t22 8.5
q10 0 14.5 -7t4.5 -16.5t-3.5 -19.5t-7.5 -16q13 0 20 13zM309 630q-11 8 -18 19t-9 26q-2 13 2 26t16 20q9 5 22 4.5t21 -10.5q9 -10 9 -22.5v-24.5q-6 0 -12 0.5t-11 0.5q0 7 0.5 15t-4.5 13q-9 10 -14.5 2t-6.5 -18q0 -14 7.5 -21.5t15.5 -14.5t14.5 -15.5t8.5 -19.5
q2 -12 0.5 -24t-7 -21.5t-14.5 -14.5t-21 -3q-21 4 -23.5 22t-1.5 37h21q0 -5 -0.5 -11t0.5 -13q2 -7 7.5 -11t11.5 1q5 5 6 14.5t-1 16.5q-2 9 -7 15.5t-12 11.5zM785 630q-23 15 -27 45q-1 13 2.5 26t14.5 20q10 5 22.5 4.5t20.5 -10.5q9 -10 8.5 -22.5t-0.5 -24.5
q-5 0 -10 0.5t-10 0.5q0 7 0.5 15t-5.5 13q-9 10 -14.5 2t-6.5 -18q0 -14 7 -21.5t15 -14.5q18 -13 24 -35q2 -12 0.5 -24t-7 -21.5t-14.5 -14.5t-22 -3q-10 2 -15 8t-7.5 14t-2.5 18v19h22q0 -5 -1 -11t1 -13t7 -11t11 1q7 5 8 14.5t-1 16.5q-2 9 -7.5 15.5t-12.5 11.5z
M201 548h-56v176h56v-24h-34v-49h28v-26h-28v-53h34v-24zM891 548h-55v176h55v-24h-32v-49h27v-26h-27v-53h32v-24zM129 400l-42 -3q-5 -8 -9.5 -19t-5.5 -22q-8 -2 -9.5 3t0 13t4.5 15.5t5 9.5l-14 -1l-5 10h23q11 20 27 39.5t36 30.5q6 5 16 5.5t12 -11.5q2 -6 -0.5 -12.5
l-4.5 -11.5q-5 -11 -9.5 -22t-9.5 -22q-3 -8 -9.5 -20.5t-2.5 -21.5q-9 -2 -11 3t-0.5 12t4.5 14.5t5 10.5zM1185 724h21l-10 -49.5l-10 -49.5q-5 -18 -3.5 -38t1.5 -39h-24q0 19 0.5 39t-3.5 38l-10 49.5l-10 49.5h21l8 -44.5t6 -46.5q1 24 5 46zM815 363q-7 5 -5.5 13
t4.5 16l17 40q7 0 14 5l-13 -31q-2 -5 -8 -17t-2 -17q6 -6 14.5 2.5t11.5 13.5t5 9.5t6 9.5l12 27q3 0 6 1l6 2q-4 -11 -8.5 -21.5l-9.5 -21.5q-2 -5 -5 -11.5t0 -11.5q4 -6 10 1t11 15q4 11 9.5 22l10.5 22q4 11 8.5 21l9.5 21q6 -3 14 3l-28 -64l-10 -23q-1 -3 -2 -7
t-1.5 -7t1 -4.5t5.5 0.5q9 3 16 15q4 11 9.5 22.5l10.5 22.5l8 21t9 21q7 -3 15 3l-28 -64l-10 -23q-1 -3 -2 -7t-1.5 -7t0.5 -4.5t6 0.5q7 2 12 10t8 15l4 -2q-5 -9 -10 -17t-13 -13q-7 -5 -14 -2t-6 12q-7 -7 -13 -10q-7 -5 -14 -2t-6 13q-5 -6 -9.5 -10.5t-10.5 -4.5
q-10 0 -11 7t2 14q-6 -8 -16.5 -16t-18.5 -2zM1135 548h-55v176h22v-154h33v-22zM645 548h-55v176h23v-154h32v-22zM754 125q6 0 12.5 -1t11.5 4q9 9 11 23.5t2 25.5q0 13 -2 28t-10 24q-5 5 -12 4.5t-13 -0.5v-108zM687 433q6 -1 15 4q-4 -7 -6.5 -12.5t-6.5 -10.5v-2
q6 8 15 16t18 9q12 0 11.5 -11t-4.5 -19q-1 -2 -4 -7t-5.5 -10t-4.5 -10t0 -8q2 -5 6.5 -2t8.5 8t7.5 10.5t4.5 7.5l4 -2l-10 -16.5t-13 -13.5q-7 -5 -14 -2.5t-6 13.5q1 10 6.5 18.5t8.5 16.5l3 11.5t-5 6.5q-11 -2 -20 -16t-14 -24l-12 -28h-12l4 11l-4 -4t-4 -3
q-8 -5 -15.5 -1.5t-5.5 14.5q0 9 4.5 17.5t7.5 16.5q7 9 10 21q10 0 15 5l-19 -44l-5.5 -11.5t-0.5 -10.5t7.5 0t8.5 8t7 10t4 7zM961 704q-7 0 -10 -9t-4 -20.5t-0.5 -23t0.5 -15.5q0 -5 -0.5 -16t0.5 -22t4 -20t10 -9q6 0 9 9t4 20t0.5 22t-0.5 16q0 4 0.5 15.5t-0.5 23
t-4 20.5t-9 9zM396 704q-7 0 -10 -9t-4 -20.5t-0.5 -23t0.5 -15.5q0 -5 -0.5 -16t0.5 -22t4 -20t10 -9q6 0 8.5 9t3.5 20t0.5 22t-0.5 16q0 4 0.5 15.5t-0.5 23t-3.5 20.5t-8.5 9zM1212 724h23q0 -32 -1 -65t-3 -66h-15q-2 33 -3 65.5t-1 65.5zM154 475q-8 2 -19 -8t-16 -16
q-16 -20 -29 -45h43l13 31q1 3 4 9t5 12t2.5 11t-3.5 6zM1058 460q-5 -4 -6.5 0t-0.5 9q-5 2 -9 0t-7 -6.5t-5 -9.5t-3 -9h14l-3 -7h-14l-45 -104q-7 0 -14 -3l47 107h-16l3 7h16q3 9 8 18.5t15 11.5q6 2 15 -1q2 -2 6 -5.5t-1 -7.5zM850 460q-5 -4 -7 0t-1 9q-5 2 -9 0
t-7 -6.5t-5 -9.5t-3 -9h14l-3 -7h-14l-45 -104q-7 0 -13 -3l45 107h-15l4 7h15q3 9 8 18.5t15 11.5q6 2 15 -1l5.5 -5.5t0.5 -7.5zM633 136q-2 -11 -3 -23t-3 -23h30q-3 34 -8.5 67.5t-7.5 68.5q-1 -23 -3.5 -45t-4.5 -45zM89 626q5 0 9.5 -0.5t7.5 4.5q5 6 5.5 16.5
t0.5 18.5t-0.5 18t-5.5 16q-3 5 -7.5 5h-9.5v-78zM1065 431q-8 0 -15.5 -10t-11.5 -22.5t-4 -22.5t8 -10q6 0 13 10.5t11.5 22.5t5 22t-6.5 10zM945 7q0 -12 -6.5 -17.5t-14 -5.5t-13.5 5.5t-6 17.5t6 17.5t13.5 5.5t14 -5.5t6.5 -17.5zM572 7q0 -12 -6.5 -17.5t-14 -5.5
t-13.5 5.5t-6 17.5t6 17.5t13.5 5.5t14 -5.5t6.5 -17.5zM470 428q-7 0 -12.5 -6t-10 -15t-8.5 -18.5t-7 -15.5q6 -5 11.5 -4.5t10.5 4.5t9 9t6 10q1 3 4 9t4 12t0 10.5t-7 4.5zM235 369q7 0 13 6.5t10.5 16t8 19.5t6.5 17q-10 6 -20 -3.5t-15 -18.5l-4 -8t-4.5 -12.5
t-1 -11.5t6.5 -5zM228 637q5 0 9 -0.5t7 1.5q6 5 7 14.5t1 17.5t-1 17.5t-7 14.5q-3 2 -7 2h-9v-67zM372 369q7 0 13.5 6.5t11 16t8 19.5t6.5 17q-11 6 -21 -3.5t-15 -18.5l-4 -8t-4.5 -12.5t-1 -11.5t6.5 -5zM549 403q-6 -10 -7 -16q11 0 25 11t14 25q0 8 -5.5 7.5
t-10.5 -4.5t-9 -10.5t-7 -12.5zM542 643l-3 -28h18q-2 21 -4.5 41.5t-3.5 41.5q-1 -13 -3 -27zM1236 563q0 -8 -4 -11.5t-8.5 -3.5t-8.5 3.5t-4 11.5q0 7 4 10.5t8.5 3.5t8.5 -3.5t4 -10.5zM679 456q-4 -8 -11.5 -5t-5.5 11q3 10 12 7t5 -13zM332 456q-3 -8 -10.5 -5
t-5.5 11q1 5 5 6.5t7.5 0.5t5 -4.5t-1.5 -8.5zM1216 367q-4 -8 -11.5 -4.5t-3.5 11.5q4 9 11.5 5t3.5 -12zM1237 421q-3 -9 -11 -5.5t-3 12.5q4 7 11 4t3 -11z" />
    <glyph glyph-name="seven" unicode="7" horiz-adv-x="1272" 
d="M364 266h43q5 -60 8.5 -118t5.5 -117q3 45 5.5 89t7.5 89l6 57h40q5 -48 9 -96l8 -96l3 -43q3 47 4.5 93t5.5 91q2 13 2.5 25.5t1.5 25.5h31l-21 -283h-47q-5 56 -9.5 112t-6.5 113q-2 -42 -5 -84t-7 -84l-4 -57h-48l-12 159l-12 -159h-46l-10 112t-7 113
q-2 -42 -4.5 -84t-6.5 -84l-5 -57h-47l-12 162l-12 -162h-47q-5 56 -9.5 111.5t-6.5 112.5q-1 -43 -4 -84t-7 -83l-6 -57h-46l-22 283h31q5 -60 8.5 -118t5.5 -117l6 89t8 89l6 57h39q6 -48 10 -96t7 -96l3 -43q3 47 4.5 93t5.5 91l5 51h42q5 -60 8.5 -118t6.5 -117
q3 45 5.5 89t6.5 89q3 14 4 28t3 29h40q5 -48 9 -96l8 -96l2 -43q3 47 5 93t6 91zM1227 876h-1153v26h1153v-26zM1227 -197h-1153v25h1153v-25zM754 -17h-36v283h37h22t21 -5q18 -9 23 -31.5t5 -42.5v-22t-2.5 -25.5t-8 -22.5t-14.5 -14l31 -120h-40l-21 113h-17v-113z
M1001 46v-63h-33v283h32l25.5 -98.5t22.5 -99.5q-4 50 -4.5 99t-0.5 99h33v-283h-34l-25 96.5t-22 97.5q2 -33 3 -65.5t3 -65.5zM617 -17h-34l30 283h58l31 -283h-36l-7 67h-34zM1175 160q1 14 0 28.5t-5 26.5q-4 9 -11.5 14.5t-14.5 -5.5q-6 -10 -7 -24.5t-2 -26.5
q-1 -14 -1 -27v-26v-26.5t2 -26.5q0 -11 2 -25.5t11 -21.5q11 -7 16.5 2t8 23.5t3 29t0.5 19.5h-26v33h59v-142h-26l-1 38q-2 -12 -7.5 -25t-17.5 -17q-11 -4 -22 2t-18 15q-14 20 -16.5 49t-2.5 52q-2 29 -1 60t8 59q2 12 7.5 24t15.5 18q21 14 46 4q12 -6 19 -17.5t10 -26
t4 -29.5t1 -27zM227 409q5 9 12.5 16t16.5 9q8 3 16 -1t18 -1l-19 -39q-2 -4 -5.5 -12t0.5 -10q5 -5 11.5 2t11.5 15q2 6 5 11.5l6 11.5l8 21q9 0 15 5l-19 -44q-2 -4 -5 -11.5t1 -10.5q4 -5 10 1.5t10 14.5q4 11 9.5 22l10.5 22t9 21t9 21q7 -3 14 3l-27 -64q-2 -6 -5 -12
t-5 -11q-1 -3 -2.5 -7t-1.5 -7t1 -4.5t6 0.5t9.5 7.5t8.5 13.5q2 5 4 9l4 8q5 9 12 16t17 9q9 3 17 -1t17 -1q-5 -10 -9 -19l-9 -20q-2 -4 -5 -12t0 -10q3 -3 6.5 -1t7 6.5t6.5 9.5t5 8l1 2l33 77q8 0 13 3l-10 -27.5t-13 -25.5q7 8 16.5 13t16.5 -7q7 -11 1 -27t-13 -24
q6 -1 11.5 2t10.5 8q4 11 9 21.5l10 21.5l18 42q5 -2 14 3q-8 -16 -14 -32t-14 -32q-2 -6 -4.5 -12t-5.5 -11q-1 -3 -2 -7t-1 -7t1 -4.5t6 0.5t10.5 9t8.5 14q3 17 13 25q3 4 9.5 9t14 7.5t13.5 0.5t8 -12q1 -9 -3.5 -17t-12 -13.5t-16.5 -8.5t-16 -3q-1 -7 3.5 -11t10.5 -4
q13 0 24 8.5t18 20.5l4 -2q-8 -16 -23.5 -26t-31.5 -6q-17 3 -17 20q-4 -6 -8 -11t-9 -7q-7 -5 -15 -1.5t-6 14.5v2q-2 -2 -4 -2q-4 -4 -12 -4h-7q-2 0 -3 -2t-3 -2q-10 -8 -22 -6.5t-18 12.5q-8 -10 -17 -13t-13 3.5t0 14.5q-5 -8 -14 -15.5t-18 -0.5q-7 4 -7 16
q-7 -12 -14 -16q-8 -5 -15.5 -2t-6.5 12l-5.5 -5.5t-5.5 -4.5q-8 -5 -15.5 -2t-5.5 13l-9 -7.5t-9 -5.5q-9 -3 -12.5 3.5t0.5 14.5h-1q-5 -8 -13.5 -15.5t-18.5 -0.5q-5 2 -6 7.5t0 10.5q-4 -4 -10 -7q-4 -2 -13 -2q-5 0 -6 -1t-4 -3q-11 -8 -24 -7t-9 20q2 14 8 26.5
l11 23.5q6 0 14 5q-4 -9 -7 -17.5t-7 -16.5q-1 -3 -4 -8.5t-5 -11.5t-2 -10.5t4 -5.5q9 -2 17.5 9.5t11.5 17.5q5 9 8 20t3 22q9 2 10 -6t-1 -15q-4 -19 -18 -36q8 -3 15 3t11 14zM961 547q-11 0 -17.5 6t-10 15t-5 19.5t-1.5 20.5q-2 22 -2 45.5t6 45.5q3 10 8.5 17.5
t14.5 8.5q20 5 32 -15q9 -20 9 -43.5v-44.5q0 -11 -0.5 -24t-4 -24t-10.5 -19t-19 -8zM396 547q-11 0 -17.5 6t-10.5 15t-5 19.5l-2 20.5q-1 22 -1 45.5t6 45.5q3 10 8 17.5t16 8.5q21 5 31 -15q8 -20 8.5 -43.5t0.5 -44.5q0 -11 -1 -24t-4.5 -24t-10 -19t-18.5 -8zM883 -17
h-36v283h36v-283zM228 548h-21v176h23h15t13 -3q10 -6 13 -19t3 -24v-14.5t-1.5 -17t-4.5 -15t-9 -9.5l18 -74h-24l-13 70q-3 0 -6 0.5t-6 0.5v-71zM1025 587v-39h-21v176h20l16 -61t14 -62q-2 30 -2.5 61t-0.5 62h21v-176h-22q-8 29 -15.5 59.5t-13.5 61.5q2 -21 2.5 -41
t1.5 -41zM89 548h-23v176h35q25 0 33 -30q4 -16 3 -37.5t-9 -37.5q-7 -11 -17.5 -12t-21.5 -1v-58zM460 587v-39h-21v176h20l15.5 -61t13.5 -62q-2 30 -2.5 61t-0.5 62h21v-176h-22l-14.5 59.5t-13.5 61.5q2 -21 2 -41t2 -41zM533 548h-21l18 176h36l19 -176h-21l-5 43h-22z
M714 547q-16 0 -23.5 10t-10 24t-2 30.5t0.5 29.5v83h23v-123q0 -5 -0.5 -11.5t1.5 -11.5q2 -6 7 -8.5t10 2.5t5.5 15t0.5 17q1 14 0.5 28t-0.5 28v64h22v-83q0 -13 0.5 -29.5t-1.5 -30.5t-9.5 -24t-23.5 -10zM1110 433q7 -1 14 4l-5.5 -12.5t-7.5 -10.5v-2q7 8 15.5 16
t17.5 9q12 0 11.5 -11t-3.5 -19q-2 -2 -4.5 -7t-5.5 -10t-4.5 -10t0.5 -8q2 -4 5.5 -2t7 6t7 9l5.5 8l20 44h-8l3 7h8l8 19q6 0 14 4l-10 -23h15l-4 -7h-14l-18 -43q-2 -5 -5 -11.5t-1 -11.5q3 -3 7 -0.5t8.5 8t7.5 10.5t4 7l4 -2q-5 -9 -12 -19.5t-18 -12.5q-10 -3 -13 1.5
t-1 11.5l-6 -6t-6 -5q-7 -5 -14.5 -2.5t-6.5 13.5q1 10 6.5 18.5t8.5 16.5q1 4 3.5 11.5t-4.5 6.5q-11 -2 -20.5 -16t-14.5 -24q-4 -6 -6.5 -13l-5.5 -15h-12l7 19l-1 -1q-3 -3 -10 -5h-9q-5 -7 -11 -9t-9 -2q-9 -6 -18 3q-8 8 -6.5 20.5t5.5 23.5q5 11 14 19.5t22 8.5
q10 0 14.5 -7t4.5 -16.5t-3.5 -19.5t-7.5 -16q13 0 20 13zM309 630q-11 8 -18 19t-9 26q-2 13 2 26t16 20q9 5 22 4.5t21 -10.5q9 -10 9 -22.5v-24.5q-6 0 -12 0.5t-11 0.5q0 7 0.5 15t-4.5 13q-9 10 -14.5 2t-6.5 -18q0 -14 7.5 -21.5t15.5 -14.5t14.5 -15.5t8.5 -19.5
q2 -12 0.5 -24t-7 -21.5t-14.5 -14.5t-21 -3q-21 4 -23.5 22t-1.5 37h21q0 -5 -0.5 -11t0.5 -13q2 -7 7.5 -11t11.5 1q5 5 6 14.5t-1 16.5q-2 9 -7 15.5t-12 11.5zM785 630q-23 15 -27 45q-1 13 2.5 26t14.5 20q10 5 22.5 4.5t20.5 -10.5q9 -10 8.5 -22.5t-0.5 -24.5
q-5 0 -10 0.5t-10 0.5q0 7 0.5 15t-5.5 13q-9 10 -14.5 2t-6.5 -18q0 -14 7 -21.5t15 -14.5q18 -13 24 -35q2 -12 0.5 -24t-7 -21.5t-14.5 -14.5t-22 -3q-10 2 -15 8t-7.5 14t-2.5 18v19h22q0 -5 -1 -11t1 -13t7 -11t11 1q7 5 8 14.5t-1 16.5q-2 9 -7.5 15.5t-12.5 11.5z
M201 548h-56v176h56v-24h-34v-49h28v-26h-28v-53h34v-24zM891 548h-55v176h55v-24h-32v-49h27v-26h-27v-53h32v-24zM129 400l-42 -3q-5 -8 -9.5 -19t-5.5 -22q-8 -2 -9.5 3t0 13t4.5 15.5t5 9.5l-14 -1l-5 10h23q11 20 27 39.5t36 30.5q6 5 16 5.5t12 -11.5q2 -6 -0.5 -12.5
l-4.5 -11.5q-5 -11 -9.5 -22t-9.5 -22q-3 -8 -9.5 -20.5t-2.5 -21.5q-9 -2 -11 3t-0.5 12t4.5 14.5t5 10.5zM1185 724h21l-10 -49.5l-10 -49.5q-5 -18 -3.5 -38t1.5 -39h-24q0 19 0.5 39t-3.5 38l-10 49.5l-10 49.5h21l8 -44.5t6 -46.5q1 24 5 46zM815 363q-7 5 -5.5 13
t4.5 16l17 40q7 0 14 5l-13 -31q-2 -5 -8 -17t-2 -17q6 -6 14.5 2.5t11.5 13.5t5 9.5t6 9.5l12 27q3 0 6 1l6 2q-4 -11 -8.5 -21.5l-9.5 -21.5q-2 -5 -5 -11.5t0 -11.5q4 -6 10 1t11 15q4 11 9.5 22l10.5 22q4 11 8.5 21l9.5 21q6 -3 14 3l-28 -64l-10 -23q-1 -3 -2 -7
t-1.5 -7t1 -4.5t5.5 0.5q9 3 16 15q4 11 9.5 22.5l10.5 22.5l8 21t9 21q7 -3 15 3l-28 -64l-10 -23q-1 -3 -2 -7t-1.5 -7t0.5 -4.5t6 0.5q7 2 12 10t8 15l4 -2q-5 -9 -10 -17t-13 -13q-7 -5 -14 -2t-6 12q-7 -7 -13 -10q-7 -5 -14 -2t-6 13q-5 -6 -9.5 -10.5t-10.5 -4.5
q-10 0 -11 7t2 14q-6 -8 -16.5 -16t-18.5 -2zM1135 548h-55v176h22v-154h33v-22zM645 548h-55v176h23v-154h32v-22zM754 125q6 0 12.5 -1t11.5 4q9 9 11 23.5t2 25.5q0 13 -2 28t-10 24q-5 5 -12 4.5t-13 -0.5v-108zM687 433q6 -1 15 4q-4 -7 -6.5 -12.5t-6.5 -10.5v-2
q6 8 15 16t18 9q12 0 11.5 -11t-4.5 -19q-1 -2 -4 -7t-5.5 -10t-4.5 -10t0 -8q2 -5 6.5 -2t8.5 8t7.5 10.5t4.5 7.5l4 -2l-10 -16.5t-13 -13.5q-7 -5 -14 -2.5t-6 13.5q1 10 6.5 18.5t8.5 16.5l3 11.5t-5 6.5q-11 -2 -20 -16t-14 -24l-12 -28h-12l4 11l-4 -4t-4 -3
q-8 -5 -15.5 -1.5t-5.5 14.5q0 9 4.5 17.5t7.5 16.5q7 9 10 21q10 0 15 5l-19 -44l-5.5 -11.5t-0.5 -10.5t7.5 0t8.5 8t7 10t4 7zM961 704q-7 0 -10 -9t-4 -20.5t-0.5 -23t0.5 -15.5q0 -5 -0.5 -16t0.5 -22t4 -20t10 -9q6 0 9 9t4 20t0.5 22t-0.5 16q0 4 0.5 15.5t-0.5 23
t-4 20.5t-9 9zM396 704q-7 0 -10 -9t-4 -20.5t-0.5 -23t0.5 -15.5q0 -5 -0.5 -16t0.5 -22t4 -20t10 -9q6 0 8.5 9t3.5 20t0.5 22t-0.5 16q0 4 0.5 15.5t-0.5 23t-3.5 20.5t-8.5 9zM1212 724h23q0 -32 -1 -65t-3 -66h-15q-2 33 -3 65.5t-1 65.5zM154 475q-8 2 -19 -8t-16 -16
q-16 -20 -29 -45h43l13 31q1 3 4 9t5 12t2.5 11t-3.5 6zM1058 460q-5 -4 -6.5 0t-0.5 9q-5 2 -9 0t-7 -6.5t-5 -9.5t-3 -9h14l-3 -7h-14l-45 -104q-7 0 -14 -3l47 107h-16l3 7h16q3 9 8 18.5t15 11.5q6 2 15 -1q2 -2 6 -5.5t-1 -7.5zM850 460q-5 -4 -7 0t-1 9q-5 2 -9 0
t-7 -6.5t-5 -9.5t-3 -9h14l-3 -7h-14l-45 -104q-7 0 -13 -3l45 107h-15l4 7h15q3 9 8 18.5t15 11.5q6 2 15 -1l5.5 -5.5t0.5 -7.5zM633 136q-2 -11 -3 -23t-3 -23h30q-3 34 -8.5 67.5t-7.5 68.5q-1 -23 -3.5 -45t-4.5 -45zM89 626q5 0 9.5 -0.5t7.5 4.5q5 6 5.5 16.5
t0.5 18.5t-0.5 18t-5.5 16q-3 5 -7.5 5h-9.5v-78zM1065 431q-8 0 -15.5 -10t-11.5 -22.5t-4 -22.5t8 -10q6 0 13 10.5t11.5 22.5t5 22t-6.5 10zM945 7q0 -12 -6.5 -17.5t-14 -5.5t-13.5 5.5t-6 17.5t6 17.5t13.5 5.5t14 -5.5t6.5 -17.5zM572 7q0 -12 -6.5 -17.5t-14 -5.5
t-13.5 5.5t-6 17.5t6 17.5t13.5 5.5t14 -5.5t6.5 -17.5zM470 428q-7 0 -12.5 -6t-10 -15t-8.5 -18.5t-7 -15.5q6 -5 11.5 -4.5t10.5 4.5t9 9t6 10q1 3 4 9t4 12t0 10.5t-7 4.5zM235 369q7 0 13 6.5t10.5 16t8 19.5t6.5 17q-10 6 -20 -3.5t-15 -18.5l-4 -8t-4.5 -12.5
t-1 -11.5t6.5 -5zM228 637q5 0 9 -0.5t7 1.5q6 5 7 14.5t1 17.5t-1 17.5t-7 14.5q-3 2 -7 2h-9v-67zM372 369q7 0 13.5 6.5t11 16t8 19.5t6.5 17q-11 6 -21 -3.5t-15 -18.5l-4 -8t-4.5 -12.5t-1 -11.5t6.5 -5zM549 403q-6 -10 -7 -16q11 0 25 11t14 25q0 8 -5.5 7.5
t-10.5 -4.5t-9 -10.5t-7 -12.5zM542 643l-3 -28h18q-2 21 -4.5 41.5t-3.5 41.5q-1 -13 -3 -27zM1236 563q0 -8 -4 -11.5t-8.5 -3.5t-8.5 3.5t-4 11.5q0 7 4 10.5t8.5 3.5t8.5 -3.5t4 -10.5zM679 456q-4 -8 -11.5 -5t-5.5 11q3 10 12 7t5 -13zM332 456q-3 -8 -10.5 -5
t-5.5 11q1 5 5 6.5t7.5 0.5t5 -4.5t-1.5 -8.5zM1216 367q-4 -8 -11.5 -4.5t-3.5 11.5q4 9 11.5 5t3.5 -12zM1237 421q-3 -9 -11 -5.5t-3 12.5q4 7 11 4t3 -11z" />
    <glyph glyph-name="six" unicode="6" horiz-adv-x="1272" 
d="M364 266h43q5 -60 8.5 -118t5.5 -117q3 45 5.5 89t7.5 89l6 57h40q5 -48 9 -96l8 -96l3 -43q3 47 4.5 93t5.5 91q2 13 2.5 25.5t1.5 25.5h31l-21 -283h-47q-5 56 -9.5 112t-6.5 113q-2 -42 -5 -84t-7 -84l-4 -57h-48l-12 159l-12 -159h-46l-10 112t-7 113
q-2 -42 -4.5 -84t-6.5 -84l-5 -57h-47l-12 162l-12 -162h-47q-5 56 -9.5 111.5t-6.5 112.5q-1 -43 -4 -84t-7 -83l-6 -57h-46l-22 283h31q5 -60 8.5 -118t5.5 -117l6 89t8 89l6 57h39q6 -48 10 -96t7 -96l3 -43q3 47 4.5 93t5.5 91l5 51h42q5 -60 8.5 -118t6.5 -117
q3 45 5.5 89t6.5 89q3 14 4 28t3 29h40q5 -48 9 -96l8 -96l2 -43q3 47 5 93t6 91zM1227 876h-1153v26h1153v-26zM1227 -197h-1153v25h1153v-25zM754 -17h-36v283h37h22t21 -5q18 -9 23 -31.5t5 -42.5v-22t-2.5 -25.5t-8 -22.5t-14.5 -14l31 -120h-40l-21 113h-17v-113z
M1001 46v-63h-33v283h32l25.5 -98.5t22.5 -99.5q-4 50 -4.5 99t-0.5 99h33v-283h-34l-25 96.5t-22 97.5q2 -33 3 -65.5t3 -65.5zM617 -17h-34l30 283h58l31 -283h-36l-7 67h-34zM1175 160q1 14 0 28.5t-5 26.5q-4 9 -11.5 14.5t-14.5 -5.5q-6 -10 -7 -24.5t-2 -26.5
q-1 -14 -1 -27v-26v-26.5t2 -26.5q0 -11 2 -25.5t11 -21.5q11 -7 16.5 2t8 23.5t3 29t0.5 19.5h-26v33h59v-142h-26l-1 38q-2 -12 -7.5 -25t-17.5 -17q-11 -4 -22 2t-18 15q-14 20 -16.5 49t-2.5 52q-2 29 -1 60t8 59q2 12 7.5 24t15.5 18q21 14 46 4q12 -6 19 -17.5t10 -26
t4 -29.5t1 -27zM227 409q5 9 12.5 16t16.5 9q8 3 16 -1t18 -1l-19 -39q-2 -4 -5.5 -12t0.5 -10q5 -5 11.5 2t11.5 15q2 6 5 11.5l6 11.5l8 21q9 0 15 5l-19 -44q-2 -4 -5 -11.5t1 -10.5q4 -5 10 1.5t10 14.5q4 11 9.5 22l10.5 22t9 21t9 21q7 -3 14 3l-27 -64q-2 -6 -5 -12
t-5 -11q-1 -3 -2.5 -7t-1.5 -7t1 -4.5t6 0.5t9.5 7.5t8.5 13.5q2 5 4 9l4 8q5 9 12 16t17 9q9 3 17 -1t17 -1q-5 -10 -9 -19l-9 -20q-2 -4 -5 -12t0 -10q3 -3 6.5 -1t7 6.5t6.5 9.5t5 8l1 2l33 77q8 0 13 3l-10 -27.5t-13 -25.5q7 8 16.5 13t16.5 -7q7 -11 1 -27t-13 -24
q6 -1 11.5 2t10.5 8q4 11 9 21.5l10 21.5l18 42q5 -2 14 3q-8 -16 -14 -32t-14 -32q-2 -6 -4.5 -12t-5.5 -11q-1 -3 -2 -7t-1 -7t1 -4.5t6 0.5t10.5 9t8.5 14q3 17 13 25q3 4 9.5 9t14 7.5t13.5 0.5t8 -12q1 -9 -3.5 -17t-12 -13.5t-16.5 -8.5t-16 -3q-1 -7 3.5 -11t10.5 -4
q13 0 24 8.5t18 20.5l4 -2q-8 -16 -23.5 -26t-31.5 -6q-17 3 -17 20q-4 -6 -8 -11t-9 -7q-7 -5 -15 -1.5t-6 14.5v2q-2 -2 -4 -2q-4 -4 -12 -4h-7q-2 0 -3 -2t-3 -2q-10 -8 -22 -6.5t-18 12.5q-8 -10 -17 -13t-13 3.5t0 14.5q-5 -8 -14 -15.5t-18 -0.5q-7 4 -7 16
q-7 -12 -14 -16q-8 -5 -15.5 -2t-6.5 12l-5.5 -5.5t-5.5 -4.5q-8 -5 -15.5 -2t-5.5 13l-9 -7.5t-9 -5.5q-9 -3 -12.5 3.5t0.5 14.5h-1q-5 -8 -13.5 -15.5t-18.5 -0.5q-5 2 -6 7.5t0 10.5q-4 -4 -10 -7q-4 -2 -13 -2q-5 0 -6 -1t-4 -3q-11 -8 -24 -7t-9 20q2 14 8 26.5
l11 23.5q6 0 14 5q-4 -9 -7 -17.5t-7 -16.5q-1 -3 -4 -8.5t-5 -11.5t-2 -10.5t4 -5.5q9 -2 17.5 9.5t11.5 17.5q5 9 8 20t3 22q9 2 10 -6t-1 -15q-4 -19 -18 -36q8 -3 15 3t11 14zM961 547q-11 0 -17.5 6t-10 15t-5 19.5t-1.5 20.5q-2 22 -2 45.5t6 45.5q3 10 8.5 17.5
t14.5 8.5q20 5 32 -15q9 -20 9 -43.5v-44.5q0 -11 -0.5 -24t-4 -24t-10.5 -19t-19 -8zM396 547q-11 0 -17.5 6t-10.5 15t-5 19.5l-2 20.5q-1 22 -1 45.5t6 45.5q3 10 8 17.5t16 8.5q21 5 31 -15q8 -20 8.5 -43.5t0.5 -44.5q0 -11 -1 -24t-4.5 -24t-10 -19t-18.5 -8zM883 -17
h-36v283h36v-283zM228 548h-21v176h23h15t13 -3q10 -6 13 -19t3 -24v-14.5t-1.5 -17t-4.5 -15t-9 -9.5l18 -74h-24l-13 70q-3 0 -6 0.5t-6 0.5v-71zM1025 587v-39h-21v176h20l16 -61t14 -62q-2 30 -2.5 61t-0.5 62h21v-176h-22q-8 29 -15.5 59.5t-13.5 61.5q2 -21 2.5 -41
t1.5 -41zM89 548h-23v176h35q25 0 33 -30q4 -16 3 -37.5t-9 -37.5q-7 -11 -17.5 -12t-21.5 -1v-58zM460 587v-39h-21v176h20l15.5 -61t13.5 -62q-2 30 -2.5 61t-0.5 62h21v-176h-22l-14.5 59.5t-13.5 61.5q2 -21 2 -41t2 -41zM533 548h-21l18 176h36l19 -176h-21l-5 43h-22z
M714 547q-16 0 -23.5 10t-10 24t-2 30.5t0.5 29.5v83h23v-123q0 -5 -0.5 -11.5t1.5 -11.5q2 -6 7 -8.5t10 2.5t5.5 15t0.5 17q1 14 0.5 28t-0.5 28v64h22v-83q0 -13 0.5 -29.5t-1.5 -30.5t-9.5 -24t-23.5 -10zM1110 433q7 -1 14 4l-5.5 -12.5t-7.5 -10.5v-2q7 8 15.5 16
t17.5 9q12 0 11.5 -11t-3.5 -19q-2 -2 -4.5 -7t-5.5 -10t-4.5 -10t0.5 -8q2 -4 5.5 -2t7 6t7 9l5.5 8l20 44h-8l3 7h8l8 19q6 0 14 4l-10 -23h15l-4 -7h-14l-18 -43q-2 -5 -5 -11.5t-1 -11.5q3 -3 7 -0.5t8.5 8t7.5 10.5t4 7l4 -2q-5 -9 -12 -19.5t-18 -12.5q-10 -3 -13 1.5
t-1 11.5l-6 -6t-6 -5q-7 -5 -14.5 -2.5t-6.5 13.5q1 10 6.5 18.5t8.5 16.5q1 4 3.5 11.5t-4.5 6.5q-11 -2 -20.5 -16t-14.5 -24q-4 -6 -6.5 -13l-5.5 -15h-12l7 19l-1 -1q-3 -3 -10 -5h-9q-5 -7 -11 -9t-9 -2q-9 -6 -18 3q-8 8 -6.5 20.5t5.5 23.5q5 11 14 19.5t22 8.5
q10 0 14.5 -7t4.5 -16.5t-3.5 -19.5t-7.5 -16q13 0 20 13zM309 630q-11 8 -18 19t-9 26q-2 13 2 26t16 20q9 5 22 4.5t21 -10.5q9 -10 9 -22.5v-24.5q-6 0 -12 0.5t-11 0.5q0 7 0.5 15t-4.5 13q-9 10 -14.5 2t-6.5 -18q0 -14 7.5 -21.5t15.5 -14.5t14.5 -15.5t8.5 -19.5
q2 -12 0.5 -24t-7 -21.5t-14.5 -14.5t-21 -3q-21 4 -23.5 22t-1.5 37h21q0 -5 -0.5 -11t0.5 -13q2 -7 7.5 -11t11.5 1q5 5 6 14.5t-1 16.5q-2 9 -7 15.5t-12 11.5zM785 630q-23 15 -27 45q-1 13 2.5 26t14.5 20q10 5 22.5 4.5t20.5 -10.5q9 -10 8.5 -22.5t-0.5 -24.5
q-5 0 -10 0.5t-10 0.5q0 7 0.5 15t-5.5 13q-9 10 -14.5 2t-6.5 -18q0 -14 7 -21.5t15 -14.5q18 -13 24 -35q2 -12 0.5 -24t-7 -21.5t-14.5 -14.5t-22 -3q-10 2 -15 8t-7.5 14t-2.5 18v19h22q0 -5 -1 -11t1 -13t7 -11t11 1q7 5 8 14.5t-1 16.5q-2 9 -7.5 15.5t-12.5 11.5z
M201 548h-56v176h56v-24h-34v-49h28v-26h-28v-53h34v-24zM891 548h-55v176h55v-24h-32v-49h27v-26h-27v-53h32v-24zM129 400l-42 -3q-5 -8 -9.5 -19t-5.5 -22q-8 -2 -9.5 3t0 13t4.5 15.5t5 9.5l-14 -1l-5 10h23q11 20 27 39.5t36 30.5q6 5 16 5.5t12 -11.5q2 -6 -0.5 -12.5
l-4.5 -11.5q-5 -11 -9.5 -22t-9.5 -22q-3 -8 -9.5 -20.5t-2.5 -21.5q-9 -2 -11 3t-0.5 12t4.5 14.5t5 10.5zM1185 724h21l-10 -49.5l-10 -49.5q-5 -18 -3.5 -38t1.5 -39h-24q0 19 0.5 39t-3.5 38l-10 49.5l-10 49.5h21l8 -44.5t6 -46.5q1 24 5 46zM815 363q-7 5 -5.5 13
t4.5 16l17 40q7 0 14 5l-13 -31q-2 -5 -8 -17t-2 -17q6 -6 14.5 2.5t11.5 13.5t5 9.5t6 9.5l12 27q3 0 6 1l6 2q-4 -11 -8.5 -21.5l-9.5 -21.5q-2 -5 -5 -11.5t0 -11.5q4 -6 10 1t11 15q4 11 9.5 22l10.5 22q4 11 8.5 21l9.5 21q6 -3 14 3l-28 -64l-10 -23q-1 -3 -2 -7
t-1.5 -7t1 -4.5t5.5 0.5q9 3 16 15q4 11 9.5 22.5l10.5 22.5l8 21t9 21q7 -3 15 3l-28 -64l-10 -23q-1 -3 -2 -7t-1.5 -7t0.5 -4.5t6 0.5q7 2 12 10t8 15l4 -2q-5 -9 -10 -17t-13 -13q-7 -5 -14 -2t-6 12q-7 -7 -13 -10q-7 -5 -14 -2t-6 13q-5 -6 -9.5 -10.5t-10.5 -4.5
q-10 0 -11 7t2 14q-6 -8 -16.5 -16t-18.5 -2zM1135 548h-55v176h22v-154h33v-22zM645 548h-55v176h23v-154h32v-22zM754 125q6 0 12.5 -1t11.5 4q9 9 11 23.5t2 25.5q0 13 -2 28t-10 24q-5 5 -12 4.5t-13 -0.5v-108zM687 433q6 -1 15 4q-4 -7 -6.5 -12.5t-6.5 -10.5v-2
q6 8 15 16t18 9q12 0 11.5 -11t-4.5 -19q-1 -2 -4 -7t-5.5 -10t-4.5 -10t0 -8q2 -5 6.5 -2t8.5 8t7.5 10.5t4.5 7.5l4 -2l-10 -16.5t-13 -13.5q-7 -5 -14 -2.5t-6 13.5q1 10 6.5 18.5t8.5 16.5l3 11.5t-5 6.5q-11 -2 -20 -16t-14 -24l-12 -28h-12l4 11l-4 -4t-4 -3
q-8 -5 -15.5 -1.5t-5.5 14.5q0 9 4.5 17.5t7.5 16.5q7 9 10 21q10 0 15 5l-19 -44l-5.5 -11.5t-0.5 -10.5t7.5 0t8.5 8t7 10t4 7zM961 704q-7 0 -10 -9t-4 -20.5t-0.5 -23t0.5 -15.5q0 -5 -0.5 -16t0.5 -22t4 -20t10 -9q6 0 9 9t4 20t0.5 22t-0.5 16q0 4 0.5 15.5t-0.5 23
t-4 20.5t-9 9zM396 704q-7 0 -10 -9t-4 -20.5t-0.5 -23t0.5 -15.5q0 -5 -0.5 -16t0.5 -22t4 -20t10 -9q6 0 8.5 9t3.5 20t0.5 22t-0.5 16q0 4 0.5 15.5t-0.5 23t-3.5 20.5t-8.5 9zM1212 724h23q0 -32 -1 -65t-3 -66h-15q-2 33 -3 65.5t-1 65.5zM154 475q-8 2 -19 -8t-16 -16
q-16 -20 -29 -45h43l13 31q1 3 4 9t5 12t2.5 11t-3.5 6zM1058 460q-5 -4 -6.5 0t-0.5 9q-5 2 -9 0t-7 -6.5t-5 -9.5t-3 -9h14l-3 -7h-14l-45 -104q-7 0 -14 -3l47 107h-16l3 7h16q3 9 8 18.5t15 11.5q6 2 15 -1q2 -2 6 -5.5t-1 -7.5zM850 460q-5 -4 -7 0t-1 9q-5 2 -9 0
t-7 -6.5t-5 -9.5t-3 -9h14l-3 -7h-14l-45 -104q-7 0 -13 -3l45 107h-15l4 7h15q3 9 8 18.5t15 11.5q6 2 15 -1l5.5 -5.5t0.5 -7.5zM633 136q-2 -11 -3 -23t-3 -23h30q-3 34 -8.5 67.5t-7.5 68.5q-1 -23 -3.5 -45t-4.5 -45zM89 626q5 0 9.5 -0.5t7.5 4.5q5 6 5.5 16.5
t0.5 18.5t-0.5 18t-5.5 16q-3 5 -7.5 5h-9.5v-78zM1065 431q-8 0 -15.5 -10t-11.5 -22.5t-4 -22.5t8 -10q6 0 13 10.5t11.5 22.5t5 22t-6.5 10zM945 7q0 -12 -6.5 -17.5t-14 -5.5t-13.5 5.5t-6 17.5t6 17.5t13.5 5.5t14 -5.5t6.5 -17.5zM572 7q0 -12 -6.5 -17.5t-14 -5.5
t-13.5 5.5t-6 17.5t6 17.5t13.5 5.5t14 -5.5t6.5 -17.5zM470 428q-7 0 -12.5 -6t-10 -15t-8.5 -18.5t-7 -15.5q6 -5 11.5 -4.5t10.5 4.5t9 9t6 10q1 3 4 9t4 12t0 10.5t-7 4.5zM235 369q7 0 13 6.5t10.5 16t8 19.5t6.5 17q-10 6 -20 -3.5t-15 -18.5l-4 -8t-4.5 -12.5
t-1 -11.5t6.5 -5zM228 637q5 0 9 -0.5t7 1.5q6 5 7 14.5t1 17.5t-1 17.5t-7 14.5q-3 2 -7 2h-9v-67zM372 369q7 0 13.5 6.5t11 16t8 19.5t6.5 17q-11 6 -21 -3.5t-15 -18.5l-4 -8t-4.5 -12.5t-1 -11.5t6.5 -5zM549 403q-6 -10 -7 -16q11 0 25 11t14 25q0 8 -5.5 7.5
t-10.5 -4.5t-9 -10.5t-7 -12.5zM542 643l-3 -28h18q-2 21 -4.5 41.5t-3.5 41.5q-1 -13 -3 -27zM1236 563q0 -8 -4 -11.5t-8.5 -3.5t-8.5 3.5t-4 11.5q0 7 4 10.5t8.5 3.5t8.5 -3.5t4 -10.5zM679 456q-4 -8 -11.5 -5t-5.5 11q3 10 12 7t5 -13zM332 456q-3 -8 -10.5 -5
t-5.5 11q1 5 5 6.5t7.5 0.5t5 -4.5t-1.5 -8.5zM1216 367q-4 -8 -11.5 -4.5t-3.5 11.5q4 9 11.5 5t3.5 -12zM1237 421q-3 -9 -11 -5.5t-3 12.5q4 7 11 4t3 -11z" />
    <glyph glyph-name="nine" unicode="9" horiz-adv-x="1272" 
d="M364 266h43q5 -60 8.5 -118t5.5 -117q3 45 5.5 89t7.5 89l6 57h40q5 -48 9 -96l8 -96l3 -43q3 47 4.5 93t5.5 91q2 13 2.5 25.5t1.5 25.5h31l-21 -283h-47q-5 56 -9.5 112t-6.5 113q-2 -42 -5 -84t-7 -84l-4 -57h-48l-12 159l-12 -159h-46l-10 112t-7 113
q-2 -42 -4.5 -84t-6.5 -84l-5 -57h-47l-12 162l-12 -162h-47q-5 56 -9.5 111.5t-6.5 112.5q-1 -43 -4 -84t-7 -83l-6 -57h-46l-22 283h31q5 -60 8.5 -118t5.5 -117l6 89t8 89l6 57h39q6 -48 10 -96t7 -96l3 -43q3 47 4.5 93t5.5 91l5 51h42q5 -60 8.5 -118t6.5 -117
q3 45 5.5 89t6.5 89q3 14 4 28t3 29h40q5 -48 9 -96l8 -96l2 -43q3 47 5 93t6 91zM1227 876h-1153v26h1153v-26zM1227 -197h-1153v25h1153v-25zM754 -17h-36v283h37h22t21 -5q18 -9 23 -31.5t5 -42.5v-22t-2.5 -25.5t-8 -22.5t-14.5 -14l31 -120h-40l-21 113h-17v-113z
M1001 46v-63h-33v283h32l25.5 -98.5t22.5 -99.5q-4 50 -4.5 99t-0.5 99h33v-283h-34l-25 96.5t-22 97.5q2 -33 3 -65.5t3 -65.5zM617 -17h-34l30 283h58l31 -283h-36l-7 67h-34zM1175 160q1 14 0 28.5t-5 26.5q-4 9 -11.5 14.5t-14.5 -5.5q-6 -10 -7 -24.5t-2 -26.5
q-1 -14 -1 -27v-26v-26.5t2 -26.5q0 -11 2 -25.5t11 -21.5q11 -7 16.5 2t8 23.5t3 29t0.5 19.5h-26v33h59v-142h-26l-1 38q-2 -12 -7.5 -25t-17.5 -17q-11 -4 -22 2t-18 15q-14 20 -16.5 49t-2.5 52q-2 29 -1 60t8 59q2 12 7.5 24t15.5 18q21 14 46 4q12 -6 19 -17.5t10 -26
t4 -29.5t1 -27zM227 409q5 9 12.5 16t16.5 9q8 3 16 -1t18 -1l-19 -39q-2 -4 -5.5 -12t0.5 -10q5 -5 11.5 2t11.5 15q2 6 5 11.5l6 11.5l8 21q9 0 15 5l-19 -44q-2 -4 -5 -11.5t1 -10.5q4 -5 10 1.5t10 14.5q4 11 9.5 22l10.5 22t9 21t9 21q7 -3 14 3l-27 -64q-2 -6 -5 -12
t-5 -11q-1 -3 -2.5 -7t-1.5 -7t1 -4.5t6 0.5t9.5 7.5t8.5 13.5q2 5 4 9l4 8q5 9 12 16t17 9q9 3 17 -1t17 -1q-5 -10 -9 -19l-9 -20q-2 -4 -5 -12t0 -10q3 -3 6.5 -1t7 6.5t6.5 9.5t5 8l1 2l33 77q8 0 13 3l-10 -27.5t-13 -25.5q7 8 16.5 13t16.5 -7q7 -11 1 -27t-13 -24
q6 -1 11.5 2t10.5 8q4 11 9 21.5l10 21.5l18 42q5 -2 14 3q-8 -16 -14 -32t-14 -32q-2 -6 -4.5 -12t-5.5 -11q-1 -3 -2 -7t-1 -7t1 -4.5t6 0.5t10.5 9t8.5 14q3 17 13 25q3 4 9.5 9t14 7.5t13.5 0.5t8 -12q1 -9 -3.5 -17t-12 -13.5t-16.5 -8.5t-16 -3q-1 -7 3.5 -11t10.5 -4
q13 0 24 8.5t18 20.5l4 -2q-8 -16 -23.5 -26t-31.5 -6q-17 3 -17 20q-4 -6 -8 -11t-9 -7q-7 -5 -15 -1.5t-6 14.5v2q-2 -2 -4 -2q-4 -4 -12 -4h-7q-2 0 -3 -2t-3 -2q-10 -8 -22 -6.5t-18 12.5q-8 -10 -17 -13t-13 3.5t0 14.5q-5 -8 -14 -15.5t-18 -0.5q-7 4 -7 16
q-7 -12 -14 -16q-8 -5 -15.5 -2t-6.5 12l-5.5 -5.5t-5.5 -4.5q-8 -5 -15.5 -2t-5.5 13l-9 -7.5t-9 -5.5q-9 -3 -12.5 3.5t0.5 14.5h-1q-5 -8 -13.5 -15.5t-18.5 -0.5q-5 2 -6 7.5t0 10.5q-4 -4 -10 -7q-4 -2 -13 -2q-5 0 -6 -1t-4 -3q-11 -8 -24 -7t-9 20q2 14 8 26.5
l11 23.5q6 0 14 5q-4 -9 -7 -17.5t-7 -16.5q-1 -3 -4 -8.5t-5 -11.5t-2 -10.5t4 -5.5q9 -2 17.5 9.5t11.5 17.5q5 9 8 20t3 22q9 2 10 -6t-1 -15q-4 -19 -18 -36q8 -3 15 3t11 14zM961 547q-11 0 -17.5 6t-10 15t-5 19.5t-1.5 20.5q-2 22 -2 45.5t6 45.5q3 10 8.5 17.5
t14.5 8.5q20 5 32 -15q9 -20 9 -43.5v-44.5q0 -11 -0.5 -24t-4 -24t-10.5 -19t-19 -8zM396 547q-11 0 -17.5 6t-10.5 15t-5 19.5l-2 20.5q-1 22 -1 45.5t6 45.5q3 10 8 17.5t16 8.5q21 5 31 -15q8 -20 8.5 -43.5t0.5 -44.5q0 -11 -1 -24t-4.5 -24t-10 -19t-18.5 -8zM883 -17
h-36v283h36v-283zM228 548h-21v176h23h15t13 -3q10 -6 13 -19t3 -24v-14.5t-1.5 -17t-4.5 -15t-9 -9.5l18 -74h-24l-13 70q-3 0 -6 0.5t-6 0.5v-71zM1025 587v-39h-21v176h20l16 -61t14 -62q-2 30 -2.5 61t-0.5 62h21v-176h-22q-8 29 -15.5 59.5t-13.5 61.5q2 -21 2.5 -41
t1.5 -41zM89 548h-23v176h35q25 0 33 -30q4 -16 3 -37.5t-9 -37.5q-7 -11 -17.5 -12t-21.5 -1v-58zM460 587v-39h-21v176h20l15.5 -61t13.5 -62q-2 30 -2.5 61t-0.5 62h21v-176h-22l-14.5 59.5t-13.5 61.5q2 -21 2 -41t2 -41zM533 548h-21l18 176h36l19 -176h-21l-5 43h-22z
M714 547q-16 0 -23.5 10t-10 24t-2 30.5t0.5 29.5v83h23v-123q0 -5 -0.5 -11.5t1.5 -11.5q2 -6 7 -8.5t10 2.5t5.5 15t0.5 17q1 14 0.5 28t-0.5 28v64h22v-83q0 -13 0.5 -29.5t-1.5 -30.5t-9.5 -24t-23.5 -10zM1110 433q7 -1 14 4l-5.5 -12.5t-7.5 -10.5v-2q7 8 15.5 16
t17.5 9q12 0 11.5 -11t-3.5 -19q-2 -2 -4.5 -7t-5.5 -10t-4.5 -10t0.5 -8q2 -4 5.5 -2t7 6t7 9l5.5 8l20 44h-8l3 7h8l8 19q6 0 14 4l-10 -23h15l-4 -7h-14l-18 -43q-2 -5 -5 -11.5t-1 -11.5q3 -3 7 -0.5t8.5 8t7.5 10.5t4 7l4 -2q-5 -9 -12 -19.5t-18 -12.5q-10 -3 -13 1.5
t-1 11.5l-6 -6t-6 -5q-7 -5 -14.5 -2.5t-6.5 13.5q1 10 6.5 18.5t8.5 16.5q1 4 3.5 11.5t-4.5 6.5q-11 -2 -20.5 -16t-14.5 -24q-4 -6 -6.5 -13l-5.5 -15h-12l7 19l-1 -1q-3 -3 -10 -5h-9q-5 -7 -11 -9t-9 -2q-9 -6 -18 3q-8 8 -6.5 20.5t5.5 23.5q5 11 14 19.5t22 8.5
q10 0 14.5 -7t4.5 -16.5t-3.5 -19.5t-7.5 -16q13 0 20 13zM309 630q-11 8 -18 19t-9 26q-2 13 2 26t16 20q9 5 22 4.5t21 -10.5q9 -10 9 -22.5v-24.5q-6 0 -12 0.5t-11 0.5q0 7 0.5 15t-4.5 13q-9 10 -14.5 2t-6.5 -18q0 -14 7.5 -21.5t15.5 -14.5t14.5 -15.5t8.5 -19.5
q2 -12 0.5 -24t-7 -21.5t-14.5 -14.5t-21 -3q-21 4 -23.5 22t-1.5 37h21q0 -5 -0.5 -11t0.5 -13q2 -7 7.5 -11t11.5 1q5 5 6 14.5t-1 16.5q-2 9 -7 15.5t-12 11.5zM785 630q-23 15 -27 45q-1 13 2.5 26t14.5 20q10 5 22.5 4.5t20.5 -10.5q9 -10 8.5 -22.5t-0.5 -24.5
q-5 0 -10 0.5t-10 0.5q0 7 0.5 15t-5.5 13q-9 10 -14.5 2t-6.5 -18q0 -14 7 -21.5t15 -14.5q18 -13 24 -35q2 -12 0.5 -24t-7 -21.5t-14.5 -14.5t-22 -3q-10 2 -15 8t-7.5 14t-2.5 18v19h22q0 -5 -1 -11t1 -13t7 -11t11 1q7 5 8 14.5t-1 16.5q-2 9 -7.5 15.5t-12.5 11.5z
M201 548h-56v176h56v-24h-34v-49h28v-26h-28v-53h34v-24zM891 548h-55v176h55v-24h-32v-49h27v-26h-27v-53h32v-24zM129 400l-42 -3q-5 -8 -9.5 -19t-5.5 -22q-8 -2 -9.5 3t0 13t4.5 15.5t5 9.5l-14 -1l-5 10h23q11 20 27 39.5t36 30.5q6 5 16 5.5t12 -11.5q2 -6 -0.5 -12.5
l-4.5 -11.5q-5 -11 -9.5 -22t-9.5 -22q-3 -8 -9.5 -20.5t-2.5 -21.5q-9 -2 -11 3t-0.5 12t4.5 14.5t5 10.5zM1185 724h21l-10 -49.5l-10 -49.5q-5 -18 -3.5 -38t1.5 -39h-24q0 19 0.5 39t-3.5 38l-10 49.5l-10 49.5h21l8 -44.5t6 -46.5q1 24 5 46zM815 363q-7 5 -5.5 13
t4.5 16l17 40q7 0 14 5l-13 -31q-2 -5 -8 -17t-2 -17q6 -6 14.5 2.5t11.5 13.5t5 9.5t6 9.5l12 27q3 0 6 1l6 2q-4 -11 -8.5 -21.5l-9.5 -21.5q-2 -5 -5 -11.5t0 -11.5q4 -6 10 1t11 15q4 11 9.5 22l10.5 22q4 11 8.5 21l9.5 21q6 -3 14 3l-28 -64l-10 -23q-1 -3 -2 -7
t-1.5 -7t1 -4.5t5.5 0.5q9 3 16 15q4 11 9.5 22.5l10.5 22.5l8 21t9 21q7 -3 15 3l-28 -64l-10 -23q-1 -3 -2 -7t-1.5 -7t0.5 -4.5t6 0.5q7 2 12 10t8 15l4 -2q-5 -9 -10 -17t-13 -13q-7 -5 -14 -2t-6 12q-7 -7 -13 -10q-7 -5 -14 -2t-6 13q-5 -6 -9.5 -10.5t-10.5 -4.5
q-10 0 -11 7t2 14q-6 -8 -16.5 -16t-18.5 -2zM1135 548h-55v176h22v-154h33v-22zM645 548h-55v176h23v-154h32v-22zM754 125q6 0 12.5 -1t11.5 4q9 9 11 23.5t2 25.5q0 13 -2 28t-10 24q-5 5 -12 4.5t-13 -0.5v-108zM687 433q6 -1 15 4q-4 -7 -6.5 -12.5t-6.5 -10.5v-2
q6 8 15 16t18 9q12 0 11.5 -11t-4.5 -19q-1 -2 -4 -7t-5.5 -10t-4.5 -10t0 -8q2 -5 6.5 -2t8.5 8t7.5 10.5t4.5 7.5l4 -2l-10 -16.5t-13 -13.5q-7 -5 -14 -2.5t-6 13.5q1 10 6.5 18.5t8.5 16.5l3 11.5t-5 6.5q-11 -2 -20 -16t-14 -24l-12 -28h-12l4 11l-4 -4t-4 -3
q-8 -5 -15.5 -1.5t-5.5 14.5q0 9 4.5 17.5t7.5 16.5q7 9 10 21q10 0 15 5l-19 -44l-5.5 -11.5t-0.5 -10.5t7.5 0t8.5 8t7 10t4 7zM961 704q-7 0 -10 -9t-4 -20.5t-0.5 -23t0.5 -15.5q0 -5 -0.5 -16t0.5 -22t4 -20t10 -9q6 0 9 9t4 20t0.5 22t-0.5 16q0 4 0.5 15.5t-0.5 23
t-4 20.5t-9 9zM396 704q-7 0 -10 -9t-4 -20.5t-0.5 -23t0.5 -15.5q0 -5 -0.5 -16t0.5 -22t4 -20t10 -9q6 0 8.5 9t3.5 20t0.5 22t-0.5 16q0 4 0.5 15.5t-0.5 23t-3.5 20.5t-8.5 9zM1212 724h23q0 -32 -1 -65t-3 -66h-15q-2 33 -3 65.5t-1 65.5zM154 475q-8 2 -19 -8t-16 -16
q-16 -20 -29 -45h43l13 31q1 3 4 9t5 12t2.5 11t-3.5 6zM1058 460q-5 -4 -6.5 0t-0.5 9q-5 2 -9 0t-7 -6.5t-5 -9.5t-3 -9h14l-3 -7h-14l-45 -104q-7 0 -14 -3l47 107h-16l3 7h16q3 9 8 18.5t15 11.5q6 2 15 -1q2 -2 6 -5.5t-1 -7.5zM850 460q-5 -4 -7 0t-1 9q-5 2 -9 0
t-7 -6.5t-5 -9.5t-3 -9h14l-3 -7h-14l-45 -104q-7 0 -13 -3l45 107h-15l4 7h15q3 9 8 18.5t15 11.5q6 2 15 -1l5.5 -5.5t0.5 -7.5zM633 136q-2 -11 -3 -23t-3 -23h30q-3 34 -8.5 67.5t-7.5 68.5q-1 -23 -3.5 -45t-4.5 -45zM89 626q5 0 9.5 -0.5t7.5 4.5q5 6 5.5 16.5
t0.5 18.5t-0.5 18t-5.5 16q-3 5 -7.5 5h-9.5v-78zM1065 431q-8 0 -15.5 -10t-11.5 -22.5t-4 -22.5t8 -10q6 0 13 10.5t11.5 22.5t5 22t-6.5 10zM945 7q0 -12 -6.5 -17.5t-14 -5.5t-13.5 5.5t-6 17.5t6 17.5t13.5 5.5t14 -5.5t6.5 -17.5zM572 7q0 -12 -6.5 -17.5t-14 -5.5
t-13.5 5.5t-6 17.5t6 17.5t13.5 5.5t14 -5.5t6.5 -17.5zM470 428q-7 0 -12.5 -6t-10 -15t-8.5 -18.5t-7 -15.5q6 -5 11.5 -4.5t10.5 4.5t9 9t6 10q1 3 4 9t4 12t0 10.5t-7 4.5zM235 369q7 0 13 6.5t10.5 16t8 19.5t6.5 17q-10 6 -20 -3.5t-15 -18.5l-4 -8t-4.5 -12.5
t-1 -11.5t6.5 -5zM228 637q5 0 9 -0.5t7 1.5q6 5 7 14.5t1 17.5t-1 17.5t-7 14.5q-3 2 -7 2h-9v-67zM372 369q7 0 13.5 6.5t11 16t8 19.5t6.5 17q-11 6 -21 -3.5t-15 -18.5l-4 -8t-4.5 -12.5t-1 -11.5t6.5 -5zM549 403q-6 -10 -7 -16q11 0 25 11t14 25q0 8 -5.5 7.5
t-10.5 -4.5t-9 -10.5t-7 -12.5zM542 643l-3 -28h18q-2 21 -4.5 41.5t-3.5 41.5q-1 -13 -3 -27zM1236 563q0 -8 -4 -11.5t-8.5 -3.5t-8.5 3.5t-4 11.5q0 7 4 10.5t8.5 3.5t8.5 -3.5t4 -10.5zM679 456q-4 -8 -11.5 -5t-5.5 11q3 10 12 7t5 -13zM332 456q-3 -8 -10.5 -5
t-5.5 11q1 5 5 6.5t7.5 0.5t5 -4.5t-1.5 -8.5zM1216 367q-4 -8 -11.5 -4.5t-3.5 11.5q4 9 11.5 5t3.5 -12zM1237 421q-3 -9 -11 -5.5t-3 12.5q4 7 11 4t3 -11z" />
    <glyph glyph-name="parenleft" unicode="(" horiz-adv-x="731" 
d="M205 315q0 100 35 175t90.5 128.5t124 86t135.5 46.5l8 -30q-57 -13 -117.5 -43t-110 -79.5t-81.5 -120t-32 -163.5t32 -163.5t81.5 -120t110 -79.5t117.5 -43l-8 -30q-67 14 -135.5 46.5t-124 86t-90.5 128.5t-35 175z" />
    <glyph glyph-name="hyphen" unicode="-" horiz-adv-x="878" 
d="M152 332h586v-43h-586v43z" />
    <glyph glyph-name="period" unicode="." horiz-adv-x="368" 
d="M149 45q0 20 11.5 31t29.5 11t30 -11t12 -31t-12 -30.5t-30 -10.5t-29.5 10.5t-11.5 30.5z" />
    <glyph glyph-name="slash" unicode="/" horiz-adv-x="1046" 
d="M1027 810l-943 -810h-64l943 810h64z" />
    <glyph glyph-name="comma" unicode="," horiz-adv-x="380" 
d="M164 -74q9 22 16.5 42.5t9.5 37.5q-11 -2 -23 6.5t-15 20.5q-5 19 5 36.5t33 17.5q17 0 28.5 -8t14 -27t-5 -49.5t-28.5 -76.5h-35z" />
    <glyph glyph-name="exclam" unicode="!" horiz-adv-x="504" 
d="M224 45q0 20 11.5 31t29.5 11t30 -11t12 -31t-12 -30.5t-30 -10.5t-29.5 10.5t-11.5 30.5zM244 230l-5 570h52l-5 -570h-42z" />
    <glyph glyph-name="question" unicode="?" horiz-adv-x="983" 
d="M450 45q0 20 12 31t29 11q18 0 30 -11t12 -31t-12 -30.5t-30 -10.5q-17 0 -29 10.5t-12 30.5zM470 230q0 46 32.5 76.5t81 52.5t105.5 41t106 42t81.5 55t33.5 81q0 34 -20 69.5t-70.5 64.5t-135 47t-213.5 18q-92 0 -168 -16.5t-130 -45t-84 -67t-30 -83.5l-52 3
q0 52 33 97.5t93 80t145.5 54.5t190.5 20q142 0 237 -20.5t151.5 -54.5t80 -76.5t23.5 -86.5q0 -60 -33.5 -99.5t-83 -66.5t-108 -46t-108 -38t-83 -42.5t-33.5 -59.5h-42z" />
    <glyph glyph-name="ring" unicode="&#x2da;" horiz-adv-x="648" 
d="M322 623q-84 0 -139.5 10.5t-88.5 27t-47 36t-14 38.5t14 39.5t47 36.5t88.5 26.5t139.5 10.5t139.5 -10.5t88.5 -26.5t47 -36.5t14 -39.5t-14 -38.5t-47 -36t-88.5 -27t-139.5 -10.5zM322 652q68 0 116 8t78 20.5t44 27t14 27.5q0 12 -14 26.5t-44.5 27.5t-78.5 21.5
t-115 8.5q-68 0 -116 -8.5t-78 -21.5t-44 -27.5t-14 -26.5q0 -13 14 -27.5t44 -27t78 -20.5t116 -8z" />
    <glyph glyph-name="dieresis" unicode="&#xa8;" horiz-adv-x="485" 
d="M62 730q0 18 10.5 27.5t26.5 9.5t26.5 -9.5t10.5 -27.5q0 -17 -10.5 -27t-26.5 -10t-26.5 10t-10.5 27zM348 730q0 18 10.5 27.5t26.5 9.5t26.5 -9.5t10.5 -27.5q0 -17 -10.5 -27t-26.5 -10t-26.5 10t-10.5 27z" />
    <glyph glyph-name="dotaccent" unicode="&#x2d9;" horiz-adv-x="198" 
d="M62 730q0 18 10.5 27.5t26.5 9.5t26.5 -9.5t10.5 -27.5q0 -17 -10.5 -27t-26.5 -10t-26.5 10t-10.5 27z" />
    <glyph glyph-name="breve" unicode="&#x2d8;" horiz-adv-x="642" 
d="M640 783q0 -24 -15.5 -45.5t-53 -37t-99 -24.5t-152.5 -9q-92 0 -153 9t-98.5 24.5t-53 37t-15.5 45.5h41q0 -17 14 -32t47 -26t86.5 -17.5t131.5 -6.5t131.5 6.5t86.5 17.5t47 26t14 32h41z" />
    <glyph glyph-name="macron" unicode="&#xaf;" horiz-adv-x="734" 
d="M27 753h695v-42h-695v42z" />
    <glyph glyph-name="parenright" unicode=")" horiz-adv-x="731" 
d="M516 315q0 -100 -35 -175t-90 -128.5t-123.5 -86t-135.5 -46.5l-8 30q57 13 117.5 43t110 79.5t81.5 120t32 163.5t-32 163.5t-81.5 120t-110 79.5t-117.5 43l8 30q67 -14 135.5 -46.5t123.5 -86t90 -128.5t35 -175z" />
    <glyph glyph-name="caron" unicode="&#x2c7;" horiz-adv-x="734" 
d="M660 767l-291 -114l-291 114v40l291 -115l291 115v-40z" />
    <glyph glyph-name="circumflex" unicode="&#x2c6;" horiz-adv-x="734" 
d="M660 653l-291 115l-291 -115v40l291 114l291 -114v-40z" />
    <glyph glyph-name="asciicircum" unicode="^" horiz-adv-x="834" 
d="M710 588l-291 177l-291 -177v44l291 175l291 -175v-44z" />
    <glyph glyph-name="acute" unicode="&#xb4;" horiz-adv-x="619" 
d="M50 637l428 197l92 -1l-441 -196h-79z" />
    <glyph glyph-name="tilde" unicode="&#x2dc;" horiz-adv-x="781" 
d="M81 720q58 39 103 53t82 13t68.5 -13t62.5 -26t63 -25t70 -10t84 18.5t105 60.5v-38q-63 -44 -111 -61.5t-86 -19t-69 10t-60.5 25l-59.5 26t-66.5 14t-81.5 -12.5t-104 -52v37z" />
    <glyph glyph-name="asciitilde" unicode="~" horiz-adv-x="814" 
d="M91 319q57 39 102 53t82.5 13t69 -13t62 -26t62.5 -25t70 -10t84 18.5t105 60.5v-38q-63 -44 -111 -61.5t-86 -19t-69 9.5t-60.5 25t-59.5 26.5t-66 14t-81 -12.5t-104 -53v38z" />
    <glyph glyph-name="endash" unicode="&#x2013;" horiz-adv-x="1273" 
d="M50 332h1173v-43h-1173v43z" />
    <glyph glyph-name="emdash" unicode="&#x2014;" horiz-adv-x="1859" 
d="M50 332h1759v-43h-1759v43z" />
    <glyph glyph-name="fraction" unicode="&#x2044;" horiz-adv-x="660" 
d="M834 810l-944 -810h-63l943 810h64z" />
    <glyph glyph-name="percent" unicode="%" horiz-adv-x="1171" 
d="M1141 730l-1044 -730h-67l1043 730h68zM340 339q-61 0 -112.5 14t-89.5 40.5t-59.5 65t-21.5 87.5q0 48 21.5 85.5t59.5 64t89.5 40.5t112.5 14t112.5 -14t89 -40.5t58.5 -64t21 -85.5q0 -49 -21 -87.5t-58.5 -65t-89 -40.5t-112.5 -14zM340 376q50 0 93.5 11t75.5 33
t50 53.5t18 72.5q0 40 -18 71t-50 52.5t-75.5 33t-93.5 11.5t-93.5 -11.5t-75.5 -33t-50 -52.5t-18 -71q0 -41 18 -72.5t50 -53.5t75.5 -33t93.5 -11zM839 -19q-61 0 -112.5 14t-89 40.5t-59 65t-21.5 86.5t21.5 86t59 64.5t89 40.5t112.5 14t112.5 -14t89 -40.5t58.5 -64.5
t21 -86t-21 -86.5t-58.5 -65t-89 -40.5t-112.5 -14zM839 17q50 0 93.5 11.5t75.5 33t50 53t18 72.5q0 40 -18 71t-50 53t-75.5 33.5t-93.5 11.5t-93.5 -11.5t-75.5 -33.5t-50 -53t-18 -71q0 -41 18 -72.5t50 -53t75.5 -33t93.5 -11.5z" />
    <glyph glyph-name="grave" unicode="`" horiz-adv-x="619" 
d="M491 637l-441 196l92 1l428 -197h-79z" />
    <glyph glyph-name="quotesingle" unicode="'" horiz-adv-x="487" 
d="M235 515l-4 285h51l-4 -285h-43z" />
    <glyph glyph-name="quotedbl" unicode="&#x22;" horiz-adv-x="766" 
d="M235 515l-4 285h53l-5 -285h-44zM507 515l-6 285h53l-4 -285h-43z" />
    <glyph glyph-name="underscore" unicode="_" horiz-adv-x="979" 
d="M50 -68h879v-42h-879v42z" />
    <glyph glyph-name="minus" unicode="&#x2212;" horiz-adv-x="979" 
d="M50 382h879v-43h-879v43z" />
    <glyph glyph-name="plus" unicode="+" horiz-adv-x="979" 
d="M50 382h418v268h43v-268h418v-43h-418v-268h-43v268h-418v43z" />
    <glyph glyph-name="equal" unicode="=" horiz-adv-x="979" 
d="M50 482h879v-43h-879v43zM50 282h879v-43h-879v43z" />
    <glyph glyph-name="colon" unicode=":" horiz-adv-x="368" 
d="M149 45q0 20 11.5 31t29.5 11t30 -11t12 -31t-12 -30.5t-30 -10.5t-29.5 10.5t-11.5 30.5zM149 523q0 20 11.5 31t29.5 11t30 -11t12 -31t-12 -30.5t-30 -10.5t-29.5 10.5t-11.5 30.5z" />
    <glyph glyph-name="semicolon" unicode=";" horiz-adv-x="368" 
d="M149 523q0 20 11.5 31t29.5 11t30 -11t12 -31t-12 -30.5t-30 -10.5t-29.5 10.5t-11.5 30.5zM164 -74q9 22 16.5 42.5t9.5 37.5q-11 -2 -23 6.5t-15 20.5q-5 19 5 36.5t33 17.5q17 0 28.5 -8t14 -27t-5 -49.5t-28.5 -76.5h-35z" />
    <glyph glyph-name="quoteright" unicode="&#x2019;" horiz-adv-x="380" 
d="M164 519q4 4 10.5 25t12.5 47t10 52.5t3 41.5q-21 -6 -33 4t-15 22q-5 18 5 35.5t33 18.5q18 0 31.5 -12t17.5 -41t-5 -76t-34 -117h-36z" />
    <glyph glyph-name="quoteleft" unicode="&#x2018;" horiz-adv-x="380" 
d="M226 764q-4 -4 -10.5 -25t-13 -47t-10.5 -52.5t-2 -41.5q21 6 33 -4t15 -22q5 -18 -5 -35.5t-33 -18.5q-18 0 -31.5 12t-17.5 41t4.5 76.5t34.5 116.5h36z" />
    <glyph glyph-name="quotedblright" unicode="&#x201d;" horiz-adv-x="607" 
d="M164 519q4 4 10.5 25t12.5 47t10 52.5t3 41.5q-21 -6 -33 4t-15 22q-5 18 5 35.5t33 18.5q18 0 31.5 -12t17.5 -41t-5 -76t-34 -117h-36zM378 519q4 4 10.5 25t12.5 47t10 52.5t2 41.5q-21 -6 -32.5 4t-15.5 22q-5 18 5 35.5t33 18.5q18 0 31.5 -12t17.5 -41t-5 -76
t-34 -117h-35z" />
    <glyph glyph-name="quotedblleft" unicode="&#x201c;" horiz-adv-x="607" 
d="M439 764q-4 -4 -10.5 -25t-12.5 -47t-10.5 -52.5t-2.5 -41.5q22 6 33.5 -4t14.5 -22q6 -18 -4 -35.5t-34 -18.5q-18 0 -31.5 12t-17 41t5 76.5t34.5 116.5h35zM226 764q-4 -4 -10.5 -25t-13 -47t-10.5 -52.5t-2 -41.5q21 6 33 -4t15 -22q5 -18 -5 -35.5t-33 -18.5
q-18 0 -31.5 12t-17.5 41t4.5 76.5t34.5 116.5h36z" />
    <glyph glyph-name="quotesinglbase" unicode="&#x201a;" horiz-adv-x="380" 
d="M164 -81q4 4 10.5 25t12.5 47t10 52.5t3 41.5q-21 -6 -33 4t-15 22q-5 18 5 35.5t33 18.5q18 0 31.5 -12t17.5 -41t-5 -76t-34 -117h-36z" />
    <glyph glyph-name="quotedblbase" unicode="&#x201e;" horiz-adv-x="607" 
d="M164 -81q4 4 10.5 25t12.5 47t10 52.5t3 41.5q-21 -6 -33 4t-15 22q-5 18 5 35.5t33 18.5q18 0 31.5 -12t17.5 -41t-5 -76t-34 -117h-36zM378 -81q4 4 10.5 25t12.5 47t10 52.5t2 41.5q-21 -6 -32.5 4t-15.5 22q-5 18 5 35.5t33 18.5q18 0 31.5 -12t17.5 -41t-5 -76
t-34 -117h-35z" />
    <glyph glyph-name="florin" unicode="&#x192;" horiz-adv-x="759" 
d="M35 534h244v92q0 53 22 95t75.5 66.5t143.5 29.5t226 -17v-43q-121 23 -201 20t-128 -23t-67.5 -54t-19.5 -74v-92h392v-42h-392v-489q-3 -89 -29.5 -140t-79 -73t-132.5 -19t-189 21v41q99 -17 170.5 -18.5t118 19.5t68.5 69t22 130v459h-244v42z" />
    <glyph glyph-name="at" unicode="@" horiz-adv-x="1199" 
d="M897 -132q-122 -52 -298 -52q-273 0 -411 122.5t-138 351.5t138 351.5t411 122.5t411.5 -122.5t138.5 -351.5q0 -83 -5.5 -138.5t-19 -89.5t-35 -48t-52.5 -14q-38 0 -64 28t-36 103q-14 -34 -42 -61.5t-72 -47.5t-105.5 -31t-142.5 -11q-105 0 -172 14.5t-106 39
t-53.5 56.5t-14.5 68q0 49 30 80.5t79.5 50t112.5 26.5t128.5 12t129 5.5t113 7t79.5 17.5t30 36q0 39 -16.5 70.5t-55 53.5t-101 33.5t-154.5 11.5q-96 0 -159.5 -10.5t-100 -29.5t-50 -46.5t-10.5 -60.5l-45 5q-5 44 11 78t58.5 57.5t114.5 36t180 12.5q107 0 178.5 -13.5
t115 -40.5t62 -66.5t18.5 -90.5v-159q0 -61 4 -99.5t11.5 -61t19.5 -31t27 -8.5q20 0 34 9t23 36t13 77.5t4 133.5q0 216 -127.5 328t-386.5 112q-260 0 -386.5 -112t-126.5 -328q0 -218 126.5 -329t386.5 -111q162 0 274 44zM578 22q94 0 160.5 14t108.5 39.5t62 61.5
t22 79v130q-22 -19 -61.5 -29.5t-90 -16t-107 -8t-113 -6t-107.5 -10.5t-90.5 -21t-63 -36.5t-23.5 -58.5q0 -26 12 -51t45 -44.5t92 -31t154 -11.5z" />
    <glyph glyph-name="less" unicode="&#x3c;" horiz-adv-x="999" 
d="M716 102l-548 229l548 229h108l-557 -229l557 -229h-108z" />
    <glyph glyph-name="greater" unicode="&#x3e;" horiz-adv-x="999" 
d="M168 102l557 229l-557 229h108l548 -229l-548 -229h-108z" />
    <glyph glyph-name="bracketleft" unicode="[" horiz-adv-x="748" 
d="M664 -88v-35h-524v880h524v-35h-474v-810h474z" />
    <glyph glyph-name="bracketright" unicode="]" horiz-adv-x="748" 
d="M514 -88v810h-474v35h524v-880h-524v35h474z" />
    <glyph glyph-name="braceleft" unicode="{" horiz-adv-x="731" 
d="M128 339q56 0 97.5 7.5t68.5 26.5t40 51.5t13 82.5q-1 75 14 123t50.5 76t94.5 38t146 10l8 -34q-77 1 -127.5 -6.5t-80.5 -30t-41 -64t-9 -109.5q2 -54 -12.5 -90.5t-39 -59t-57 -33t-66.5 -12.5q37 -3 69.5 -14.5t57 -35t38 -61t12.5 -91.5q-2 -68 9.5 -108t41.5 -61.5
t80.5 -28t124.5 -6.5l-9 -33q-85 0 -143 9.5t-93.5 36.5t-50.5 74t-15 121q0 51 -12 84t-39 53t-69 28t-101 8v49z" />
    <glyph glyph-name="braceright" unicode="}" horiz-adv-x="731" 
d="M593 290q-59 0 -101 -8t-69 -28t-39.5 -53t-12.5 -84q0 -74 -15 -121t-50.5 -74t-93 -36.5t-142.5 -9.5l-10 33q75 0 125 6.5t80 28t41.5 61.5t9.5 108q-1 54 12.5 91.5t38 61t57 35t69.5 14.5q-34 2 -66 12.5t-57 33t-39.5 59t-12.5 90.5q2 68 -9 109.5t-41 64t-81 30
t-127 6.5l9 34q87 0 145.5 -10t94 -38t50.5 -76t14 -123q0 -50 13 -82.5t40.5 -51.5t69 -26.5t97.5 -7.5v-49v0z" />
    <glyph glyph-name="bar" unicode="|" horiz-adv-x="227" 
d="M88 -200v1010h51v-1010h-51z" />
    <glyph glyph-name="brokenbar" unicode="&#xa6;" horiz-adv-x="227" 
d="M88 345v465h51v-465h-51zM139 258v-458h-51v458h51z" />
    <glyph glyph-name="section" unicode="&#xa7;" horiz-adv-x="964" 
d="M912 307q0 -28 -15.5 -55t-50.5 -50q31 -17 48.5 -40t17.5 -55q0 -33 -24 -66t-75.5 -58.5t-131.5 -41.5t-192 -16q-108 0 -191.5 12.5t-139 37.5t-82 63t-21.5 89l47 2q-5 -42 19 -72.5t74 -50t124.5 -29t170.5 -9.5q100 0 170.5 13.5t115.5 34.5t65.5 46t20.5 48
q0 36 -34.5 57.5t-90.5 34t-127.5 18.5l-146.5 12t-146.5 14t-127.5 24t-90.5 42.5t-34.5 70.5q0 28 18.5 54.5t58.5 49.5q-36 16 -56.5 39t-20.5 57q0 31 23 61t72.5 53.5t128 38t190.5 14.5q93 0 171.5 -10t134.5 -32t86 -56.5t25 -83.5l-49 -3q5 41 -22 68t-77.5 43.5
t-119.5 23.5t-148 7q-99 0 -168 -12t-112 -30.5t-62.5 -41.5t-19.5 -44q0 -33 34 -52.5t90 -30.5t127.5 -17t146 -11.5t146 -14.5t127.5 -26.5t90 -46t34 -73.5zM864 309q0 36 -33 57.5t-88 34t-125 19t-143.5 12t-145 13t-128.5 22.5q-45 -20 -65.5 -43t-20.5 -45
q0 -34 35 -53.5t92.5 -31t130.5 -17l148.5 -11.5t147.5 -15.5t127 -27.5q34 20 51 42.5t17 43.5z" />
    <glyph glyph-name="backslash" unicode="\" horiz-adv-x="1046" 
d="M84 810l943 -810h-64l-943 810h64z" />
    <glyph glyph-name="multiply" unicode="&#xd7;" horiz-adv-x="999" 
d="M119 122l318 229l-318 229h67l287 -211l288 211h66l-317 -229l317 -229h-67l-287 209l-287 -209h-67z" />
    <glyph glyph-name="guilsinglleft" unicode="&#x2039;" horiz-adv-x="999" 
d="M716 102l-548 229l548 229h108l-557 -229l557 -229h-108z" />
    <glyph glyph-name="guilsinglright" unicode="&#x203a;" horiz-adv-x="999" 
d="M168 102l557 229l-557 229h108l548 -229l-548 -229h-108z" />
    <glyph glyph-name="guillemotleft" unicode="&#xab;" horiz-adv-x="1115" 
d="M598 102l-548 229l548 229h108l-557 -229l557 -229h-108zM957 102l-548 229l548 229h108l-557 -229l557 -229h-108z" />
    <glyph glyph-name="guillemotright" unicode="&#xbb;" horiz-adv-x="1115" 
d="M409 102l558 229l-558 229h108l548 -229l-548 -229h-108zM50 102l558 229l-558 229h108l548 -229l-548 -229h-108z" />
    <glyph glyph-name="asterisk" unicode="*" horiz-adv-x="993" 
d="M57 372h370l-235 208h67l228 -206l230 206h66l-235 -208h385v-43h-384l234 -207h-67l-229 206l-228 -206h-67l234 207h-369v43z" />
    <glyph glyph-name="numbersign" unicode="#" horiz-adv-x="976" 
d="M50 482h168v157h47v-157h446v157h47v-157h168v-40h-168v-163h168v-40h-168v-157h-47v157h-446v-157h-47v157h-168v40h168v163h-168v40zM265 279h446v163h-446v-163z" />
    <glyph glyph-name="dollar" unicode="$" horiz-adv-x="1186" 
d="M54 555q0 31 20.5 59t64 51t111 40t160.5 25v72h47v-68q29 2 60.5 3t65.5 1q61 0 117 -3v67h47v-71q100 -9 172.5 -28t119 -46t67 -61t16.5 -72l-51 -3q5 38 -22 71t-87 57t-154.5 37.5t-224.5 13.5q-126 0 -216.5 -11.5t-148.5 -31.5t-85 -46.5t-27 -56.5
q0 -42 43.5 -69.5t115 -46t163 -31l186.5 -24.5t186.5 -27t163 -38t115 -57.5t43.5 -86.5q0 -32 -22 -61.5t-67.5 -54.5t-116.5 -43.5t-169 -26.5v-70h-47v67q-50 -3 -106 -3q-37 0 -71 1.5t-66 3.5v-69h-47v74q-95 10 -164 30.5t-113 48.5t-64 62t-15 72l52 3
q-5 -38 22 -72.5t87 -60t154.5 -40.5t225.5 -15q126 0 216.5 13t148 34.5t84.5 49.5t27 58q0 35 -28.5 59.5t-77.5 42.5t-114 30t-138 22t-150.5 18.5t-150.5 20t-138 26t-114 36.5t-77.5 52.5t-28.5 72.5z" />
    <glyph glyph-name="yen" unicode="&#xa5;" horiz-adv-x="1106" 
d="M113 254h415v9l-503 457h63l463 -420l468 420h63l-503 -457v-9h414v-34h-414v-64h414v-35h-414v-121h-51v121h-415v35h415v64h-415v34z" />
    <glyph glyph-name="sterling" unicode="&#xa3;" horiz-adv-x="945" 
d="M114 344h678v-38h-678v-268h804v-38h-856v306h-47v38h47v106q0 143 101.5 215.5t309.5 72.5q98 0 166.5 -21t112 -55.5t65 -80t24.5 -93.5l-51 -3q-5 40 -22 78.5t-53.5 69t-95 49t-146.5 18.5q-93 0 -160.5 -17t-111.5 -49t-65.5 -78.5t-21.5 -105.5v-106z" />
    <glyph glyph-name="Euro" unicode="&#x20ac;" horiz-adv-x="1156" 
d="M13 409h43q10 87 54.5 149.5t115.5 102t163.5 58.5t198.5 19q111 0 201 -21t154 -55.5t100.5 -80t39.5 -93.5l-52 -3q-5 40 -37 78.5t-89 69t-137 49t-180 18.5q-95 0 -178 -17t-147 -52t-104.5 -90.5t-50.5 -131.5h620v-32h-623v-17v-20.5t2 -19.5h621v-31h-617
q14 -71 56 -122t105 -83.5t143.5 -48t172.5 -15.5q105 0 186 20t137.5 52t87 71t33.5 78l52 -3q-4 -48 -38.5 -94t-97.5 -82t-154 -58t-206 -22q-103 0 -193 17.5t-160 55t-116 95.5t-60 139h-46v31h41q-1 10 -1 19.5v20.5v17h-40v32z" />
    <glyph glyph-name="cent" unicode="&#xa2;" horiz-adv-x="962" 
d="M846 469q-8 39 -37.5 69t-76.5 50t-110 30.5t-139 10.5q-90 0 -160 -17.5t-119 -51.5t-74.5 -84.5t-25.5 -116.5q0 -67 25.5 -117.5t74.5 -84.5t119 -51t160 -17q76 0 139 11.5t110 33t76 53t37 70.5l49 -2q-8 -49 -40 -86.5t-83 -64t-118.5 -41t-146.5 -16.5v-107h-51
v107q-93 2 -167.5 22t-127 58.5t-80.5 96.5t-28 135t28 134.5t80.5 96.5t127 59t167.5 22v109h51v-110q81 -2 148.5 -15t118 -37.5t82 -61t40.5 -85.5z" />
    <glyph glyph-name="ellipsis" unicode="&#x2026;" horiz-adv-x="812" 
d="M149 45q0 20 11.5 31t29.5 11t30 -11t12 -31t-12 -30.5t-30 -10.5t-29.5 10.5t-11.5 30.5zM366 45q0 20 12 31t29 11q19 0 30.5 -11t11.5 -31t-11.5 -30.5t-30.5 -10.5q-17 0 -29 10.5t-12 30.5zM584 45q0 20 12 31t29 11q18 0 30 -11t12 -31t-12 -30.5t-30 -10.5
q-17 0 -29 10.5t-12 30.5z" />
    <glyph glyph-name="logicalnot" unicode="&#xac;" horiz-adv-x="979" 
d="M50 382h879v-256h-42v213h-837v43z" />
    <glyph glyph-name="daggerdbl" unicode="&#x2021;" horiz-adv-x="979" 
d="M50 582h413v228h51v-228h415v-43h-415v-457h415v-43h-415v-239h-51v239h-413v43h413v457h-413v43z" />
    <glyph glyph-name="dagger" unicode="&#x2020;" horiz-adv-x="979" 
d="M50 582h413v228h51v-228h415v-43h-415v-739h-51v739h-413v43z" />
    <glyph glyph-name="perthousand" unicode="&#x2030;" horiz-adv-x="1691" 
d="M1360 -19q-92 0 -161 31t-101 88q-31 -57 -99.5 -88t-159.5 -31q-61 0 -112.5 14t-89 40.5t-59 65t-21.5 86.5t21.5 86t59 64.5t89 40.5t112.5 14q91 0 159.5 -31t99.5 -88q32 57 101 88t161 31q61 0 112.5 -14t89 -40.5t58.5 -64.5t21 -86t-21 -86.5t-58.5 -65
t-89 -40.5t-112.5 -14zM340 339q-61 0 -112.5 14t-89.5 40.5t-59.5 65t-21.5 87.5q0 48 21.5 85.5t59.5 64t89.5 40.5t112.5 14t112.5 -14t89 -40.5t58.5 -64t21 -85.5q0 -49 -21 -87.5t-58.5 -65t-89 -40.5t-112.5 -14zM1360 17q50 0 93.5 11.5t75.5 33t50 53t18 72.5
q0 40 -18 71t-50 53t-75.5 33.5t-93.5 11.5t-93.5 -11.5t-75.5 -33.5t-50 -53t-18 -71q0 -41 18 -72.5t50 -53t75.5 -33t93.5 -11.5zM839 17q50 0 93.5 11.5t75.5 33t50 53t18 72.5q0 40 -18 71t-50 53t-75.5 33.5t-93.5 11.5t-93.5 -11.5t-75.5 -33.5t-50 -53t-18 -71
q0 -41 18 -72.5t50 -53t75.5 -33t93.5 -11.5zM340 376q50 0 93.5 11t75.5 33t50 53.5t18 72.5q0 40 -18 71t-50 52.5t-75.5 33t-93.5 11.5t-93.5 -11.5t-75.5 -33t-50 -52.5t-18 -71q0 -41 18 -72.5t50 -53.5t75.5 -33t93.5 -11zM1141 730l-1044 -730h-67l1043 730h68z" />
    <glyph glyph-name="copyright" unicode="&#xa9;" horiz-adv-x="1328" 
d="M664 -220q-143 0 -256.5 41.5t-193 112t-122 165t-42.5 201.5q0 106 42.5 201t122 165.5t193 112t256.5 41.5t257 -41.5t193.5 -112t121.5 -165.5t42 -201q0 -107 -42 -201.5t-121.5 -165t-193.5 -112t-257 -41.5zM664 -181q138 0 245 39.5t180.5 106.5t112 153.5
t38.5 181.5q0 94 -38.5 180.5t-112 153.5t-180.5 107t-245 40q-134 0 -240.5 -38.5t-181 -104t-114.5 -153t-40 -185.5q0 -95 38.5 -181.5t112 -153.5t180.5 -106.5t245 -39.5zM1041 402q-8 39 -37.5 69t-76.5 50t-110.5 30.5t-139.5 10.5q-90 0 -160 -17.5t-118.5 -51.5
t-74 -84.5t-25.5 -116.5q0 -67 25.5 -117.5t74 -84.5t119 -51t159.5 -17q76 0 139.5 11.5t110.5 33t76 53t37 70.5l49 -2q-9 -51 -43 -90t-89 -65t-127.5 -39.5t-157.5 -13.5q-98 0 -176.5 19t-133.5 57.5t-85 97t-30 138.5q0 79 30 138t85 97.5t133.5 57.5t176.5 19
q87 0 159.5 -12t127 -37t88.5 -62.5t43 -88.5z" />
    <glyph glyph-name="registered" unicode="&#xae;" horiz-adv-x="1328" 
d="M664 -220q-143 0 -256.5 41.5t-193 112t-122 165t-42.5 201.5q0 106 42.5 201t122 165.5t193 112t256.5 41.5t257 -41.5t193.5 -112t121.5 -165.5t42 -201q0 -107 -42 -201.5t-121.5 -165t-193.5 -112t-257 -41.5zM664 -181q138 0 245 39.5t180.5 106.5t112 153.5
t38.5 181.5q0 94 -38.5 180.5t-112 153.5t-180.5 107t-245 40q-134 0 -240.5 -38.5t-181 -104t-114.5 -153t-40 -185.5q0 -95 38.5 -181.5t112 -153.5t180.5 -106.5t245 -39.5zM360 0v630h221q134 0 223.5 -17.5t143 -49t76 -74t22.5 -92.5q0 -45 -19 -84.5t-63 -70
t-117.5 -50t-182.5 -24.5l379 -168h-83l-372 166h-175v-166h-53zM993 397q0 43 -20.5 78t-69 60t-127.5 38.5t-196 13.5h-167v-379h167q117 0 196 13.5t127.5 38t69 59.5t20.5 78z" />
    <glyph glyph-name="degree" unicode="&#xb0;" horiz-adv-x="648" 
d="M322 505q-84 0 -139.5 10.5t-88.5 27t-47 36.5t-14 39t14 39t47 36t88.5 26.5t139.5 10.5t139.5 -10.5t88.5 -26.5t47 -36t14 -39t-14 -39t-47 -36.5t-88.5 -27t-139.5 -10.5zM322 534q68 0 116 8t78 20.5t44 27.5t14 28q0 12 -14 26t-44.5 27t-78.5 21.5t-115 8.5
q-68 0 -116 -8.5t-78 -21.5t-44 -27t-14 -26q0 -13 14 -28t44 -27.5t78 -20.5t116 -8z" />
    <glyph glyph-name="dotlessi" unicode="&#x131;" horiz-adv-x="329" 
d="M139 0v584h51v-584h-51z" />
    <glyph glyph-name="cedilla" unicode="&#xb8;" horiz-adv-x="648" 
d="M344 -3l3 -71q76 -2 127 -13t81.5 -26.5t43 -35t12.5 -37.5q0 -19 -14 -39t-47 -36.5t-88.5 -27t-139.5 -10.5t-139.5 10.5t-88.5 27t-47 36.5t-14 39h37q0 -13 14 -27.5t44 -27t78 -21t116 -8.5t116 8.5t78 21t44 27t14 27.5q0 12 -14 26.5t-44.5 27t-78.5 21t-115 8.5
h-18l4 100h36z" />
    <glyph glyph-name="ogonek" unicode="&#x2db;" horiz-adv-x="648" 
d="M489 7q-35 -34 -79.5 -54.5t-91 -33t-91.5 -20t-79.5 -15.5t-56 -20t-21.5 -32q0 -11 14 -24.5t44 -24.5t78 -18.5t116 -7.5t116 7.5t78 18.5t44 24.5t14 24.5h37q0 -17 -14 -35t-47 -32.5t-88.5 -24t-139.5 -9.5t-139.5 9.5t-88.5 24t-47 32.5t-14 35q0 29 22 45
t58.5 26t83 17.5t95 19t95.5 30t85 51.5z" />
    <glyph glyph-name="germandbls" unicode="&#xdf;" horiz-adv-x="1078" 
d="M50 0v555q0 42 30 77.5t89.5 61.5t148.5 41t207 15t207.5 -14.5t149 -40t89.5 -60.5t30 -77q0 -63 -69 -110t-206 -67q81 -11 138.5 -30.5t94 -45t53 -56t16.5 -63.5q0 -49 -35.5 -87.5t-113.5 -64.5t-201.5 -40t-299.5 -14v42q162 0 275.5 11t185.5 32.5t104.5 53
t32.5 73.5q0 33 -24 63.5t-78 54t-140 37.5t-209 14h-145v38h145q211 0 317.5 43.5t106.5 110.5q0 33 -26.5 61t-79.5 48.5t-132.5 32.5t-185.5 12t-185.5 -12t-132.5 -33.5t-79.5 -50t-26.5 -61.5v-550h-51z" />
    <glyph glyph-name="ordfeminine" unicode="&#xaa;" horiz-adv-x="853" 
d="M389 314q-105 0 -172.5 11.5t-106.5 31t-53.5 45.5t-14.5 54q0 40 30 65t79.5 39.5t112.5 21.5t129 10t129.5 4t113 5.5t79.5 14t30 28.5v-37q-22 -15 -62 -23.5t-90 -12.5t-107 -6.5t-113 -5.5t-107.5 -8.5t-91 -16.5t-63 -29.5t-23.5 -46.5q0 -21 12 -41t45 -35.5
t92 -24.5t154 -9q94 0 160.5 11.5t109 32t62.5 49t22 62.5v-78q-31 -50 -115.5 -80.5t-240.5 -30.5zM790 330h-42l-3 95q24 38 22 86l-22 -1v97q11 8 16.5 16.5t5.5 20.5h-22q0 31 -16.5 56.5t-55 43t-101 27t-155.5 9.5q-96 0 -159 -8.5t-100 -24t-50.5 -37t-10.5 -48.5
l-45 4q-4 35 12 62.5t58.5 46.5t114 29t179.5 10q107 0 178.5 -11t115 -32.5t62 -53.5t18.5 -73v-314z" />
    <glyph glyph-name="twosuperior" unicode="&#xb2;" horiz-adv-x="1063" 
d="M56 246q0 51 38.5 86.5t102 59.5t144.5 40t165 29.5l165 27t144.5 32.5t102 46t38.5 68q0 34 -30 63.5t-87 51t-139.5 34t-187.5 12.5q-90 0 -164.5 -13.5t-128 -36.5t-83.5 -54t-30 -66l-52 2q0 42 33 78.5t93.5 64t144.5 43.5t186 16q120 0 212.5 -15t155.5 -41t96 -61
t33 -76q0 -49 -38.5 -82t-101.5 -56t-143.5 -38t-164.5 -28l-165.5 -26.5t-145.5 -32.5t-104.5 -46t-43.5 -68l97 4h817v-34h-959v16z" />
    <glyph glyph-name="threesuperior" unicode="&#xb3;" horiz-adv-x="1104" 
d="M81 674q0 33 30 61.5t89.5 49.5t148.5 33t207 12q237 0 356.5 -43.5t119.5 -109.5q0 -51 -70 -88.5t-210 -53.5q83 -9 141.5 -24.5t95 -35.5t53.5 -44.5t17 -51.5q0 -33 -27 -63t-86.5 -52.5t-155.5 -36t-234 -13.5q-135 0 -230.5 13.5t-156 37t-88 54t-27.5 64.5l51 5
q0 -29 25.5 -54t80 -44.5t140 -30.5t205.5 -11q126 0 212 11.5t139.5 30t76.5 43t23 51.5q0 26 -24 50.5t-78 43t-140 30t-209 11.5h-142v30h142q211 0 317.5 35t106.5 89q0 52 -106 87.5t-318 35.5q-106 0 -185.5 -10t-132.5 -27t-79.5 -40t-26.5 -49z" />
    <glyph glyph-name="onesuperior" unicode="&#xb9;" horiz-adv-x="427" 
d="M195 230v530l-94 -61l-12 17l115 98h42v-584h-51z" />
    <glyph glyph-name="ordmasculine" unicode="&#xba;" horiz-adv-x="1156" 
d="M578 214q-113 0 -209 21t-166 60.5t-109.5 97t-39.5 129.5t39.5 129.5t109.5 97t166 60.5t209 21t209 -21t166 -60.5t109.5 -97t39.5 -129.5t-39.5 -129.5t-109.5 -97t-166 -60.5t-209 -21zM578 248q100 0 186 18t149.5 53t100 86t36.5 117q0 65 -36.5 116t-100 86
t-149.5 53.5t-186 18.5t-186.5 -18.5t-150 -53.5t-100 -86t-36.5 -116q0 -66 36.5 -117t100 -86t150 -53t186.5 -18z" />
    <glyph glyph-name="onequarter" unicode="&#xbc;" horiz-adv-x="1448" 
d="M1259 534h42v-444h97v-32h-97v-108h-48v108h-793v22zM1253 90v401l-705 -401h705zM1071 760l-943 -810h-64l943 810h64zM155 180v529l-93 -60l-12 17l114 98h43v-584h-52z" />
    <glyph glyph-name="onehalf" unicode="&#xbd;" horiz-adv-x="1772" 
d="M763 -34q0 51 38.5 86.5t102 59.5t144.5 40t165 29.5l165 27t144.5 32.5t102 46t38.5 68q0 34 -30 63.5t-87 51t-139.5 34t-187.5 12.5q-90 0 -164.5 -13.5t-128 -36.5t-83.5 -54t-30 -66l-52 2q0 42 33 78.5t93.5 64t144.5 43.5t186 16q120 0 212.5 -15t155.5 -41
t96 -61t33 -76q0 -49 -38.5 -82t-101.5 -56t-143.5 -38t-164.5 -28l-165.5 -26.5t-145.5 -32t-104.5 -46t-43.5 -67.5l97 3h817v-34h-959v16zM1071 760l-943 -810h-64l943 810h64zM155 180v529l-93 -60l-12 17l114 98h43v-584h-52z" />
    <glyph glyph-name="threequarters" unicode="&#xbe;" horiz-adv-x="2032" 
d="M1843 534h42v-444h97v-32h-97v-108h-48v108h-793v22zM1837 90v401l-705 -401h705zM77 624q0 33 30 61.5t89.5 49.5t148.5 33t207 12q237 0 356.5 -43.5t119.5 -109.5q0 -51 -70 -88.5t-210 -53.5q83 -9 141.5 -24.5t95 -35.5t53.5 -44.5t17 -51.5q0 -33 -27 -63
t-86.5 -52.5t-155.5 -36t-234 -13.5q-135 0 -230.5 13.5t-156 37t-88 54t-27.5 64.5l51 5q0 -29 25.5 -54t80 -44.5t140 -30.5t205.5 -11q126 0 212 11.5t139.5 30t76.5 43t23 51.5q0 26 -24 50.5t-78 43t-140 30t-209 11.5h-142v30h142q211 0 317.5 35t106.5 89
q0 52 -106 87.5t-318 35.5q-106 0 -185.5 -10t-132.5 -27t-79.5 -40t-26.5 -49zM1762 760l-944 -810h-63l943 810h64z" />
    <glyph glyph-name="periodcentered" unicode="&#xb7;" horiz-adv-x="368" 
d="M149 330q0 20 11.5 31t29.5 11t30 -11t12 -31t-12 -30.5t-30 -10.5t-29.5 10.5t-11.5 30.5z" />
    <glyph glyph-name="bullet" unicode="&#x2022;" horiz-adv-x="768" 
d="M305 330q0 42 25 64.5t60 22.5q37 0 62 -22.5t25 -64.5q0 -41 -25 -62.5t-62 -21.5q-35 0 -60 21.5t-25 62.5z" />
    <glyph glyph-name="currency" unicode="&#xa4;" horiz-adv-x="808" 
d="M404 239q-33 0 -61.5 1.5t-53.5 5.5l-172 -124h-67l189 132q-70 17 -97 44t-27 53t25.5 52.5t91.5 43.5l-182 133h67l166 -124q26 4 56 6t65 2t63.5 -2t54.5 -5l170 123h66l-184 -133q67 -16 93 -43t26 -53t-27 -53t-96 -43l188 -133h-67l-174 124q-24 -3 -52.5 -5
t-60.5 -2zM404 268q68 0 116 8t78 20.5t44 27t14 27.5q0 12 -14 26.5t-44.5 27.5t-78.5 21.5t-115 8.5q-68 0 -116 -8.5t-78 -21.5t-44 -27.5t-14 -26.5q0 -13 14 -27.5t44 -27t78 -20.5t116 -8z" />
    <glyph glyph-name="exclamdown" unicode="&#xa1;" horiz-adv-x="504" 
d="M307 659q0 -20 -12 -31t-29 -11q-18 0 -30 11t-12 31t12 30.5t30 10.5q17 0 29 -10.5t12 -30.5zM287 474l5 -570h-52l5 570h42z" />
    <glyph glyph-name="questiondown" unicode="&#xbf;" horiz-adv-x="983" 
d="M519 679q0 -20 -12 -31t-30 -11t-30 11t-12 31t12 30.5t30 10.5t30 -10.5t12 -30.5zM499 494q0 -35 -19 -60t-49.5 -44.5t-70 -35l-80.5 -30.5l-80.5 -30.5t-70.5 -36t-50.5 -47.5t-19.5 -64q0 -35 20 -70t70.5 -64t135 -47t213.5 -18q91 0 167 16.5t130.5 45t84.5 67.5
t30 83l51 -3q0 -52 -33 -97.5t-93 -80t-145 -54.5t-190 -20q-143 0 -238 21t-151.5 54.5t-80 76.5t-23.5 87q0 45 19.5 77.5t51 57.5t71.5 43t82.5 33l82.5 29t71.5 29.5t51 35t19.5 46.5h43z" />
    <glyph glyph-name="divide" unicode="&#xf7;" horiz-adv-x="979" 
d="M455 86q0 20 11.5 31t29.5 11t30 -11t12 -31t-12 -30.5t-30 -10.5t-29.5 10.5t-11.5 30.5zM455 582q0 20 11.5 31t29.5 11t30 -11t12 -31t-12 -30.5t-30 -10.5t-29.5 10.5t-11.5 30.5zM50 363h879v-43h-879v43z" />
    <glyph glyph-name="hungarumlaut" unicode="&#x2dd;" horiz-adv-x="1238" 
d="M210 637l428 197l93 -1l-441 -196h-80zM552 637l428 197l92 -1l-441 -196h-79z" />
    <glyph glyph-name="ae" unicode="&#xe6;" horiz-adv-x="1639" 
d="M1162 604q93 0 170.5 -16.5t134 -50t87.5 -85t31 -121.5v-57h-797q2 -121 99 -186.5t275 -65.5q77 0 141 10t112 29t77 47.5t36 66.5h52q-9 -49 -43.5 -85.5t-89.5 -61t-127.5 -36.5t-157.5 -12q-152 0 -255 44.5t-145 138.5q-9 -40 -34.5 -73.5t-70 -58t-110.5 -38
t-157 -13.5q-105 0 -172.5 14.5t-106.5 39t-53.5 56.5t-14.5 68q0 49 30 80.5t79.5 50t112.5 26.5t129 12t129.5 5.5t113 7t79.5 17.5t30 36q0 39 -16.5 70.5t-55 53.5t-101.5 33.5t-155 11.5q-96 0 -159 -10.5t-100 -29.5t-50.5 -46.5t-10.5 -60.5l-45 5q-4 44 12 78
t58.5 57.5t114 36t179.5 12.5q88 0 152.5 -9.5t108 -28t68.5 -46t36 -63.5q50 75 147 111t233 36zM1162 562q-181 0 -276 -64t-98 -182v-5h745v38q0 54 -27 94t-76 66.5t-117.5 39.5t-150.5 13zM392 22q94 0 160 14t108 39t62.5 60t23.5 77q-9 37 -9 80q0 26 3 49
q-24 -17 -64.5 -26.5t-91 -14.5t-106.5 -7.5t-111.5 -6.5t-105.5 -11t-88.5 -20.5t-61 -36.5t-22.5 -58q0 -26 12 -51t45 -44.5t92 -31t154 -11.5z" />
    <glyph glyph-name="AE" unicode="&#xc6;" horiz-adv-x="1843" 
d="M967 209h-662l-255 -209h-64l977 800h850v-43h-794v-311h724v-42h-724v-362h804v-42h-856v209zM967 250v501l-612 -501h612z" />
    <glyph glyph-name="Thorn" unicode="&#xde;" horiz-adv-x="1008" 
d="M62 0v800h52v-130h396q127 0 212.5 -19t137.5 -54t73.5 -84.5t21.5 -110.5t-21.5 -110t-73.5 -84t-137.5 -54t-212.5 -19h-396v-135h-52zM904 402q0 51 -18.5 92.5t-64 71t-121.5 45.5t-190 16h-396v-450h396q114 0 190 15.5t121 45t64 71t19 93.5z" />
    <glyph glyph-name="thorn" unicode="&#xfe;" horiz-adv-x="919" 
d="M886 292q0 -78 -32.5 -136.5t-87.5 -97.5t-128 -58.5t-154 -19.5q-59 0 -115.5 9t-106 28.5t-88 49.5t-60.5 71v-348h-52v1020h52v-368q20 37 55 67t82.5 51t106.5 32.5t126 11.5q83 0 156.5 -19.5t128 -58.5t86 -97.5t31.5 -136.5zM475 562q-66 0 -130.5 -13t-115.5 -40
t-83 -68t-32 -96v-106q0 -56 32 -97t83 -67.5t115.5 -39.5t130.5 -13q76 0 141.5 18t114 52.5t76.5 84.5t28 115t-28 115t-76.5 84.5t-114 52.5t-141.5 18z" />
    <glyph glyph-name="aring" unicode="&#xe5;" horiz-adv-x="854" 
d="M791 0h-42l-3 120q-16 -32 -44 -57.5t-71.5 -44t-103 -28.5t-137.5 -10q-105 0 -172.5 14.5t-106.5 39t-53.5 56.5t-14.5 68q0 49 30 80.5t79.5 50t112.5 26.5t129 12t129.5 5.5t113 7t79.5 17.5t30 36q0 39 -16.5 70.5t-55 53.5t-101.5 33.5t-155 11.5
q-96 0 -159.5 -10.5t-100 -29.5t-50 -46.5t-10.5 -60.5l-45 5q-4 44 12 78t58.5 57.5t114 36t179.5 12.5q107 0 178.5 -13.5t115 -40.5t62 -66.5t18.5 -90.5v-393zM392 22q94 0 160.5 14t109 39.5t62.5 61.5t22 79v130q-29 -26 -89 -36t-133 -15t-150 -8.5t-140.5 -16
t-104 -37.5t-40.5 -73q0 -26 12 -51t45 -44.5t92 -31t154 -11.5zM427 623q-84 0 -139.5 10.5t-88.5 27t-47 36t-14 38.5t14 39.5t47 36.5t88.5 26.5t139.5 10.5t139.5 -10.5t88.5 -26.5t47 -36.5t14 -39.5t-14 -38.5t-47 -36t-88.5 -27t-139.5 -10.5zM427 652q68 0 116 8
t78 20.5t44 27t14 27.5q0 12 -14 26.5t-44.5 27.5t-78.5 21.5t-115 8.5q-68 0 -116 -8.5t-78 -21.5t-44 -27.5t-14 -26.5q0 -13 14 -27.5t44 -27t78 -20.5t116 -8z" />
    <glyph glyph-name="mu" unicode="&#xb5;" 
d="M114 584v-328q0 -48 19.5 -91t63.5 -74.5t116.5 -50t177.5 -18.5q91 0 158 19t111 48.5t65.5 65.5t21.5 71v358h52v-584h-45l-6 137q-18 -32 -49.5 -60.5t-77.5 -50t-107 -34t-137 -12.5q-150 0 -242 37t-135 102l14 -319h-52v784h52z" />
    <glyph glyph-name="paragraph" unicode="&#xb6;" horiz-adv-x="837" 
d="M50 723q0 42 24.5 64.5t59.5 22.5h653v-43h-236v-967h-52v967h-313v-967h-52v838q-35 0 -59.5 21.5t-24.5 63.5z" />
    <glyph glyph-name="OE" unicode="&#x152;" horiz-adv-x="1883" 
d="M1018 233q-44 -119 -161 -186t-310 -67q-123 0 -215 29.5t-154 84t-93 132.5t-31 174t31 174t93 132.5t154 84t215 29.5q97 0 174.5 -17.5t136 -50.5t98.5 -80t62 -106v234h846v-43h-794v-311h724v-42h-724v-362h804v-42h-856v233zM561 22q114 0 199.5 26t142.5 75
t85.5 119t28.5 158q0 87 -28.5 157t-85.5 118.5t-142.5 75t-199.5 26.5t-199.5 -26.5t-142.5 -75t-85.5 -118.5t-28.5 -157q0 -88 28.5 -158t85.5 -119t142.5 -75t199.5 -26z" />
    <glyph glyph-name="oe" unicode="&#x153;" horiz-adv-x="1833" 
d="M1356 604q93 0 170.5 -16.5t134 -50t87.5 -85t31 -121.5v-57h-796q2 -121 98.5 -186.5t275.5 -65.5q77 0 141 10t112 29t77 47.5t36 66.5h51q-9 -49 -43.5 -85.5t-89 -61t-127 -36.5t-158.5 -12q-160 0 -264 51t-138 156q-23 -51 -66 -89.5t-101 -65t-127 -39.5t-143 -13
q-92 0 -176 20t-148 59.5t-102.5 97.5t-38.5 135t38.5 135.5t102.5 97.5t148 59t176 20q74 0 143 -13t127 -39.5t101 -65.5t66 -90q35 106 138 157t264 51zM517 22q75 0 149 15.5t132.5 48.5t95 84t36.5 122q0 70 -36.5 121t-95 84t-132.5 49t-149 16t-149 -16t-132.5 -49
t-95 -84t-36.5 -121q0 -71 36.5 -122t95 -84t132.5 -48.5t149 -15.5zM1357 562q-182 0 -277 -64t-97 -182v-5h745v38q0 54 -27 94t-76 66.5t-117.5 39.5t-150.5 13z" />
    <glyph glyph-name="trademark" unicode="&#x2122;" horiz-adv-x="1721" 
d="M734 300v500h63l298 -372l21 -25l23 25l297 372h62v-500h-49v452l-148 -199l-166 -201h-39l-164 198l-150 202v-452h-48zM50 800h622v-43h-281v-457h-52v457h-289v43z" />
    <glyph glyph-name="plusminus" unicode="&#xb1;" horiz-adv-x="979" 
d="M50 482h418v187h43v-187h418v-43h-418v-187h-43v187h-418v43zM50 179h879v-43h-879v43z" />
    <glyph glyph-name="Aring" unicode="&#xc5;" horiz-adv-x="1147" 
d="M1115 0h-54l-132 209h-707l-132 -209h-54l508 800h63zM248 250h655l-317 503l-11 20l-10 -20zM573 838q-84 0 -139.5 10.5t-88.5 27t-47 36t-14 38.5t14 39.5t47 36.5t88.5 26.5t139.5 10.5t139.5 -10.5t88.5 -26.5t47 -36.5t14 -39.5t-14 -38.5t-47 -36t-88.5 -27
t-139.5 -10.5zM573 867q68 0 116 8t78 20.5t44 27t14 27.5q0 12 -14 26.5t-44.5 27.5t-78.5 21.5t-115 8.5q-68 0 -116 -8.5t-78 -21.5t-44 -27.5t-14 -26.5q0 -13 14 -27.5t44 -27t78 -20.5t116 -8z" />
    <glyph glyph-name="Adieresis" unicode="&#xc4;" horiz-adv-x="1147" 
d="M1115 0h-54l-132 209h-707l-132 -209h-54l508 800h63zM248 250h655l-317 503l-11 20l-10 -20zM679 945q0 18 10.5 27.5t26.5 9.5t26.5 -9.5t10.5 -27.5q0 -17 -10.5 -27t-26.5 -10t-26.5 10t-10.5 27zM393 945q0 18 10.5 27.5t26.5 9.5t26.5 -9.5t10.5 -27.5
q0 -17 -10.5 -27t-26.5 -10t-26.5 10t-10.5 27z" />
    <glyph glyph-name="Scaron" unicode="&#x160;" horiz-adv-x="1186" 
d="M54 616q0 41 30.5 78t95 65t164.5 44.5t239 16.5q143 0 247 -18.5t170.5 -50.5t96.5 -75.5t25 -93.5l-51 -3q5 42 -22 78.5t-87 63t-154.5 41.5t-224.5 15q-126 0 -216.5 -13t-148.5 -35t-85 -51.5t-27 -62.5q0 -47 43.5 -77.5t115 -50.5t163 -34t186.5 -27t186.5 -29.5
t163 -42.5t115 -64t43.5 -96q0 -41 -30 -79.5t-94.5 -68.5t-164.5 -48t-239 -18q-142 0 -246 20t-171 53.5t-97.5 78.5t-25.5 96l52 3q-5 -43 22 -81t87 -66.5t154.5 -45t225.5 -16.5q126 0 216.5 14.5t148 38.5t84.5 55t27 64q0 49 -43.5 80t-115 51.5t-163 34l-187 26.5
t-187 28.5t-163 41t-115 64t-43.5 96.5zM883 982l-291 -114l-291 114v40l291 -115l291 115v-40z" />
    <glyph glyph-name="scaron" unicode="&#x161;" horiz-adv-x="964" 
d="M64 438q0 30 23 60t72.5 53.5t128 38t190.5 14.5q93 0 171.5 -10t134.5 -32t86 -56.5t25 -83.5l-49 -2q5 41 -22 68t-77.5 43.5t-119.5 23.5t-148 7q-99 0 -168 -12t-112 -31t-62.5 -41.5t-19.5 -43.5q0 -33 34 -52.5t90 -31t127.5 -17l146 -11.5t146 -15t127.5 -26
t90 -45.5t34 -74.5q0 -33 -24 -65.5t-75.5 -58t-131.5 -41.5t-192 -16q-108 0 -191.5 12.5t-139 37.5t-82 63t-21.5 89l47 2q-5 -42 19 -73t74 -50.5t124.5 -29t170.5 -9.5q100 0 170.5 13.5t115.5 34.5t65.5 46t20.5 48q0 36 -34.5 57.5t-90.5 34t-127.5 18.5l-146.5 12
t-146.5 14t-127.5 24t-90.5 43t-34.5 71zM773 767l-291 -114l-291 114v40l291 -115l291 115v-40z" />
    <glyph glyph-name="Lslash" unicode="&#x141;" horiz-adv-x="1071" 
d="M20 332l175 50v418h52v-403l596 169v-42l-596 -169v-313h804v-42h-856v340l-175 -50v42z" />
    <glyph glyph-name="lslash" unicode="&#x142;" horiz-adv-x="412" 
d="M20 629l152 62v119h51v-98l169 70v-42l-169 -70v-670h-51v649l-152 -62v42z" />
    <glyph glyph-name="Zcaron" unicode="&#x17d;" horiz-adv-x="1118" 
d="M56 800h999v-43l-921 -715h921v-42h-999v42l922 715h-922v43zM849 982l-291 -114l-291 114v40l291 -115l291 115v-40z" />
    <glyph glyph-name="zcaron" unicode="&#x17e;" horiz-adv-x="903" 
d="M47 584h807v-33l-716 -509h716v-42h-807v33l719 509h-719v42zM742 767l-291 -114l-291 114v40l291 -115l291 115v-40z" />
    <glyph glyph-name="Ydieresis" unicode="&#x178;" horiz-adv-x="1106" 
d="M528 0v292l-503 508h63l464 -466l467 466h63l-503 -507v-293h-51zM658 945q0 18 10.5 27.5t26.5 9.5t26.5 -9.5t10.5 -27.5q0 -17 -10.5 -27t-26.5 -10t-26.5 10t-10.5 27zM372 945q0 18 10.5 27.5t26.5 9.5t26.5 -9.5t10.5 -27.5q0 -17 -10.5 -27t-26.5 -10t-26.5 10
t-10.5 27z" />
    <glyph glyph-name="Yacute" unicode="&#xdd;" horiz-adv-x="1106" 
d="M528 0v292l-503 508h63l464 -466l467 466h63l-503 -507v-293h-51zM293 852l428 197l92 -1l-441 -196h-79z" />
    <glyph glyph-name="Udieresis" unicode="&#xdc;" horiz-adv-x="1159" 
d="M114 301q0 -65 23 -116.5t77 -87.5t143 -55.5t222 -19.5t222.5 19.5t143.5 55.5t77 87.5t23 116.5v499h51v-499q0 -77 -26.5 -136.5t-87 -100.5t-159.5 -62.5t-244 -21.5t-244 21.5t-159.5 62.5t-87 100.5t-26.5 136.5v499h52v-499zM399 945q0 18 10.5 27.5t26.5 9.5
t26.5 -9.5t10.5 -27.5q0 -17 -10.5 -27t-26.5 -10t-26.5 10t-10.5 27zM685 945q0 18 10.5 27.5t26.5 9.5t26.5 -9.5t10.5 -27.5q0 -17 -10.5 -27t-26.5 -10t-26.5 10t-10.5 27z" />
    <glyph glyph-name="Ucircumflex" unicode="&#xdb;" horiz-adv-x="1159" 
d="M114 301q0 -65 23 -116.5t77 -87.5t143 -55.5t222 -19.5t222.5 19.5t143.5 55.5t77 87.5t23 116.5v499h51v-499q0 -77 -26.5 -136.5t-87 -100.5t-159.5 -62.5t-244 -21.5t-244 21.5t-159.5 62.5t-87 100.5t-26.5 136.5v499h52v-499zM870 868l-291 115l-291 -115v40
l291 114l291 -114v-40z" />
    <glyph glyph-name="Uacute" unicode="&#xda;" horiz-adv-x="1159" 
d="M114 301q0 -65 23 -116.5t77 -87.5t143 -55.5t222 -19.5t222.5 19.5t143.5 55.5t77 87.5t23 116.5v499h51v-499q0 -77 -26.5 -136.5t-87 -100.5t-159.5 -62.5t-244 -21.5t-244 21.5t-159.5 62.5t-87 100.5t-26.5 136.5v499h52v-499zM319 852l428 197l92 -1l-441 -196h-79
z" />
    <glyph glyph-name="Ugrave" unicode="&#xd9;" horiz-adv-x="1159" 
d="M114 301q0 -65 23 -116.5t77 -87.5t143 -55.5t222 -19.5t222.5 19.5t143.5 55.5t77 87.5t23 116.5v499h51v-499q0 -77 -26.5 -136.5t-87 -100.5t-159.5 -62.5t-244 -21.5t-244 21.5t-159.5 62.5t-87 100.5t-26.5 136.5v499h52v-499zM760 852l-441 196l92 1l428 -197h-79z
" />
    <glyph glyph-name="Oslash" unicode="&#xd8;" horiz-adv-x="1116" 
d="M561 -20q-114 0 -202 23.5t-151 68.5l-90 -78h-63l121 105q-61 54 -91.5 130t-30.5 171q0 96 32 174t96 132.5t158.5 84t220.5 29.5q110 0 195.5 -22.5t148.5 -64.5l93 81h64l-123 -107q65 -55 97.5 -132.5t32.5 -174.5q0 -96 -32 -174t-96 -132.5t-159 -84t-221 -29.5z
M561 22q114 0 199.5 26t142.5 75t85.5 119t28.5 158t-28.5 157t-85.5 119l-659 -573q57 -39 135.5 -60t181.5 -21zM105 400q0 -85 26 -153t80 -117l657 571q-56 37 -132 56.5t-175 19.5q-114 0 -199.5 -26.5t-142.5 -75t-85.5 -118.5t-28.5 -157z" />
    <glyph glyph-name="oslash" unicode="&#xf8;" horiz-adv-x="1033" 
d="M517 -20q-77 0 -148 14t-131 41l-95 -75h-72l124 98q-66 39 -104.5 97.5t-38.5 136.5q0 77 38 135.5t102.5 97.5t148.5 59t176 20q81 0 156.5 -15.5t137.5 -47.5l88 69h72l-119 -93q60 -39 94.5 -95.5t34.5 -129.5q0 -77 -38 -135t-102.5 -97.5t-148.5 -59.5t-175 -20z
M103 292q0 -71 35.5 -121.5t94.5 -83.5l539 423q-57 26 -122.5 39t-132.5 13q-75 0 -149 -16t-133 -49t-95.5 -84t-36.5 -121zM517 22q75 0 149 15.5t132.5 48.5t95 84t36.5 122q0 66 -31.5 114t-84.5 81l-537 -422q54 -22 115.5 -32.5t124.5 -10.5z" />
    <glyph glyph-name="Agrave" unicode="&#xc0;" horiz-adv-x="1147" 
d="M1115 0h-54l-132 209h-707l-132 -209h-54l508 800h63zM248 250h655l-317 503l-11 20l-10 -20zM754 852l-441 196l92 1l428 -197h-79z" />
    <glyph glyph-name="Aacute" unicode="&#xc1;" horiz-adv-x="1147" 
d="M1115 0h-54l-132 209h-707l-132 -209h-54l508 800h63zM248 250h655l-317 503l-11 20l-10 -20zM313 852l428 197l92 -1l-441 -196h-79z" />
    <glyph glyph-name="Acircumflex" unicode="&#xc2;" horiz-adv-x="1147" 
d="M1115 0h-54l-132 209h-707l-132 -209h-54l508 800h63zM248 250h655l-317 503l-11 20l-10 -20zM864 868l-291 115l-291 -115v40l291 114l291 -114v-40z" />
    <glyph glyph-name="Atilde" unicode="&#xc3;" horiz-adv-x="1147" 
d="M1115 0h-54l-132 209h-707l-132 -209h-54l508 800h63zM248 250h655l-317 503l-11 20l-10 -20zM254 935q58 39 103 53t82 13t68.5 -13t62.5 -26t63 -25t70 -10t84 18.5t105 60.5v-38q-63 -44 -111 -61.5t-86 -19t-69 10t-60.5 25l-59.5 26t-66.5 14t-81.5 -12.5t-104 -52
v37z" />
    <glyph glyph-name="Ccedilla" unicode="&#xc7;" horiz-adv-x="1147" 
d="M555 -103l3 84q-108 3 -200 28.5t-160 76t-106.5 128.5t-38.5 186q0 112 41 191.5t113 130.5t170 74.5t211 23.5q111 0 201 -23.5t154 -62t100.5 -89t39.5 -104.5l-52 -3q-5 45 -37 87.5t-89 76.5t-137 54.5t-180 20.5q-102 0 -190 -21.5t-153.5 -67.5t-102.5 -117
t-37 -171q0 -101 37 -172.5t102.5 -117t153.5 -67t190 -21.5q105 0 186 22.5t137.5 57.5t87 79t33.5 86l52 -3q-4 -53 -38 -103.5t-96 -90t-151 -64.5t-203 -26l2 -54q76 -2 127 -13t81.5 -26.5t43 -35t12.5 -37.5q0 -19 -14 -39t-47 -36.5t-88.5 -27t-139.5 -10.5
t-139.5 10.5t-88.5 27t-47 36.5t-14 39h37q0 -13 14 -27.5t44 -27t78 -21t116 -8.5t116 8.5t78 21t44 27t14 27.5q0 12 -14 26.5t-44.5 27t-78.5 21t-115 8.5h-18z" />
    <glyph glyph-name="Egrave" unicode="&#xc8;" horiz-adv-x="929" 
d="M62 0v800h846v-43h-794v-311h724v-42h-724v-362h804v-42h-856zM645 852l-441 196l92 1l428 -197h-79z" />
    <glyph glyph-name="Eacute" unicode="&#xc9;" horiz-adv-x="929" 
d="M62 0v800h846v-43h-794v-311h724v-42h-724v-362h804v-42h-856zM204 852l428 197l92 -1l-441 -196h-79z" />
    <glyph glyph-name="Ecircumflex" unicode="&#xca;" horiz-adv-x="929" 
d="M62 0v800h846v-43h-794v-311h724v-42h-724v-362h804v-42h-856zM755 868l-291 115l-291 -115v40l291 114l291 -114v-40z" />
    <glyph glyph-name="Edieresis" unicode="&#xcb;" horiz-adv-x="929" 
d="M62 0v800h846v-43h-794v-311h724v-42h-724v-362h804v-42h-856zM284 945q0 18 10.5 27.5t26.5 9.5t26.5 -9.5t10.5 -27.5q0 -17 -10.5 -27t-26.5 -10t-26.5 10t-10.5 27zM570 945q0 18 10.5 27.5t26.5 9.5t26.5 -9.5t10.5 -27.5q0 -17 -10.5 -27t-26.5 -10t-26.5 10
t-10.5 27z" />
    <glyph glyph-name="Igrave" unicode="&#xcc;" horiz-adv-x="232" 
d="M90 0v800h52v-800h-52zM229 852l-441 196l92 1l428 -197h-79z" />
    <glyph glyph-name="Iacute" unicode="&#xcd;" horiz-adv-x="232" 
d="M90 0v800h52v-800h-52zM-14 852l428 197l92 -1l-441 -196h-79z" />
    <glyph glyph-name="Icircumflex" unicode="&#xce;" horiz-adv-x="232" 
d="M90 0v800h52v-800h-52zM407 868l-291 115l-291 -115v40l291 114l291 -114v-40z" />
    <glyph glyph-name="Idieresis" unicode="&#xcf;" horiz-adv-x="232" 
d="M90 0v800h52v-800h-52zM-64 945q0 18 10.5 27.5t26.5 9.5t26.5 -9.5t10.5 -27.5q0 -17 -10.5 -27t-26.5 -10t-26.5 10t-10.5 27zM222 945q0 18 10.5 27.5t26.5 9.5t26.5 -9.5t10.5 -27.5q0 -17 -10.5 -27t-26.5 -10t-26.5 10t-10.5 27z" />
    <glyph glyph-name="Eth" unicode="&#xd0;" horiz-adv-x="1093" 
d="M16 420h54v380h438q272 0 404 -100t132 -300q0 -199 -132 -299.5t-404 -100.5h-438v378h-54v42zM992 400q0 179 -120 268t-364 89h-387v-337h478v-42h-478v-336h387q244 0 364 88.5t120 269.5z" />
    <glyph glyph-name="eth" unicode="&#xf0;" horiz-adv-x="1033" 
d="M425 810q62 0 117.5 -9t104.5 -26l146 52l15 -39l-108 -34q68 -32 120.5 -79t88.5 -106t54.5 -129t18.5 -148q0 -77 -38 -135t-102.5 -97.5t-148.5 -59.5t-176 -20t-176 20t-148 59.5t-102.5 97.5t-38.5 135q0 64 27.5 115.5t74.5 90t109 63.5t131.5 36t142.5 7.5
t141.5 -22t128 -52t102.5 -83.5q-28 99 -92.5 174t-166.5 117l-232 -74l-8 26l185 66q-38 11 -80.5 16.5t-89.5 5.5v32zM517 22q75 0 149 15.5t132.5 48.5t95 84t36.5 122q0 67 -35.5 117.5t-93 84.5t-132 51t-152.5 17t-152.5 -16t-132.5 -49t-93 -84t-35 -121
q0 -71 36.5 -122t95 -84t132.5 -48.5t149 -15.5z" />
    <glyph glyph-name="idieresis" unicode="&#xef;" horiz-adv-x="329" 
d="M139 0v584h51v-584h-51zM-15 730q0 18 10.5 27.5t26.5 9.5t26.5 -9.5t10.5 -27.5q0 -17 -10.5 -27t-26.5 -10t-26.5 10t-10.5 27zM271 730q0 18 10.5 27.5t26.5 9.5t26.5 -9.5t10.5 -27.5q0 -17 -10.5 -27t-26.5 -10t-26.5 10t-10.5 27z" />
    <glyph glyph-name="icircumflex" unicode="&#xee;" horiz-adv-x="329" 
d="M139 0v584h51v-584h-51zM455 653l-291 115l-291 -115v40l291 114l291 -114v-40z" />
    <glyph glyph-name="iacute" unicode="&#xed;" horiz-adv-x="329" 
d="M139 0v584h51v-584h-51zM16 637l428 197l92 -1l-441 -196h-79z" />
    <glyph glyph-name="igrave" unicode="&#xec;" horiz-adv-x="329" 
d="M139 0v584h51v-584h-51zM203 637l-441 196l92 1l428 -197h-79z" />
    <glyph glyph-name="edieresis" unicode="&#xeb;" horiz-adv-x="956" 
d="M479 604q93 0 170.5 -16.5t134 -50t87.5 -85t31 -121.5v-57h-797q2 -121 99 -186.5t275 -65.5q77 0 141 10t112 29t77 47.5t36 66.5h52q-9 -49 -43.5 -85.5t-89.5 -61t-127.5 -36.5t-157.5 -12q-98 0 -176.5 19t-134 57.5t-85 97t-29.5 138.5q0 79 29.5 138t85 97.5
t134 57.5t176.5 19zM479 562q-181 0 -276 -64t-98 -182v-5h745v38q0 54 -27 94t-76 66.5t-117.5 39.5t-150.5 13zM297 730q0 18 10.5 27.5t26.5 9.5t26.5 -9.5t10.5 -27.5q0 -17 -10.5 -27t-26.5 -10t-26.5 10t-10.5 27zM583 730q0 18 10.5 27.5t26.5 9.5t26.5 -9.5
t10.5 -27.5q0 -17 -10.5 -27t-26.5 -10t-26.5 10t-10.5 27z" />
    <glyph glyph-name="ecircumflex" unicode="&#xea;" horiz-adv-x="956" 
d="M479 604q93 0 170.5 -16.5t134 -50t87.5 -85t31 -121.5v-57h-797q2 -121 99 -186.5t275 -65.5q77 0 141 10t112 29t77 47.5t36 66.5h52q-9 -49 -43.5 -85.5t-89.5 -61t-127.5 -36.5t-157.5 -12q-98 0 -176.5 19t-134 57.5t-85 97t-29.5 138.5q0 79 29.5 138t85 97.5
t134 57.5t176.5 19zM479 562q-181 0 -276 -64t-98 -182v-5h745v38q0 54 -27 94t-76 66.5t-117.5 39.5t-150.5 13zM769 653l-291 115l-291 -115v40l291 114l291 -114v-40z" />
    <glyph glyph-name="eacute" unicode="&#xe9;" horiz-adv-x="956" 
d="M479 604q93 0 170.5 -16.5t134 -50t87.5 -85t31 -121.5v-57h-797q2 -121 99 -186.5t275 -65.5q77 0 141 10t112 29t77 47.5t36 66.5h52q-9 -49 -43.5 -85.5t-89.5 -61t-127.5 -36.5t-157.5 -12q-98 0 -176.5 19t-134 57.5t-85 97t-29.5 138.5q0 79 29.5 138t85 97.5
t134 57.5t176.5 19zM479 562q-181 0 -276 -64t-98 -182v-5h745v38q0 54 -27 94t-76 66.5t-117.5 39.5t-150.5 13zM217 637l428 197l92 -1l-441 -196h-79z" />
    <glyph glyph-name="egrave" unicode="&#xe8;" horiz-adv-x="956" 
d="M479 604q93 0 170.5 -16.5t134 -50t87.5 -85t31 -121.5v-57h-797q2 -121 99 -186.5t275 -65.5q77 0 141 10t112 29t77 47.5t36 66.5h52q-9 -49 -43.5 -85.5t-89.5 -61t-127.5 -36.5t-157.5 -12q-98 0 -176.5 19t-134 57.5t-85 97t-29.5 138.5q0 79 29.5 138t85 97.5
t134 57.5t176.5 19zM479 562q-181 0 -276 -64t-98 -182v-5h745v38q0 54 -27 94t-76 66.5t-117.5 39.5t-150.5 13zM658 637l-441 196l92 1l428 -197h-79z" />
    <glyph glyph-name="ccedilla" unicode="&#xe7;" horiz-adv-x="962" 
d="M462 -103l3 83q-95 1 -171.5 20.5t-130 58t-82.5 97t-29 136.5q0 79 30 138t85 97.5t133.5 57.5t176.5 19q87 0 159.5 -12t127 -37t88.5 -62.5t43 -88.5l-49 -2q-8 39 -37.5 69t-76.5 50t-110.5 30.5t-139.5 10.5q-90 0 -160 -17.5t-118.5 -51.5t-74 -84.5t-25.5 -116.5
q0 -67 25.5 -117.5t74 -84.5t119 -51t159.5 -17q76 0 139.5 11.5t110.5 33t76 53t37 70.5l49 -2q-8 -49 -40.5 -87t-83.5 -64t-119 -40t-148 -16l2 -55q76 -2 127 -13t81.5 -26.5t43 -35t12.5 -37.5q0 -19 -14 -39t-47 -36.5t-88.5 -27t-139.5 -10.5t-139.5 10.5t-88.5 27
t-47 36.5t-14 39h37q0 -13 14 -27.5t44 -27t78 -21t116 -8.5t116 8.5t78 21t44 27t14 27.5q0 12 -14 26.5t-44.5 27t-78.5 21t-115 8.5h-18z" />
    <glyph glyph-name="adieresis" unicode="&#xe4;" horiz-adv-x="854" 
d="M791 0h-42l-3 120q-16 -32 -44 -57.5t-71.5 -44t-103 -28.5t-137.5 -10q-105 0 -172.5 14.5t-106.5 39t-53.5 56.5t-14.5 68q0 49 30 80.5t79.5 50t112.5 26.5t129 12t129.5 5.5t113 7t79.5 17.5t30 36q0 39 -16.5 70.5t-55 53.5t-101.5 33.5t-155 11.5
q-96 0 -159.5 -10.5t-100 -29.5t-50 -46.5t-10.5 -60.5l-45 5q-4 44 12 78t58.5 57.5t114 36t179.5 12.5q107 0 178.5 -13.5t115 -40.5t62 -66.5t18.5 -90.5v-393zM746 346q-29 -26 -89 -36t-133 -15t-150 -8.5t-140.5 -16t-104 -37.5t-40.5 -73q0 -26 12 -51t45 -44.5
t92 -31t154 -11.5q97 0 164.5 15t109.5 42t61 64t19 82v121zM247 730q0 18 10.5 27.5t26.5 9.5t26.5 -9.5t10.5 -27.5q0 -17 -10.5 -27t-26.5 -10t-26.5 10t-10.5 27zM533 730q0 18 10.5 27.5t26.5 9.5t26.5 -9.5t10.5 -27.5q0 -17 -10.5 -27t-26.5 -10t-26.5 10t-10.5 27z
" />
    <glyph glyph-name="atilde" unicode="&#xe3;" horiz-adv-x="854" 
d="M791 0h-42l-3 120q-16 -32 -44 -57.5t-71.5 -44t-103 -28.5t-137.5 -10q-105 0 -172.5 14.5t-106.5 39t-53.5 56.5t-14.5 68q0 49 30 80.5t79.5 50t112.5 26.5t129 12t129.5 5.5t113 7t79.5 17.5t30 36q0 39 -16.5 70.5t-55 53.5t-101.5 33.5t-155 11.5
q-96 0 -159.5 -10.5t-100 -29.5t-50 -46.5t-10.5 -60.5l-45 5q-4 44 12 78t58.5 57.5t114 36t179.5 12.5q107 0 178.5 -13.5t115 -40.5t62 -66.5t18.5 -90.5v-393zM746 346q-29 -26 -89 -36t-133 -15t-150 -8.5t-140.5 -16t-104 -37.5t-40.5 -73q0 -26 12 -51t45 -44.5
t92 -31t154 -11.5q97 0 164.5 15t109.5 42t61 64t19 82v121zM108 720q58 39 103 53t82 13t68.5 -13t62.5 -26t63 -25t70 -10t84 18.5t105 60.5v-38q-63 -44 -111 -61.5t-86 -19t-69 10t-60.5 25l-59.5 26t-66.5 14t-81.5 -12.5t-104 -52v37z" />
    <glyph glyph-name="acircumflex" unicode="&#xe2;" horiz-adv-x="854" 
d="M791 0h-42l-3 120q-16 -32 -44 -57.5t-71.5 -44t-103 -28.5t-137.5 -10q-105 0 -172.5 14.5t-106.5 39t-53.5 56.5t-14.5 68q0 49 30 80.5t79.5 50t112.5 26.5t129 12t129.5 5.5t113 7t79.5 17.5t30 36q0 39 -16.5 70.5t-55 53.5t-101.5 33.5t-155 11.5
q-96 0 -159.5 -10.5t-100 -29.5t-50 -46.5t-10.5 -60.5l-45 5q-4 44 12 78t58.5 57.5t114 36t179.5 12.5q107 0 178.5 -13.5t115 -40.5t62 -66.5t18.5 -90.5v-393zM392 22q94 0 160.5 14t109 39.5t62.5 61.5t22 79v130q-29 -26 -89 -36t-133 -15t-150 -8.5t-140.5 -16
t-104 -37.5t-40.5 -73q0 -26 12 -51t45 -44.5t92 -31t154 -11.5zM718 653l-291 115l-291 -115v40l291 114l291 -114v-40z" />
    <glyph glyph-name="aacute" unicode="&#xe1;" horiz-adv-x="854" 
d="M791 0h-42l-3 120q-16 -32 -44 -57.5t-71.5 -44t-103 -28.5t-137.5 -10q-105 0 -172.5 14.5t-106.5 39t-53.5 56.5t-14.5 68q0 49 30 80.5t79.5 50t112.5 26.5t129 12t129.5 5.5t113 7t79.5 17.5t30 36q0 39 -16.5 70.5t-55 53.5t-101.5 33.5t-155 11.5
q-96 0 -159.5 -10.5t-100 -29.5t-50 -46.5t-10.5 -60.5l-45 5q-4 44 12 78t58.5 57.5t114 36t179.5 12.5q107 0 178.5 -13.5t115 -40.5t62 -66.5t18.5 -90.5v-393zM746 346q-29 -26 -89 -36t-133 -15t-150 -8.5t-140.5 -16t-104 -37.5t-40.5 -73q0 -26 12 -51t45 -44.5
t92 -31t154 -11.5q97 0 164.5 15t109.5 42t61 64t19 82v121zM240 637l428 197l92 -1l-441 -196h-79z" />
    <glyph glyph-name="agrave" unicode="&#xe0;" horiz-adv-x="854" 
d="M791 0h-42l-3 120q-16 -32 -44 -57.5t-71.5 -44t-103 -28.5t-137.5 -10q-105 0 -172.5 14.5t-106.5 39t-53.5 56.5t-14.5 68q0 49 30 80.5t79.5 50t112.5 26.5t129 12t129.5 5.5t113 7t79.5 17.5t30 36q0 39 -16.5 70.5t-55 53.5t-101.5 33.5t-155 11.5
q-96 0 -159.5 -10.5t-100 -29.5t-50 -46.5t-10.5 -60.5l-45 5q-4 44 12 78t58.5 57.5t114 36t179.5 12.5q107 0 178.5 -13.5t115 -40.5t62 -66.5t18.5 -90.5v-393zM746 346q-29 -26 -89 -36t-133 -15t-150 -8.5t-140.5 -16t-104 -37.5t-40.5 -73q0 -26 12 -51t45 -44.5
t92 -31t154 -11.5q97 0 164.5 15t109.5 42t61 64t19 82v121zM608 637l-441 196l92 1l428 -197h-79z" />
    <glyph glyph-name="ntilde" unicode="&#xf1;" 
d="M62 0v584h45l6 -137q18 32 49 60.5t77.5 50t108.5 34t140 12.5q110 0 188 -20t127.5 -56.5t72.5 -87.5t23 -112v-328h-52v328q0 49 -19 92t-62.5 74.5t-114.5 49.5t-176 18q-93 0 -160 -18t-111 -46.5t-66 -63.5t-24 -69v-365h-52zM161 720q58 39 103 53t82 13t68.5 -13
t62.5 -26t63 -25t70 -10t84 18.5t105 60.5v-38q-63 -44 -111 -61.5t-86 -19t-69 10t-60.5 25l-59.5 26t-66.5 14t-81.5 -12.5t-104 -52v37z" />
    <glyph glyph-name="ograve" unicode="&#xf2;" horiz-adv-x="1033" 
d="M517 -20q-92 0 -176 20t-148.5 59.5t-102.5 97.5t-38 135t38 135.5t102.5 97.5t148.5 59t176 20q91 0 175 -20t148.5 -59t102.5 -97.5t38 -135.5t-38 -135t-102.5 -97.5t-148.5 -59.5t-175 -20zM517 22q75 0 149 15.5t132.5 48.5t95 84t36.5 122q0 70 -36.5 121t-95 84
t-132.5 49t-149 16t-149 -16t-133 -49t-95.5 -84t-36.5 -121q0 -71 36.5 -122t95.5 -84t133 -48.5t149 -15.5zM698 637l-441 196l92 1l428 -197h-79z" />
    <glyph glyph-name="oacute" unicode="&#xf3;" horiz-adv-x="1033" 
d="M517 -20q-92 0 -176 20t-148.5 59.5t-102.5 97.5t-38 135t38 135.5t102.5 97.5t148.5 59t176 20q91 0 175 -20t148.5 -59t102.5 -97.5t38 -135.5t-38 -135t-102.5 -97.5t-148.5 -59.5t-175 -20zM517 22q75 0 149 15.5t132.5 48.5t95 84t36.5 122q0 70 -36.5 121t-95 84
t-132.5 49t-149 16t-149 -16t-133 -49t-95.5 -84t-36.5 -121q0 -71 36.5 -122t95.5 -84t133 -48.5t149 -15.5zM336 637l428 197l92 -1l-441 -196h-79z" />
    <glyph glyph-name="ocircumflex" unicode="&#xf4;" horiz-adv-x="1033" 
d="M517 -20q-92 0 -176 20t-148.5 59.5t-102.5 97.5t-38 135t38 135.5t102.5 97.5t148.5 59t176 20q91 0 175 -20t148.5 -59t102.5 -97.5t38 -135.5t-38 -135t-102.5 -97.5t-148.5 -59.5t-175 -20zM517 22q75 0 149 15.5t132.5 48.5t95 84t36.5 122q0 70 -36.5 121t-95 84
t-132.5 49t-149 16t-149 -16t-133 -49t-95.5 -84t-36.5 -121q0 -71 36.5 -122t95.5 -84t133 -48.5t149 -15.5zM807 653l-291 115l-291 -115v40l291 114l291 -114v-40z" />
    <glyph glyph-name="otilde" unicode="&#xf5;" horiz-adv-x="1033" 
d="M517 -20q-92 0 -176 20t-148.5 59.5t-102.5 97.5t-38 135t38 135.5t102.5 97.5t148.5 59t176 20q91 0 175 -20t148.5 -59t102.5 -97.5t38 -135.5t-38 -135t-102.5 -97.5t-148.5 -59.5t-175 -20zM517 22q75 0 149 15.5t132.5 48.5t95 84t36.5 122q0 70 -36.5 121t-95 84
t-132.5 49t-149 16t-149 -16t-133 -49t-95.5 -84t-36.5 -121q0 -71 36.5 -122t95.5 -84t133 -48.5t149 -15.5zM197 720q58 39 103 53t82 13t68.5 -13t62.5 -26t63 -25t70 -10t84 18.5t105 60.5v-38q-63 -44 -111 -61.5t-86 -19t-69 10t-60.5 25l-59.5 26t-66.5 14
t-81.5 -12.5t-104 -52v37z" />
    <glyph glyph-name="odieresis" unicode="&#xf6;" horiz-adv-x="1033" 
d="M517 -20q-92 0 -176 20t-148.5 59.5t-102.5 97.5t-38 135t38 135.5t102.5 97.5t148.5 59t176 20q91 0 175 -20t148.5 -59t102.5 -97.5t38 -135.5t-38 -135t-102.5 -97.5t-148.5 -59.5t-175 -20zM517 22q75 0 149 15.5t132.5 48.5t95 84t36.5 122q0 70 -36.5 121t-95 84
t-132.5 49t-149 16t-149 -16t-133 -49t-95.5 -84t-36.5 -121q0 -71 36.5 -122t95.5 -84t133 -48.5t149 -15.5zM337 730q0 18 10.5 27.5t26.5 9.5t26.5 -9.5t10.5 -27.5q0 -17 -10.5 -27t-26.5 -10t-26.5 10t-10.5 27zM623 730q0 18 10.5 27.5t26.5 9.5t26.5 -9.5t10.5 -27.5
q0 -17 -10.5 -27t-26.5 -10t-26.5 10t-10.5 27z" />
    <glyph glyph-name="Odieresis" unicode="&#xd6;" horiz-adv-x="1116" 
d="M561 -20q-126 0 -220.5 29.5t-158.5 84t-96 132.5t-32 174t32 174t96 132.5t158.5 84t220.5 29.5t221 -29.5t159 -84t96 -132.5t32 -174t-32 -174t-96 -132.5t-159 -84t-221 -29.5zM561 22q114 0 199.5 26t142.5 75t85.5 119t28.5 158q0 87 -28.5 157t-85.5 118.5
t-142.5 75t-199.5 26.5t-199.5 -26.5t-142.5 -75t-85.5 -118.5t-28.5 -157q0 -88 28.5 -158t85.5 -119t142.5 -75t199.5 -26zM378 945q0 18 10.5 27.5t26.5 9.5t26.5 -9.5t10.5 -27.5q0 -17 -10.5 -27t-26.5 -10t-26.5 10t-10.5 27zM664 945q0 18 10.5 27.5t26.5 9.5
t26.5 -9.5t10.5 -27.5q0 -17 -10.5 -27t-26.5 -10t-26.5 10t-10.5 27z" />
    <glyph glyph-name="Otilde" unicode="&#xd5;" horiz-adv-x="1116" 
d="M561 -20q-126 0 -220.5 29.5t-158.5 84t-96 132.5t-32 174t32 174t96 132.5t158.5 84t220.5 29.5t221 -29.5t159 -84t96 -132.5t32 -174t-32 -174t-96 -132.5t-159 -84t-221 -29.5zM561 22q114 0 199.5 26t142.5 75t85.5 119t28.5 158q0 87 -28.5 157t-85.5 118.5
t-142.5 75t-199.5 26.5t-199.5 -26.5t-142.5 -75t-85.5 -118.5t-28.5 -157q0 -88 28.5 -158t85.5 -119t142.5 -75t199.5 -26zM238 935q58 39 103 53t82 13t68.5 -13t62.5 -26t63 -25t70 -10t84 18.5t105 60.5v-38q-63 -44 -111 -61.5t-86 -19t-69 10t-60.5 25l-59.5 26
t-66.5 14t-81.5 -12.5t-104 -52v37z" />
    <glyph glyph-name="Ocircumflex" unicode="&#xd4;" horiz-adv-x="1116" 
d="M561 -20q-126 0 -220.5 29.5t-158.5 84t-96 132.5t-32 174t32 174t96 132.5t158.5 84t220.5 29.5t221 -29.5t159 -84t96 -132.5t32 -174t-32 -174t-96 -132.5t-159 -84t-221 -29.5zM561 22q114 0 199.5 26t142.5 75t85.5 119t28.5 158q0 87 -28.5 157t-85.5 118.5
t-142.5 75t-199.5 26.5t-199.5 -26.5t-142.5 -75t-85.5 -118.5t-28.5 -157q0 -88 28.5 -158t85.5 -119t142.5 -75t199.5 -26zM848 868l-291 115l-291 -115v40l291 114l291 -114v-40z" />
    <glyph glyph-name="Oacute" unicode="&#xd3;" horiz-adv-x="1116" 
d="M561 -20q-126 0 -220.5 29.5t-158.5 84t-96 132.5t-32 174t32 174t96 132.5t158.5 84t220.5 29.5t221 -29.5t159 -84t96 -132.5t32 -174t-32 -174t-96 -132.5t-159 -84t-221 -29.5zM561 22q114 0 199.5 26t142.5 75t85.5 119t28.5 158q0 87 -28.5 157t-85.5 118.5
t-142.5 75t-199.5 26.5t-199.5 -26.5t-142.5 -75t-85.5 -118.5t-28.5 -157q0 -88 28.5 -158t85.5 -119t142.5 -75t199.5 -26zM298 852l428 197l92 -1l-441 -196h-79z" />
    <glyph glyph-name="Ograve" unicode="&#xd2;" horiz-adv-x="1116" 
d="M561 -20q-126 0 -220.5 29.5t-158.5 84t-96 132.5t-32 174t32 174t96 132.5t158.5 84t220.5 29.5t221 -29.5t159 -84t96 -132.5t32 -174t-32 -174t-96 -132.5t-159 -84t-221 -29.5zM561 22q114 0 199.5 26t142.5 75t85.5 119t28.5 158q0 87 -28.5 157t-85.5 118.5
t-142.5 75t-199.5 26.5t-199.5 -26.5t-142.5 -75t-85.5 -118.5t-28.5 -157q0 -88 28.5 -158t85.5 -119t142.5 -75t199.5 -26zM739 852l-441 196l92 1l428 -197h-79z" />
    <glyph glyph-name="Ntilde" unicode="&#xd1;" horiz-adv-x="1101" 
d="M62 0v800h53l871 -740v740h52v-800h-52l-871 738v-738h-53zM231 935q58 39 103 53t82 13t68.5 -13t62.5 -26t63 -25t70 -10t84 18.5t105 60.5v-38q-63 -44 -111 -61.5t-86 -19t-69 10t-60.5 25l-59.5 26t-66.5 14t-81.5 -12.5t-104 -52v37z" />
    <glyph glyph-name="ugrave" unicode="&#xf9;" 
d="M114 584v-328q0 -50 19 -92.5t63.5 -74t116.5 -49.5t178 -18q88 0 154 18t110 46.5t67 63.5t25 69v365h52v-584h-45l-6 137q-18 -32 -49.5 -60.5t-77.5 -50t-107 -34t-137 -12.5q-110 0 -188.5 20.5t-128.5 57t-74 87t-24 111.5v328h52zM661 637l-441 196l92 1l428 -197
h-79z" />
    <glyph glyph-name="uacute" unicode="&#xfa;" 
d="M114 584v-328q0 -50 19 -92.5t63.5 -74t116.5 -49.5t178 -18q88 0 154 18t110 46.5t67 63.5t25 69v365h52v-584h-45l-6 137q-18 -32 -49.5 -60.5t-77.5 -50t-107 -34t-137 -12.5q-110 0 -188.5 20.5t-128.5 57t-74 87t-24 111.5v328h52zM300 637l428 197l92 -1l-441 -196
h-79z" />
    <glyph glyph-name="ucircumflex" unicode="&#xfb;" 
d="M114 584v-328q0 -50 19 -92.5t63.5 -74t116.5 -49.5t178 -18q88 0 154 18t110 46.5t67 63.5t25 69v365h52v-584h-45l-6 137q-18 -32 -49.5 -60.5t-77.5 -50t-107 -34t-137 -12.5q-110 0 -188.5 20.5t-128.5 57t-74 87t-24 111.5v328h52zM772 653l-291 115l-291 -115v40
l291 114l291 -114v-40z" />
    <glyph glyph-name="udieresis" unicode="&#xfc;" 
d="M114 584v-328q0 -50 19 -92.5t63.5 -74t116.5 -49.5t178 -18q88 0 154 18t110 46.5t67 63.5t25 69v365h52v-584h-45l-6 137q-18 -32 -49.5 -60.5t-77.5 -50t-107 -34t-137 -12.5q-110 0 -188.5 20.5t-128.5 57t-74 87t-24 111.5v328h52zM586 730q0 18 10.5 27.5t26.5 9.5
t26.5 -9.5t10.5 -27.5q0 -17 -10.5 -27t-26.5 -10t-26.5 10t-10.5 27zM300 730q0 18 10.5 27.5t26.5 9.5t26.5 -9.5t10.5 -27.5q0 -17 -10.5 -27t-26.5 -10t-26.5 10t-10.5 27z" />
    <glyph glyph-name="yacute" unicode="&#xfd;" horiz-adv-x="1034" 
d="M417 -210h-56l160 217l-490 577h57l459 -542l400 542h58zM388 637l428 197l92 -1l-441 -196h-79z" />
    <glyph glyph-name="ydieresis" unicode="&#xff;" horiz-adv-x="1034" 
d="M417 -210h-56l160 217l-490 577h57l459 -542l400 542h58zM623 730q0 18 10.5 27.5t26.5 9.5t26.5 -9.5t10.5 -27.5q0 -17 -10.5 -27t-26.5 -10t-26.5 10t-10.5 27zM337 730q0 18 10.5 27.5t26.5 9.5t26.5 -9.5t10.5 -27.5q0 -17 -10.5 -27t-26.5 -10t-26.5 10t-10.5 27z
" />
    <glyph glyph-name="Aogonek" unicode="&#x104;" horiz-adv-x="1147" 
d="M1115 0q-35 -34 -79.5 -54.5t-91 -33t-91.5 -20t-79.5 -15.5t-56 -20t-21.5 -32q0 -11 14 -24.5t44 -24.5t78 -18.5t116 -7.5t116 7.5t78 18.5t44 24.5t14 24.5h37q0 -17 -14 -35t-47 -32.5t-88.5 -24t-139.5 -9.5t-139.5 9.5t-88.5 24t-47 32.5t-14 35q0 28 20.5 44
t54.5 26t78 17t90.5 17.5t92.5 26.5t85 44h-19l-132 209h-707l-132 -209h-54l508 800h63zM248 250h655l-317 503l-11 20l-10 -20z" />
    <glyph glyph-name="Lcaron" unicode="&#x13d;" horiz-adv-x="945" 
d="M62 800h52v-758h804v-42h-856v800zM619 565q4 4 10.5 25t12.5 47t10 52.5t3 41.5q-21 -6 -33 4t-15 22q-5 18 5 35.5t33 18.5q18 0 31.5 -12t17.5 -41t-5 -76t-34 -117h-36z" />
    <glyph glyph-name="uni0162" unicode="&#x162;" horiz-adv-x="1122" 
d="M539 0v757h-539v43h1122v-43h-531v-757h-52zM539 -249q9 22 16.5 42.5t9.5 37.5q-11 -2 -23 6.5t-15 20.5q-5 19 5 36.5t33 17.5q17 0 28.5 -8t14 -27t-5 -49.5t-28.5 -76.5h-35z" />
    <glyph glyph-name="uni0163" unicode="&#x163;" horiz-adv-x="747" 
d="M25 584h168v180h52v-180h452v-42h-452v-369q0 -45 29.5 -79t88.5 -52.5t146.5 -19.5t204.5 20v-42q-134 -21 -232 -18t-162 26t-95.5 65t-31.5 100v369h-168v42zM436 -256q9 22 16.5 42.5t9.5 37.5q-11 -2 -23 6.5t-15 20.5q-5 19 5 36.5t33 17.5q17 0 28.5 -8t14 -27
t-5 -49.5t-28.5 -76.5h-35z" />
    <glyph glyph-name="Uhungarumlaut" unicode="&#x170;" horiz-adv-x="1159" 
d="M114 301q0 -65 23 -116.5t77 -87.5t143 -55.5t222 -19.5t222.5 19.5t143.5 55.5t77 87.5t23 116.5v499h51v-499q0 -77 -26.5 -136.5t-87 -100.5t-159.5 -62.5t-244 -21.5t-244 21.5t-159.5 62.5t-87 100.5t-26.5 136.5v499h52v-499zM149 852l428 197l93 -1l-441 -196h-80
zM491 852l428 197l92 -1l-441 -196h-79z" />
    <glyph glyph-name="uhungarumlaut" unicode="&#x171;" 
d="M114 584v-328q0 -50 19 -92.5t63.5 -74t116.5 -49.5t178 -18q91 0 158 19t111 48.5t65.5 65.5t21.5 71v358h52v-584h-45l-6 137q-18 -32 -49.5 -60.5t-77.5 -50t-107 -34t-137 -12.5q-110 0 -188.5 20.5t-128.5 57t-74 87t-24 111.5v328h52zM50 637l428 197l93 -1
l-441 -196h-80zM392 637l428 197l92 -1l-441 -196h-79z" />
    <glyph glyph-name="Uring" unicode="&#x16e;" horiz-adv-x="1159" 
d="M114 301q0 -65 23 -116.5t77 -87.5t143 -55.5t222 -19.5t222.5 19.5t143.5 55.5t77 87.5t23 116.5v499h51v-499q0 -77 -26.5 -136.5t-87 -100.5t-159.5 -62.5t-244 -21.5t-244 21.5t-159.5 62.5t-87 100.5t-26.5 136.5v499h52v-499zM579 838q-84 0 -139.5 10.5t-88.5 27
t-47 36t-14 38.5t14 39.5t47 36.5t88.5 26.5t139.5 10.5t139.5 -10.5t88.5 -26.5t47 -36.5t14 -39.5t-14 -38.5t-47 -36t-88.5 -27t-139.5 -10.5zM579 867q68 0 116 8t78 20.5t44 27t14 27.5q0 12 -14 26.5t-44.5 27.5t-78.5 21.5t-115 8.5q-68 0 -116 -8.5t-78 -21.5
t-44 -27.5t-14 -26.5q0 -13 14 -27.5t44 -27t78 -20.5t116 -8z" />
    <glyph glyph-name="uring" unicode="&#x16f;" 
d="M481 623q-84 0 -139.5 10.5t-88.5 27t-47 36t-14 38.5t14 39.5t47 36.5t88.5 26.5t139.5 10.5t139.5 -10.5t88.5 -26.5t47 -36.5t14 -39.5t-14 -38.5t-47 -36t-88.5 -27t-139.5 -10.5zM114 584v-328q0 -50 19 -92.5t63.5 -74t116.5 -49.5t178 -18q91 0 158 19t111 48.5
t65.5 65.5t21.5 71v358h52v-584h-45l-6 137q-18 -32 -49.5 -60.5t-77.5 -50t-107 -34t-137 -12.5q-110 0 -188.5 20.5t-128.5 57t-74 87t-24 111.5v328h52zM481 652q68 0 116 8t78 20.5t44 27t14 27.5q0 12 -14 26.5t-44.5 27.5t-78.5 21.5t-115 8.5q-68 0 -116 -8.5
t-78 -21.5t-44 -27.5t-14 -26.5q0 -13 14 -27.5t44 -27t78 -20.5t116 -8z" />
    <glyph glyph-name="Rcaron" unicode="&#x158;" horiz-adv-x="1088" 
d="M62 0v800h512q134 0 223.5 -17.5t143.5 -49t77 -74t23 -92.5q0 -47 -20 -87t-67.5 -70.5t-125 -49.5t-192.5 -23l408 -337h-78l-401 336h-451v-336h-52zM989 567q0 43 -21 78t-69.5 60t-128 38.5t-196.5 13.5h-460v-379h460q117 0 196.5 13.5t128 38t69.5 59.5t21 78z
M835 982l-291 -114l-291 114v40l291 -115l291 115v-40z" />
    <glyph glyph-name="rcaron" unicode="&#x159;" horiz-adv-x="736" 
d="M89 0v584h40l9 -83q25 47 76.5 77.5t126 37.5t168.5 -12.5t203 -72.5v-49q-143 69 -250.5 83.5t-178.5 -6t-106.5 -67t-35.5 -101.5v-391h-52zM669 773l-291 -114l-291 114v40l291 -115l291 115v-40z" />
    <glyph glyph-name="ohungarumlaut" unicode="&#x151;" horiz-adv-x="1033" 
d="M517 -20q-92 0 -176 20t-148.5 59.5t-102.5 97.5t-38 135t38 135.5t102.5 97.5t148.5 59t176 20q91 0 175 -20t148.5 -59t102.5 -97.5t38 -135.5t-38 -135t-102.5 -97.5t-148.5 -59.5t-175 -20zM517 22q75 0 149 15.5t132.5 48.5t95 84t36.5 122q0 70 -36.5 121t-95 84
t-132.5 49t-149 16t-149 -16t-133 -49t-95.5 -84t-36.5 -121q0 -71 36.5 -122t95.5 -84t133 -48.5t149 -15.5zM85 637l428 197l93 -1l-441 -196h-80zM427 637l428 197l92 -1l-441 -196h-79z" />
    <glyph glyph-name="ncaron" unicode="&#x148;" 
d="M62 0v584h45l6 -137q18 32 49 60.5t77.5 50t108.5 34t140 12.5q110 0 188 -20t127.5 -56.5t72.5 -87.5t23 -112v-328h-52v328q0 49 -19 92t-62.5 74.5t-114.5 49.5t-176 18q-95 0 -163 -19t-112 -48.5t-65 -65.5t-21 -71v-358h-52zM772 767l-291 -114l-291 114v40
l291 -115l291 115v-40z" />
    <glyph glyph-name="nacute" unicode="&#x144;" 
d="M62 0v584h45l6 -137q18 32 49 60.5t77.5 50t108.5 34t140 12.5q110 0 188 -20t127.5 -56.5t72.5 -87.5t23 -112v-328h-52v328q0 49 -19 92t-62.5 74.5t-114.5 49.5t-176 18q-93 0 -160 -18t-111 -46.5t-66 -63.5t-24 -69v-365h-52zM220 637l428 197l92 -1l-441 -196h-79z
" />
    <glyph glyph-name="dcroat" unicode="&#x111;" horiz-adv-x="919" 
d="M511 729h303v81h52v-81h229v-37h-229v-692h-45l-6 138q-22 -41 -61 -71t-88 -49.5t-106 -28.5t-115 -9q-81 0 -154.5 19.5t-128.5 58.5t-87.5 97.5t-32.5 136.5t31.5 136.5t86.5 97.5t128 58.5t157 19.5q134 0 231 -42.5t138 -117.5v248h-303v37zM454 22q66 0 130.5 13
t115.5 39.5t82.5 67.5t31.5 97v106q0 55 -31.5 96t-82.5 68t-115.5 40t-130.5 13q-76 0 -142 -18t-114.5 -52.5t-76.5 -84.5t-28 -115t28 -115t76.5 -84.5t114.5 -52.5t142 -18z" />
    <glyph glyph-name="Dcroat" unicode="&#x110;" horiz-adv-x="1093" 
d="M16 420h54v380h438q272 0 404 -100t132 -300q0 -199 -132 -299.5t-404 -100.5h-438v378h-54v42zM992 400q0 179 -120 268t-364 89h-387v-337h478v-42h-478v-336h387q244 0 364 88.5t120 269.5z" />
    <glyph glyph-name="dcaron" unicode="&#x10f;" horiz-adv-x="1299" 
d="M42 292q0 78 31.5 136.5t86.5 97.5t128 58.5t157 19.5q134 0 231 -42.5t138 -117.5v366h52v-810h-45l-6 138q-22 -41 -61 -71t-88 -49.5t-106 -28.5t-115 -9q-81 0 -154.5 19.5t-128.5 58.5t-87.5 97.5t-32.5 136.5zM454 22q66 0 130.5 13t115.5 39.5t82.5 67.5t31.5 97
v106q0 55 -31.5 96t-82.5 68t-115.5 40t-130.5 13q-76 0 -142 -18t-114.5 -52.5t-76.5 -84.5t-28 -115t28 -115t76.5 -84.5t114.5 -52.5t142 -18zM1083 519q4 4 10.5 25t12.5 47t10 52.5t3 41.5q-21 -6 -33 4t-15 22q-5 18 5 35.5t33 18.5q18 0 31.5 -12t17.5 -41t-5 -76
t-34 -117h-36z" />
    <glyph glyph-name="Ohungarumlaut" unicode="&#x150;" horiz-adv-x="1116" 
d="M561 -20q-126 0 -220.5 29.5t-158.5 84t-96 132.5t-32 174t32 174t96 132.5t158.5 84t220.5 29.5t221 -29.5t159 -84t96 -132.5t32 -174t-32 -174t-96 -132.5t-159 -84t-221 -29.5zM561 22q114 0 199.5 26t142.5 75t85.5 119t28.5 158q0 87 -28.5 157t-85.5 118.5
t-142.5 75t-199.5 26.5t-199.5 -26.5t-142.5 -75t-85.5 -118.5t-28.5 -157q0 -88 28.5 -158t85.5 -119t142.5 -75t199.5 -26zM127 852l428 197l93 -1l-441 -196h-80zM469 852l428 197l92 -1l-441 -196h-79z" />
    <glyph glyph-name="Dcaron" unicode="&#x10e;" horiz-adv-x="1086" 
d="M62 800h439q271 0 403 -100.5t132 -299.5q0 -198 -132 -299t-403 -101h-439v800zM985 400q0 180 -119.5 268.5t-364.5 88.5h-387v-715h387q245 0 364.5 88t119.5 270zM833 982l-291 -114l-291 114v40l291 -115l291 115v-40z" />
    <glyph glyph-name="Nacute" unicode="&#x143;" horiz-adv-x="1101" 
d="M62 0v800h53l871 -740v740h52v-800h-52l-871 738v-738h-53zM290 852l428 197l92 -1l-441 -196h-79z" />
    <glyph glyph-name="Ncaron" unicode="&#x147;" horiz-adv-x="1101" 
d="M62 0v800h53l871 -740v740h52v-800h-52l-871 738v-738h-53zM841 982l-291 -114l-291 114v40l291 -115l291 115v-40z" />
    <glyph glyph-name="Ecaron" unicode="&#x11a;" horiz-adv-x="929" 
d="M62 0v800h846v-43h-794v-311h724v-42h-724v-362h804v-42h-856zM755 982l-291 -114l-291 114v40l291 -115l291 115v-40z" />
    <glyph glyph-name="ecaron" unicode="&#x11b;" horiz-adv-x="956" 
d="M479 604q93 0 170.5 -16.5t134 -50t87.5 -85t31 -121.5v-57h-797q2 -121 99 -186.5t275 -65.5q77 0 141 10t112 29t77 47.5t36 66.5h52q-9 -49 -43.5 -85.5t-89.5 -61t-127.5 -36.5t-157.5 -12q-98 0 -176.5 19t-134 57.5t-85 97t-29.5 138.5q0 79 29.5 138t85 97.5
t134 57.5t176.5 19zM479 562q-181 0 -276 -64t-98 -182v-5h745v38q0 54 -27 94t-76 66.5t-117.5 39.5t-150.5 13zM769 767l-291 -114l-291 114v40l291 -115l291 115v-40z" />
    <glyph glyph-name="eogonek" unicode="&#x119;" horiz-adv-x="956" 
d="M479 604q93 0 170.5 -16.5t134 -50t87.5 -85t31 -121.5v-57h-797q2 -121 99 -186.5t275 -65.5q77 0 141 10t112 29t77 47.5t36 66.5h52q-12 -63 -64 -105t-134 -65q-35 -33 -79.5 -53t-91 -32.5t-90.5 -20t-79 -15.5t-56 -20t-21 -32q0 -11 14 -24.5t44 -24.5t78 -18.5
t116 -7.5t116 7.5t78 18.5t44 24.5t14 24.5h37q0 -17 -14 -35t-47 -32.5t-88.5 -24t-139.5 -9.5t-139.5 9.5t-88.5 24t-47 32.5t-14 35q0 26 19 42t50.5 26t72.5 17t85.5 16t89.5 23t84 38q-38 -7 -79.5 -10.5t-87.5 -3.5q-98 0 -176.5 19t-134 57.5t-85 97t-29.5 138.5
q0 79 29.5 138t85 97.5t134 57.5t176.5 19zM479 562q-181 0 -276 -64t-98 -182v-5h745v38q0 54 -27 94t-76 66.5t-117.5 39.5t-150.5 13z" />
    <glyph glyph-name="ccaron" unicode="&#x10d;" horiz-adv-x="962" 
d="M846 402q-8 39 -37.5 69t-76.5 50t-110.5 30.5t-139.5 10.5q-90 0 -160 -17.5t-118.5 -51.5t-74 -84.5t-25.5 -116.5q0 -67 25.5 -117.5t74 -84.5t119 -51t159.5 -17q76 0 139.5 11.5t110.5 33t76 53t37 70.5l49 -2q-9 -51 -43 -90t-89 -65t-127.5 -39.5t-157.5 -13.5
q-98 0 -176.5 19t-133.5 57.5t-85 97t-30 138.5q0 79 30 138t85 97.5t133.5 57.5t176.5 19q87 0 159.5 -12t127 -37t88.5 -62.5t43 -88.5zM771 767l-291 -114l-291 114v40l291 -115l291 115v-40z" />
    <glyph glyph-name="cacute" unicode="&#x107;" horiz-adv-x="962" 
d="M846 402q-8 39 -37.5 69t-76.5 50t-110.5 30.5t-139.5 10.5q-90 0 -160 -17.5t-118.5 -51.5t-74 -84.5t-25.5 -116.5q0 -67 25.5 -117.5t74 -84.5t119 -51t159.5 -17q76 0 139.5 11.5t110.5 33t76 53t37 70.5l49 -2q-9 -51 -43 -90t-89 -65t-127.5 -39.5t-157.5 -13.5
q-98 0 -176.5 19t-133.5 57.5t-85 97t-30 138.5q0 79 30 138t85 97.5t133.5 57.5t176.5 19q87 0 159.5 -12t127 -37t88.5 -62.5t43 -88.5zM221 637l428 197l92 -1l-441 -196h-79z" />
    <glyph glyph-name="lacute" unicode="&#x13a;" horiz-adv-x="227" 
d="M87 0v810h51v-810h-51zM-82 825l428 197l92 -1l-441 -196h-79z" />
    <glyph glyph-name="abreve" unicode="&#x103;" horiz-adv-x="854" 
d="M791 0h-42l-3 120q-16 -32 -44 -57.5t-71.5 -44t-103 -28.5t-137.5 -10q-105 0 -172.5 14.5t-106.5 39t-53.5 56.5t-14.5 68q0 49 30 80.5t79.5 50t112.5 26.5t129 12t129.5 5.5t113 7t79.5 17.5t30 36q0 39 -16.5 70.5t-55 53.5t-101.5 33.5t-155 11.5
q-96 0 -159.5 -10.5t-100 -29.5t-50 -46.5t-10.5 -60.5l-45 5q-4 44 12 78t58.5 57.5t114 36t179.5 12.5q107 0 178.5 -13.5t115 -40.5t62 -66.5t18.5 -90.5v-393zM392 22q94 0 160.5 14t109 39.5t62.5 61.5t22 79v130q-29 -26 -89 -36t-133 -15t-150 -8.5t-140.5 -16
t-104 -37.5t-40.5 -73q0 -26 12 -51t45 -44.5t92 -31t154 -11.5zM747 783q0 -24 -15.5 -45.5t-53 -37t-99 -24.5t-152.5 -9q-92 0 -153 9t-98.5 24.5t-53 37t-15.5 45.5h41q0 -17 14 -32t47 -26t86.5 -17.5t131.5 -6.5t131.5 6.5t86.5 17.5t47 26t14 32h41z" />
    <glyph glyph-name="racute" unicode="&#x155;" horiz-adv-x="736" 
d="M89 0v584h40l9 -83q25 47 76.5 77.5t126 37.5t168.5 -12.5t203 -72.5v-49q-143 69 -250.5 83.5t-178.5 -6t-106.5 -67t-35.5 -101.5v-391h-52zM96 637l428 197l92 -1l-441 -196h-79z" />
    <glyph glyph-name="zdotaccent" unicode="&#x17c;" horiz-adv-x="903" 
d="M47 584h807v-33l-716 -509h716v-42h-807v33l719 509h-719v42zM414 730q0 18 10.5 27.5t26.5 9.5t26.5 -9.5t10.5 -27.5q0 -17 -10.5 -27t-26.5 -10t-26.5 10t-10.5 27z" />
    <glyph glyph-name="zacute" unicode="&#x17a;" horiz-adv-x="903" 
d="M47 584h807v-33l-716 -509h716v-42h-807v33l719 509h-719v42zM191 637l428 197l92 -1l-441 -196h-79z" />
    <glyph glyph-name="tcaron" unicode="&#x165;" horiz-adv-x="1127" 
d="M25 584h168v180h52v-180h452v-42h-452v-369q0 -45 29.5 -79t88.5 -52.5t146.5 -19.5t204.5 20v-42q-134 -21 -232 -18t-162 26t-95.5 65t-31.5 100v369h-168v42zM911 519q4 4 10.5 25t12.5 47t10 52.5t3 41.5q-21 -6 -33 4t-15 22q-5 18 5 35.5t33 18.5q18 0 31.5 -12
t17.5 -41t-5 -76t-34 -117h-36z" />
    <glyph glyph-name="scedilla" unicode="&#x15f;" horiz-adv-x="964" 
d="M64 438q0 30 23 60t72.5 53.5t128 38t190.5 14.5q93 0 171.5 -10t134.5 -32t86 -56.5t25 -83.5l-49 -2q5 41 -22 68t-77.5 43.5t-119.5 23.5t-148 7q-99 0 -168 -12t-112 -31t-62.5 -41.5t-19.5 -43.5q0 -33 34 -52.5t90 -31t127.5 -17l146 -11.5t146 -15t127.5 -26
t90 -45.5t34 -74.5q0 -33 -23 -65t-72.5 -57t-126.5 -41.5t-185 -17.5l2 -54q76 -2 127 -13t81.5 -26.5t43 -35t12.5 -37.5q0 -19 -14 -39t-47 -36.5t-88.5 -27t-139.5 -10.5t-139.5 10.5t-88.5 27t-47 36.5t-14 39h37q0 -13 14 -27.5t44 -27t78 -21t116 -8.5t116 8.5t78 21
t44 27t14 27.5q0 12 -13.5 26t-42 26.5t-74 21t-109.5 9.5h-31l3 83q-103 1 -182 14t-132 38t-78 62.5t-20 87.5l47 2q-5 -42 19 -73t74 -50.5t124.5 -29t170.5 -9.5q100 0 170.5 13.5t115.5 34.5t65.5 46t20.5 48q0 36 -34.5 57.5t-90.5 34t-127.5 18.5l-146.5 12
t-146.5 14t-127.5 24t-90.5 43t-34.5 71z" />
    <glyph glyph-name="sacute" unicode="&#x15b;" horiz-adv-x="964" 
d="M64 438q0 30 23 60t72.5 53.5t128 38t190.5 14.5q93 0 171.5 -10t134.5 -32t86 -56.5t25 -83.5l-49 -2q5 41 -22 68t-77.5 43.5t-119.5 23.5t-148 7q-99 0 -168 -12t-112 -31t-62.5 -41.5t-19.5 -43.5q0 -33 34 -52.5t90 -31t127.5 -17l146 -11.5t146 -15t127.5 -26
t90 -45.5t34 -74.5q0 -33 -24 -65.5t-75.5 -58t-131.5 -41.5t-192 -16q-108 0 -191.5 12.5t-139 37.5t-82 63t-21.5 89l47 2q-5 -42 19 -73t74 -50.5t124.5 -29t170.5 -9.5q100 0 170.5 13.5t115.5 34.5t65.5 46t20.5 48q0 36 -34.5 57.5t-90.5 34t-127.5 18.5l-146.5 12
t-146.5 14t-127.5 24t-90.5 43t-34.5 71zM222 637l428 197l92 -1l-441 -196h-79z" />
    <glyph glyph-name="lcaron" unicode="&#x13e;" horiz-adv-x="607" 
d="M87 0v810h51v-810h-51zM391 519q4 4 10.5 25t12.5 47t10 52.5t3 41.5q-21 -6 -33 4t-15 22q-5 18 5 35.5t33 18.5q18 0 31.5 -12t17.5 -41t-5 -76t-34 -117h-36z" />
    <glyph glyph-name="aogonek" unicode="&#x105;" horiz-adv-x="976" 
d="M791 0q-35 -34 -79.5 -54.5t-91 -33t-91.5 -20t-79.5 -15.5t-56 -20t-21.5 -32q0 -11 14 -24.5t44 -24.5t78 -18.5t116 -7.5t116 7.5t78 18.5t44 24.5t14 24.5h37q0 -17 -14 -35t-47 -32.5t-88.5 -24t-139.5 -9.5t-139.5 9.5t-88.5 24t-47 32.5t-14 35q0 28 20.5 44
t54.5 26t78 17t90.5 17.5t92.5 26.5t85 44h-7l-3 120q-16 -32 -44 -57.5t-71.5 -44t-103 -28.5t-137.5 -10q-105 0 -172.5 14.5t-106.5 39t-53.5 56.5t-14.5 68q0 49 30 80.5t79.5 50t112.5 26.5t129 12t129.5 5.5t113 7t79.5 17.5t30 36q0 39 -16.5 70.5t-55 53.5
t-101.5 33.5t-155 11.5q-96 0 -159.5 -10.5t-100 -29.5t-50 -46.5t-10.5 -60.5l-45 5q-4 44 12 78t58.5 57.5t114 36t179.5 12.5q107 0 178.5 -13.5t115 -40.5t62 -66.5t18.5 -90.5v-393zM392 22q94 0 160.5 14t109 39.5t62.5 61.5t22 79v130q-29 -26 -89 -36t-133 -15
t-150 -8.5t-140.5 -16t-104 -37.5t-40.5 -73q0 -26 12 -51t45 -44.5t92 -31t154 -11.5z" />
    <glyph glyph-name="Racute" unicode="&#x154;" horiz-adv-x="1088" 
d="M62 0v800h512q134 0 223.5 -17.5t143.5 -49t77 -74t23 -92.5q0 -47 -20 -87t-67.5 -70.5t-125 -49.5t-192.5 -23l408 -337h-78l-401 336h-451v-336h-52zM989 567q0 43 -21 78t-69.5 60t-128 38.5t-196.5 13.5h-460v-379h460q117 0 196.5 13.5t128 38t69.5 59.5t21 78z
M284 852l428 197l92 -1l-441 -196h-79z" />
    <glyph glyph-name="Abreve" unicode="&#x102;" horiz-adv-x="1147" 
d="M1115 0h-54l-132 209h-707l-132 -209h-54l508 800h63zM248 250h655l-317 503l-11 20l-10 -20zM893 998q0 -24 -15.5 -45.5t-53 -37t-99 -24.5t-152.5 -9q-92 0 -153 9t-98.5 24.5t-53 37t-15.5 45.5h41q0 -17 14 -32t47 -26t86.5 -17.5t131.5 -6.5t131.5 6.5t86.5 17.5
t47 26t14 32h41z" />
    <glyph glyph-name="Lacute" unicode="&#x139;" horiz-adv-x="945" 
d="M62 800h52v-758h804v-42h-856v800zM213 852l428 197l92 -1l-441 -196h-79z" />
    <glyph glyph-name="Cacute" unicode="&#x106;" horiz-adv-x="1147" 
d="M1084 264q-4 -53 -38.5 -104t-97.5 -91t-154 -64.5t-206 -24.5q-113 0 -211 24t-170 75t-113 130.5t-41 190.5q0 112 41 191.5t113 130.5t170 74.5t211 23.5q111 0 201 -23.5t154 -62t100.5 -89t39.5 -104.5l-52 -3q-5 45 -37 87.5t-89 76.5t-137 54.5t-180 20.5
q-102 0 -190 -21.5t-153.5 -67.5t-102.5 -117t-37 -171q0 -101 37 -172.5t102.5 -117t153.5 -67t190 -21.5q105 0 186 22.5t137.5 57.5t87 79t33.5 86zM313 852l428 197l92 -1l-441 -196h-79z" />
    <glyph glyph-name="Ccaron" unicode="&#x10c;" horiz-adv-x="1147" 
d="M1084 264q-4 -53 -38.5 -104t-97.5 -91t-154 -64.5t-206 -24.5q-113 0 -211 24t-170 75t-113 130.5t-41 190.5q0 112 41 191.5t113 130.5t170 74.5t211 23.5q111 0 201 -23.5t154 -62t100.5 -89t39.5 -104.5l-52 -3q-5 45 -37 87.5t-89 76.5t-137 54.5t-180 20.5
q-102 0 -190 -21.5t-153.5 -67.5t-102.5 -117t-37 -171q0 -101 37 -172.5t102.5 -117t153.5 -67t190 -21.5q105 0 186 22.5t137.5 57.5t87 79t33.5 86zM864 982l-291 -114l-291 114v40l291 -115l291 115v-40z" />
    <glyph glyph-name="Eogonek" unicode="&#x118;" horiz-adv-x="929" 
d="M62 0v800h846v-43h-794v-311h724v-42h-724v-362h804v-42h-196q-35 -34 -79.5 -54.5t-91 -33t-91.5 -20t-79.5 -15.5t-56 -20t-21.5 -32q0 -11 14 -24.5t44 -24.5t78 -18.5t116 -7.5t116 7.5t78 18.5t44 24.5t14 24.5h37q0 -17 -14 -35t-47 -32.5t-88.5 -24t-139.5 -9.5
t-139.5 9.5t-88.5 24t-47 32.5t-14 35q0 28 20.5 44t54.5 26t78 17t90.5 17.5t92.5 26.5t85 44h-625z" />
    <glyph glyph-name="Sacute" unicode="&#x15a;" horiz-adv-x="1186" 
d="M54 616q0 41 30.5 78t95 65t164.5 44.5t239 16.5q143 0 247 -18.5t170.5 -50.5t96.5 -75.5t25 -93.5l-51 -3q5 42 -22 78.5t-87 63t-154.5 41.5t-224.5 15q-126 0 -216.5 -13t-148.5 -35t-85 -51.5t-27 -62.5q0 -47 43.5 -77.5t115 -50.5t163 -34t186.5 -27t186.5 -29.5
t163 -42.5t115 -64t43.5 -96q0 -41 -30 -79.5t-94.5 -68.5t-164.5 -48t-239 -18q-142 0 -246 20t-171 53.5t-97.5 78.5t-25.5 96l52 3q-5 -43 22 -81t87 -66.5t154.5 -45t225.5 -16.5q126 0 216.5 14.5t148 38.5t84.5 55t27 64q0 49 -43.5 80t-115 51.5t-163 34l-187 26.5
t-187 28.5t-163 41t-115 64t-43.5 96.5zM333 852l428 197l92 -1l-441 -196h-79z" />
    <glyph glyph-name="Scedilla" unicode="&#x15e;" horiz-adv-x="1186" 
d="M54 616q0 41 30.5 78t95 65t164.5 44.5t239 16.5q143 0 247 -18.5t170.5 -50.5t96.5 -75.5t25 -93.5l-51 -3q5 42 -22 78.5t-87 63t-154.5 41.5t-224.5 15q-126 0 -216.5 -13t-148.5 -35t-85 -51.5t-27 -62.5q0 -47 43.5 -77.5t115 -50.5t163 -34t186.5 -27t186.5 -29.5
t163 -42.5t115 -64t43.5 -96q0 -41 -29 -78.5t-90.5 -67.5t-157.5 -48.5t-230 -19.5l2 -54q76 -2 127 -13t81.5 -26.5t43 -35t12.5 -37.5q0 -19 -14 -39t-47 -36.5t-88.5 -27t-139.5 -10.5t-139.5 10.5t-88.5 27t-47 36.5t-14 39h37q0 -13 14 -27.5t44 -27t78 -21t116 -8.5
t116 8.5t78 21t44 27t14 27.5q0 12 -13.5 26t-42 26.5t-74 21t-109.5 9.5h-31l3 83q-138 1 -238.5 21.5t-165.5 54t-94.5 78t-24.5 94.5l52 3q-5 -43 22 -81t87 -66.5t154.5 -45t225.5 -16.5q126 0 216.5 14.5t148 38.5t84.5 55t27 64q0 49 -43.5 80t-115 51.5t-163 34
l-187 26.5t-187 28.5t-163 41t-115 64t-43.5 96.5z" />
    <glyph glyph-name="Tcaron" unicode="&#x164;" horiz-adv-x="1122" 
d="M0 800h1122v-43h-531v-757h-52v757h-539v43zM852 982l-291 -114l-291 114v40l291 -115l291 115v-40z" />
    <glyph glyph-name="Zacute" unicode="&#x179;" horiz-adv-x="1118" 
d="M56 800h999v-43l-921 -715h921v-42h-999v42l922 715h-922v43zM299 852l428 197l92 -1l-441 -196h-79z" />
    <glyph glyph-name="Zdotaccent" unicode="&#x17b;" horiz-adv-x="1118" 
d="M56 800h999v-43l-921 -715h921v-42h-999v42l922 715h-922v43zM522 945q0 18 10.5 27.5t26.5 9.5t26.5 -9.5t10.5 -27.5q0 -17 -10.5 -27t-26.5 -10t-26.5 10t-10.5 27z" />
    <glyph glyph-name="uni00AD" unicode="&#xad;" horiz-adv-x="878" 
d="M152 332h586v-43h-586v43z" />
    <glyph glyph-name="gbreve" unicode="&#x11f;" horiz-adv-x="931" 
d="M44 302q0 78 33.5 135t89.5 94t128.5 55t151.5 18q67 0 125.5 -11t106 -32t82.5 -51t55 -67l8 141h44v-596q0 -52 -22.5 -92.5t-71.5 -68.5t-126.5 -42.5t-186.5 -14.5q-198 0 -301.5 47.5t-95.5 131.5l49 1q-3 -33 20 -59.5t68.5 -44.5t111 -27.5t147.5 -9.5
q96 0 164 11.5t110.5 35t62 57.5t19.5 79v165q-22 -41 -60.5 -70.5t-88 -49t-106 -28.5t-114.5 -9q-77 0 -149.5 18t-128.5 55t-90.5 94t-34.5 135zM456 42q66 0 130.5 13t115.5 39.5t82.5 67.5t31.5 97v86q0 55 -31.5 96t-82.5 68t-115.5 40t-130.5 13q-72 0 -137.5 -16.5
t-115 -49t-79 -81t-29.5 -113.5t29.5 -113.5t79 -81t115 -49t137.5 -16.5zM784 783q0 -24 -15.5 -45.5t-53 -37t-99 -24.5t-152.5 -9q-92 0 -153 9t-98.5 24.5t-53 37t-15.5 45.5h41q0 -17 14 -32t47 -26t86.5 -17.5t131.5 -6.5t131.5 6.5t86.5 17.5t47 26t14 32h41z" />
    <glyph glyph-name="jcircumflex" unicode="&#x135;" horiz-adv-x="329" 
d="M-240 -167q99 -17 170.5 -12t118 35t68.5 86.5t22 141.5v500h51v-504q0 -96 -25 -160.5t-77.5 -99t-134 -41t-193.5 12.5v41zM455 653l-291 115l-291 -115v40l291 114l291 -114v-40z" />
    <glyph glyph-name="hcircumflex" unicode="&#x125;" 
d="M62 0v810h52v-362q18 32 49 60.5t77 49.5t108 33.5t140 12.5q110 0 188 -20t127.5 -56.5t72.5 -87.5t23 -112v-328h-52v328q0 49 -19 92t-62.5 74.5t-114.5 49.5t-176 18q-93 0 -160 -18t-111 -46.5t-66 -63.5t-24 -69v-365h-52zM771 819l-291 115l-291 -115v40l291 114
l291 -114v-40z" />
    <glyph glyph-name="Hcircumflex" unicode="&#x124;" horiz-adv-x="1011" 
d="M62 0v800h52v-374h795v374h52v-800h-52v384h-795v-384h-52zM796 868l-291 115l-291 -115v40l291 114l291 -114v-40z" />
    <glyph glyph-name="Hbar" unicode="&#x126;" horiz-adv-x="1281" 
d="M50 643h133v157h52v-157h795v157h52v-157h149v-42h-149v-601h-52v384h-795v-384h-52v601h-133v42zM235 426h795v175h-795v-175z" />
    <glyph glyph-name="Cdotaccent" unicode="&#x10a;" horiz-adv-x="1147" 
d="M1084 264q-4 -53 -38.5 -104t-97.5 -91t-154 -64.5t-206 -24.5q-113 0 -211 24t-170 75t-113 130.5t-41 190.5q0 112 41 191.5t113 130.5t170 74.5t211 23.5q111 0 201 -23.5t154 -62t100.5 -89t39.5 -104.5l-52 -3q-5 45 -37 87.5t-89 76.5t-137 54.5t-180 20.5
q-102 0 -190 -21.5t-153.5 -67.5t-102.5 -117t-37 -171q0 -101 37 -172.5t102.5 -117t153.5 -67t190 -21.5q105 0 186 22.5t137.5 57.5t87 79t33.5 86zM550 948q0 18 10.5 27.5t26.5 9.5t26.5 -9.5t10.5 -27.5q0 -17 -10.5 -27t-26.5 -10t-26.5 10t-10.5 27z" />
    <glyph glyph-name="cdotaccent" unicode="&#x10b;" horiz-adv-x="962" 
d="M846 402q-8 39 -37.5 69t-76.5 50t-110.5 30.5t-139.5 10.5q-90 0 -160 -17.5t-118.5 -51.5t-74 -84.5t-25.5 -116.5q0 -67 25.5 -117.5t74 -84.5t119 -51t159.5 -17q76 0 139.5 11.5t110.5 33t76 53t37 70.5l49 -2q-9 -51 -43 -90t-89 -65t-127.5 -39.5t-157.5 -13.5
q-98 0 -176.5 19t-133.5 57.5t-85 97t-30 138.5q0 79 30 138t85 97.5t133.5 57.5t176.5 19q87 0 159.5 -12t127 -37t88.5 -62.5t43 -88.5zM443 730q0 18 10.5 27.5t26.5 9.5t26.5 -9.5t10.5 -27.5q0 -17 -10.5 -27t-26.5 -10t-26.5 10t-10.5 27z" />
    <glyph glyph-name="ccircumflex" unicode="&#x109;" horiz-adv-x="962" 
d="M846 402q-8 39 -37.5 69t-76.5 50t-110.5 30.5t-139.5 10.5q-90 0 -160 -17.5t-118.5 -51.5t-74 -84.5t-25.5 -116.5q0 -67 25.5 -117.5t74 -84.5t119 -51t159.5 -17q76 0 139.5 11.5t110.5 33t76 53t37 70.5l49 -2q-9 -51 -43 -90t-89 -65t-127.5 -39.5t-157.5 -13.5
q-98 0 -176.5 19t-133.5 57.5t-85 97t-30 138.5q0 79 30 138t85 97.5t133.5 57.5t176.5 19q87 0 159.5 -12t127 -37t88.5 -62.5t43 -88.5zM779 653l-291 115l-291 -115v40l291 114l291 -114v-40z" />
    <glyph glyph-name="Ccircumflex" unicode="&#x108;" horiz-adv-x="1147" 
d="M1084 264q-4 -53 -38.5 -104t-97.5 -91t-154 -64.5t-206 -24.5q-113 0 -211 24t-170 75t-113 130.5t-41 190.5q0 112 41 191.5t113 130.5t170 74.5t211 23.5q111 0 201 -23.5t154 -62t100.5 -89t39.5 -104.5l-52 -3q-5 45 -37 87.5t-89 76.5t-137 54.5t-180 20.5
q-102 0 -190 -21.5t-153.5 -67.5t-102.5 -117t-37 -171q0 -101 37 -172.5t102.5 -117t153.5 -67t190 -21.5q105 0 186 22.5t137.5 57.5t87 79t33.5 86zM868 868l-291 115l-291 -115v40l291 114l291 -114v-40z" />
    <glyph glyph-name="Idotaccent" unicode="&#x130;" horiz-adv-x="232" 
d="M90 0v800h52v-800h-52zM78 945q0 18 10.5 27.5t26.5 9.5t26.5 -9.5t10.5 -27.5q0 -17 -10.5 -27t-26.5 -10t-26.5 10t-10.5 27z" />
    <glyph glyph-name="Gbreve" unicode="&#x11e;" horiz-adv-x="1120" 
d="M555 396h511v-396h-47l-3 139q-24 -34 -65 -63t-96.5 -50.5t-125.5 -33.5t-152 -12q-112 0 -208 23.5t-166 74.5t-110 130.5t-40 191.5q0 111 39 190.5t109.5 130.5t168.5 75t216 24q101 0 187 -21t150 -55.5t104 -79.5t50 -94h-49q-10 40 -45.5 77.5t-92.5 66t-134 46
t-170 17.5q-102 0 -190 -20.5t-152.5 -66t-101.5 -117t-37 -173.5q0 -103 37 -175t101.5 -117t152.5 -65.5t190 -20.5q96 0 175 17.5t135.5 47t88 67.5t31.5 79v121h-461v42zM880 998q0 -24 -15.5 -45.5t-53 -37t-99 -24.5t-152.5 -9q-92 0 -153 9t-98.5 24.5t-53 37
t-15.5 45.5h41q0 -17 14 -32t47 -26t86.5 -17.5t131.5 -6.5t131.5 6.5t86.5 17.5t47 26t14 32h41z" />
    <glyph glyph-name="Jcircumflex" unicode="&#x134;" horiz-adv-x="985" 
d="M914 263q0 -64 -28.5 -116t-83.5 -89t-136 -57.5t-186 -20.5q-104 0 -186.5 19.5t-140 55.5t-88 87.5t-30.5 114.5h51q0 -51 27 -94t78 -74.5t124 -49t165 -17.5q91 0 162.5 18t120.5 50.5t74.5 76.5t25.5 96v537h51v-537zM784 868l-291 115l-291 -115v40l291 114
l291 -114v-40z" />
    <glyph glyph-name="hbar" unicode="&#x127;" 
d="M19 746h43v64h52v-64h600v-35h-600v-263q18 32 49 60.5t77 49.5t108 33.5t140 12.5q110 0 188 -20t127.5 -56.5t72.5 -87.5t23 -112v-328h-52v328q0 49 -19 92t-62.5 74.5t-114.5 49.5t-176 18q-93 0 -160 -18t-111 -46.5t-66 -63.5t-24 -69v-365h-52v711h-43v35z" />
    <glyph glyph-name="Gdotaccent" unicode="&#x120;" horiz-adv-x="1120" 
d="M555 396h511v-396h-47l-3 139q-24 -34 -65 -63t-96.5 -50.5t-125.5 -33.5t-152 -12q-112 0 -208 23.5t-166 74.5t-110 130.5t-40 191.5q0 111 39 190.5t109.5 130.5t168.5 75t216 24q101 0 187 -21t150 -55.5t104 -79.5t50 -94h-49q-10 40 -45.5 77.5t-92.5 66t-134 46
t-170 17.5q-102 0 -190 -20.5t-152.5 -66t-101.5 -117t-37 -173.5q0 -103 37 -175t101.5 -117t152.5 -65.5t190 -20.5q96 0 175 17.5t135.5 47t88 67.5t31.5 79v121h-461v42zM538 945q0 18 10.5 27.5t26.5 9.5t26.5 -9.5t10.5 -27.5q0 -17 -10.5 -27t-26.5 -10t-26.5 10
t-10.5 27z" />
    <glyph glyph-name="gdotaccent" unicode="&#x121;" horiz-adv-x="931" 
d="M44 302q0 78 33.5 135t89.5 94t128.5 55t151.5 18q67 0 125.5 -11t106 -32t82.5 -51t55 -67l8 141h44v-596q0 -52 -22.5 -92.5t-71.5 -68.5t-126.5 -42.5t-186.5 -14.5q-198 0 -301.5 47.5t-95.5 131.5l49 1q-3 -33 20 -59.5t68.5 -44.5t111 -27.5t147.5 -9.5
q96 0 164 11.5t110.5 35t62 57.5t19.5 79v165q-22 -41 -60.5 -70.5t-88 -49t-106 -28.5t-114.5 -9q-77 0 -149.5 18t-128.5 55t-90.5 94t-34.5 135zM456 42q66 0 130.5 13t115.5 39.5t82.5 67.5t31.5 97v86q0 55 -31.5 96t-82.5 68t-115.5 40t-130.5 13q-72 0 -137.5 -16.5
t-115 -49t-79 -81t-29.5 -113.5t29.5 -113.5t79 -81t115 -49t137.5 -16.5zM426 730q0 18 10.5 27.5t26.5 9.5t26.5 -9.5t10.5 -27.5q0 -17 -10.5 -27t-26.5 -10t-26.5 10t-10.5 27z" />
    <glyph glyph-name="Gcircumflex" unicode="&#x11c;" horiz-adv-x="1120" 
d="M555 396h511v-396h-47l-3 139q-24 -34 -65 -63t-96.5 -50.5t-125.5 -33.5t-152 -12q-112 0 -208 23.5t-166 74.5t-110 130.5t-40 191.5q0 111 39 190.5t109.5 130.5t168.5 75t216 24q101 0 187 -21t150 -55.5t104 -79.5t50 -94h-49q-10 40 -45.5 77.5t-92.5 66t-134 46
t-170 17.5q-102 0 -190 -20.5t-152.5 -66t-101.5 -117t-37 -173.5q0 -103 37 -175t101.5 -117t152.5 -65.5t190 -20.5q96 0 175 17.5t135.5 47t88 67.5t31.5 79v121h-461v42zM868 868l-291 115l-291 -115v40l291 114l291 -114v-40z" />
    <glyph glyph-name="gcircumflex" unicode="&#x11d;" horiz-adv-x="931" 
d="M44 302q0 78 33.5 135t89.5 94t128.5 55t151.5 18q67 0 125.5 -11t106 -32t82.5 -51t55 -67l8 141h44v-596q0 -52 -22.5 -92.5t-71.5 -68.5t-126.5 -42.5t-186.5 -14.5q-198 0 -301.5 47.5t-95.5 131.5l49 1q-3 -33 20 -59.5t68.5 -44.5t111 -27.5t147.5 -9.5
q96 0 164 11.5t110.5 35t62 57.5t19.5 79v165q-22 -41 -60.5 -70.5t-88 -49t-106 -28.5t-114.5 -9q-77 0 -149.5 18t-128.5 55t-90.5 94t-34.5 135zM456 42q66 0 130.5 13t115.5 39.5t82.5 67.5t31.5 97v86q0 55 -31.5 96t-82.5 68t-115.5 40t-130.5 13q-72 0 -137.5 -16.5
t-115 -49t-79 -81t-29.5 -113.5t29.5 -113.5t79 -81t115 -49t137.5 -16.5zM755 653l-291 115l-291 -115v40l291 114l291 -114v-40z" />
    <glyph glyph-name="Ubreve" unicode="&#x16c;" horiz-adv-x="1159" 
d="M114 301q0 -65 23 -116.5t77 -87.5t143 -55.5t222 -19.5t222.5 19.5t143.5 55.5t77 87.5t23 116.5v499h51v-499q0 -77 -26.5 -136.5t-87 -100.5t-159.5 -62.5t-244 -21.5t-244 21.5t-159.5 62.5t-87 100.5t-26.5 136.5v499h52v-499zM899 998q0 -24 -15.5 -45.5t-53 -37
t-99 -24.5t-152.5 -9q-92 0 -153 9t-98.5 24.5t-53 37t-15.5 45.5h41q0 -17 14 -32t47 -26t86.5 -17.5t131.5 -6.5t131.5 6.5t86.5 17.5t47 26t14 32h41z" />
    <glyph glyph-name="ubreve" unicode="&#x16d;" 
d="M114 584v-328q0 -50 19 -92.5t63.5 -74t116.5 -49.5t178 -18q88 0 154 18t110 46.5t67 63.5t25 69v365h52v-584h-45l-6 137q-18 -32 -49.5 -60.5t-77.5 -50t-107 -34t-137 -12.5q-110 0 -188.5 20.5t-128.5 57t-74 87t-24 111.5v328h52zM801 783q0 -24 -15.5 -45.5
t-53 -37t-99 -24.5t-152.5 -9q-92 0 -153 9t-98.5 24.5t-53 37t-15.5 45.5h41q0 -17 14 -32t47 -26t86.5 -17.5t131.5 -6.5t131.5 6.5t86.5 17.5t47 26t14 32h41z" />
    <glyph glyph-name="Scircumflex" unicode="&#x15c;" horiz-adv-x="1186" 
d="M54 616q0 41 30.5 78t95 65t164.5 44.5t239 16.5q143 0 247 -18.5t170.5 -50.5t96.5 -75.5t25 -93.5l-51 -3q5 42 -22 78.5t-87 63t-154.5 41.5t-224.5 15q-126 0 -216.5 -13t-148.5 -35t-85 -51.5t-27 -62.5q0 -47 43.5 -77.5t115 -50.5t163 -34t186.5 -27t186.5 -29.5
t163 -42.5t115 -64t43.5 -96q0 -41 -30 -79.5t-94.5 -68.5t-164.5 -48t-239 -18q-142 0 -246 20t-171 53.5t-97.5 78.5t-25.5 96l52 3q-5 -43 22 -81t87 -66.5t154.5 -45t225.5 -16.5q126 0 216.5 14.5t148 38.5t84.5 55t27 64q0 49 -43.5 80t-115 51.5t-163 34l-187 26.5
t-187 28.5t-163 41t-115 64t-43.5 96.5zM883 868l-291 115l-291 -115v40l291 114l291 -114v-40z" />
    <glyph glyph-name="scircumflex" unicode="&#x15d;" horiz-adv-x="964" 
d="M64 438q0 30 23 60t72.5 53.5t128 38t190.5 14.5q93 0 171.5 -10t134.5 -32t86 -56.5t25 -83.5l-49 -2q5 41 -22 68t-77.5 43.5t-119.5 23.5t-148 7q-99 0 -168 -12t-112 -31t-62.5 -41.5t-19.5 -43.5q0 -33 34 -52.5t90 -31t127.5 -17l146 -11.5t146 -15t127.5 -26
t90 -45.5t34 -74.5q0 -33 -24 -65.5t-75.5 -58t-131.5 -41.5t-192 -16q-108 0 -191.5 12.5t-139 37.5t-82 63t-21.5 89l47 2q-5 -42 19 -73t74 -50.5t124.5 -29t170.5 -9.5q100 0 170.5 13.5t115.5 34.5t65.5 46t20.5 48q0 36 -34.5 57.5t-90.5 34t-127.5 18.5l-146.5 12
t-146.5 14t-127.5 24t-90.5 43t-34.5 71zM773 653l-291 115l-291 -115v40l291 114l291 -114v-40z" />
    <glyph glyph-name="uni0156" unicode="&#x156;" horiz-adv-x="1088" 
d="M62 0v800h512q134 0 223.5 -17.5t143.5 -49t77 -74t23 -92.5q0 -47 -20 -87t-67.5 -70.5t-125 -49.5t-192.5 -23l408 -337h-78l-401 336h-451v-336h-52zM989 567q0 43 -21 78t-69.5 60t-128 38.5t-196.5 13.5h-460v-379h460q117 0 196.5 13.5t128 38t69.5 59.5t21 78z
M491 -249q9 22 16.5 42.5t9.5 37.5q-11 -2 -23 6.5t-15 20.5q-5 19 5 36.5t33 17.5q17 0 28.5 -8t14 -27t-5 -49.5t-28.5 -76.5h-35z" />
    <glyph glyph-name="uni013B" unicode="&#x13b;" horiz-adv-x="945" 
d="M62 800h52v-758h804v-42h-856v800zM491 -249q9 22 16.5 42.5t9.5 37.5q-11 -2 -23 6.5t-15 20.5q-5 19 5 36.5t33 17.5q17 0 28.5 -8t14 -27t-5 -49.5t-28.5 -76.5h-35z" />
    <glyph glyph-name="uni0122" unicode="&#x122;" horiz-adv-x="1120" 
d="M555 396h511v-396h-47l-3 139q-24 -34 -65 -63t-96.5 -50.5t-125.5 -33.5t-152 -12q-112 0 -208 23.5t-166 74.5t-110 130.5t-40 191.5q0 111 39 190.5t109.5 130.5t168.5 75t216 24q101 0 187 -21t150 -55.5t104 -79.5t50 -94h-49q-10 40 -45.5 77.5t-92.5 66t-134 46
t-170 17.5q-102 0 -190 -20.5t-152.5 -66t-101.5 -117t-37 -173.5q0 -103 37 -175t101.5 -117t152.5 -65.5t190 -20.5q96 0 175 17.5t135.5 47t88 67.5t31.5 79v121h-461v42zM567 -252q9 22 16.5 42.5t9.5 37.5q-11 -2 -23 6.5t-15 20.5q-5 19 5 36.5t33 17.5q17 0 28.5 -8
t14 -27t-5 -49.5t-28.5 -76.5h-35z" />
    <glyph glyph-name="uni0157" unicode="&#x157;" horiz-adv-x="736" 
d="M89 0v584h40l9 -83q25 47 76.5 77.5t126 37.5t168.5 -12.5t203 -72.5v-49q-143 69 -250.5 83.5t-178.5 -6t-106.5 -67t-35.5 -101.5v-391h-52zM87 -256q9 22 16.5 42.5t9.5 37.5q-11 -2 -23 6.5t-15 20.5q-5 19 5 36.5t33 17.5q17 0 28.5 -8t14 -27t-5 -49.5t-28.5 -76.5
h-35z" />
    <glyph glyph-name="uni013C" unicode="&#x13c;" horiz-adv-x="227" 
d="M87 0v810h51v-810h-51zM87 -256q9 22 16.5 42.5t9.5 37.5q-11 -2 -23 6.5t-15 20.5q-5 19 5 36.5t33 17.5q17 0 28.5 -8t14 -27t-5 -49.5t-28.5 -76.5h-35z" />
    <glyph glyph-name="uni0123" unicode="&#x123;" horiz-adv-x="931" 
d="M44 302q0 78 33.5 135t89.5 94t128.5 55t151.5 18q67 0 125.5 -11t106 -32t82.5 -51t55 -67l8 141h44v-596q0 -52 -22.5 -92.5t-71.5 -68.5t-126.5 -42.5t-186.5 -14.5q-198 0 -301.5 47.5t-95.5 131.5l49 1q-3 -33 20 -59.5t68.5 -44.5t111 -27.5t147.5 -9.5
q96 0 164 11.5t110.5 35t62 57.5t19.5 79v165q-22 -41 -60.5 -70.5t-88 -49t-106 -28.5t-114.5 -9q-77 0 -149.5 18t-128.5 55t-90.5 94t-34.5 135zM456 42q66 0 130.5 13t115.5 39.5t82.5 67.5t31.5 97v86q0 55 -31.5 96t-82.5 68t-115.5 40t-130.5 13q-72 0 -137.5 -16.5
t-115 -49t-79 -81t-29.5 -113.5t29.5 -113.5t79 -81t115 -49t137.5 -16.5zM493 825q-9 -22 -16.5 -42.5t-9.5 -37.5q11 2 23 -6.5t15 -20.5q5 -19 -5 -36.5t-33 -17.5q-17 0 -28.5 8t-14 26.5t5 49.5t28.5 77h35z" />
    <glyph glyph-name="uni0145" unicode="&#x145;" horiz-adv-x="1101" 
d="M62 0v800h53l871 -740v740h52v-800h-52l-871 738v-738h-53zM539 -249q9 22 16.5 42.5t9.5 37.5q-11 -2 -23 6.5t-15 20.5q-5 19 5 36.5t33 17.5q17 0 28.5 -8t14 -27t-5 -49.5t-28.5 -76.5h-35z" />
    <glyph glyph-name="uni0136" unicode="&#x136;" horiz-adv-x="992" 
d="M62 0v800h52v-439l775 439h81l-628 -358l622 -442h-77l-591 416l-182 -104v-312h-52zM410 -249q9 22 16.5 42.5t9.5 37.5q-11 -2 -23 6.5t-15 20.5q-5 19 5 36.5t33 17.5q17 0 28.5 -8t14 -27t-5 -49.5t-28.5 -76.5h-35z" />
    <glyph glyph-name="uni0146" unicode="&#x146;" 
d="M62 0v584h45l6 -137q18 32 49 60.5t77.5 50t108.5 34t140 12.5q110 0 188 -20t127.5 -56.5t72.5 -87.5t23 -112v-328h-52v328q0 49 -19 92t-62.5 74.5t-114.5 49.5t-176 18q-93 0 -160 -18t-111 -46.5t-66 -63.5t-24 -69v-365h-52zM443 -256q9 22 16.5 42.5t9.5 37.5
q-11 -2 -23 6.5t-15 20.5q-5 19 5 36.5t33 17.5q17 0 28.5 -8t14 -27t-5 -49.5t-28.5 -76.5h-35z" />
    <glyph glyph-name="uni0137" unicode="&#x137;" horiz-adv-x="950" 
d="M62 0v810h52v-549l720 323h95l-620 -282l625 -302h-85l-591 280l-144 -55v-225h-52zM394 -256q9 22 16.5 42.5t9.5 37.5q-11 -2 -23 6.5t-15 20.5q-5 19 5 36.5t33 17.5q17 0 28.5 -8t14 -27t-5 -49.5t-28.5 -76.5h-35z" />
    <glyph glyph-name="kgreenlandic" unicode="&#x138;" horiz-adv-x="950" 
d="M62 0v584h52v-323l720 323h95l-620 -282l625 -302h-85l-591 280l-144 -55v-225h-52z" />
    <glyph glyph-name="Amacron" unicode="&#x100;" horiz-adv-x="1147" 
d="M1115 0h-54l-132 209h-707l-132 -209h-54l508 800h63zM248 250h655l-317 503l-11 20l-10 -20zM226 968h695v-42h-695v42z" />
    <glyph glyph-name="eng" unicode="&#x14b;" 
d="M62 0v584h45l6 -137q18 32 49 60.5t77.5 50t108.5 34t140 12.5q110 0 188 -20t127.5 -56.5t72.5 -87.5t23 -112v-283q-1 -94 -27 -152t-78.5 -86.5t-133 -30.5t-191.5 16v41q99 -17 170 -16t117.5 25.5t68.5 76.5t22 137v272q0 49 -19 92t-62.5 74.5t-114.5 49.5t-176 18
q-93 0 -160 -18t-111 -46.5t-66 -63.5t-24 -69v-365h-52z" />
    <glyph glyph-name="Eng" unicode="&#x14a;" horiz-adv-x="1101" 
d="M62 0v800h53l871 -739v739h52v-840q0 -64 -28.5 -116t-83.5 -89t-136 -57.5t-186 -20.5q-104 0 -186.5 19.5t-140 55.5t-88 87.5t-30.5 114.5h51q0 -51 27 -94t78 -74.5t124 -49t165 -17.5q91 0 162.5 18t120.5 50.5t74.5 76.5t25.5 96v40h-1l-871 738v-738h-53z" />
    <glyph glyph-name="Itilde" unicode="&#x128;" horiz-adv-x="232" 
d="M90 0v800h52v-800h-52zM-203 935q58 39 103 53t82 13t68.5 -13t62.5 -26t63 -25t70 -10t84 18.5t105 60.5v-38q-63 -44 -111 -61.5t-86 -19t-69 10t-60.5 25l-59.5 26t-66.5 14t-81.5 -12.5t-104 -52v37z" />
    <glyph glyph-name="amacron" unicode="&#x101;" horiz-adv-x="854" 
d="M791 0h-42l-3 120q-16 -32 -44 -57.5t-71.5 -44t-103 -28.5t-137.5 -10q-105 0 -172.5 14.5t-106.5 39t-53.5 56.5t-14.5 68q0 49 30 80.5t79.5 50t112.5 26.5t129 12t129.5 5.5t113 7t79.5 17.5t30 36q0 39 -16.5 70.5t-55 53.5t-101.5 33.5t-155 11.5
q-96 0 -159.5 -10.5t-100 -29.5t-50 -46.5t-10.5 -60.5l-45 5q-4 44 12 78t58.5 57.5t114 36t179.5 12.5q107 0 178.5 -13.5t115 -40.5t62 -66.5t18.5 -90.5v-393zM746 346q-29 -26 -89 -36t-133 -15t-150 -8.5t-140.5 -16t-104 -37.5t-40.5 -73q0 -26 12 -51t45 -44.5
t92 -31t154 -11.5q97 0 164.5 15t109.5 42t61 64t19 82v121zM79 753h695v-42h-695v42z" />
    <glyph glyph-name="iogonek" unicode="&#x12f;" horiz-adv-x="329" 
d="M189 1l1 -1q-35 -34 -79.5 -54.5t-91 -33t-91.5 -20t-79.5 -15.5t-56 -20t-21.5 -32q0 -11 14 -24.5t44 -24.5t78 -18.5t116 -7.5t116 7.5t78 18.5t44 24.5t14 24.5h37q0 -17 -14 -35t-47 -32.5t-88.5 -24t-139.5 -9.5t-139.5 9.5t-88.5 24t-47 32.5t-14 35q0 28 20.5 44
t54.5 26t78 17t90.5 17.5t92.5 26.5t85 44h-17v584h51v-583zM129 700q0 16 9 25.5t26 9.5q16 0 25.5 -9.5t9.5 -25.5q0 -17 -9.5 -26.5t-25.5 -9.5q-17 0 -26 9.5t-9 26.5z" />
    <glyph glyph-name="Iogonek" unicode="&#x12e;" horiz-adv-x="232" 
d="M142 0q-35 -34 -79.5 -54.5t-91 -33t-91.5 -20t-79.5 -15.5t-56 -20t-21.5 -32q0 -11 14 -24.5t44 -24.5t78 -18.5t116 -7.5t116 7.5t78 18.5t44 24.5t14 24.5h37q0 -17 -14 -35t-47 -32.5t-88.5 -24t-139.5 -9.5t-139.5 9.5t-88.5 24t-47 32.5t-14 35q0 28 20.5 44
t54.5 26t78 17t90.5 17.5t92.5 26.5t85 44h-17v800h52v-800v0z" />
    <glyph glyph-name="Emacron" unicode="&#x112;" horiz-adv-x="929" 
d="M62 0v800h846v-43h-794v-311h724v-42h-724v-362h804v-42h-856zM117 968h695v-42h-695v42z" />
    <glyph glyph-name="Tbar" unicode="&#x166;" horiz-adv-x="1122" 
d="M0 800h1122v-43h-531v-289h317v-42h-317v-426h-52v426h-326v42h326v289h-539v43z" />
    <glyph glyph-name="itilde" unicode="&#x129;" horiz-adv-x="329" 
d="M139 0v584h51v-584h-51zM-155 720q58 39 103 53t82 13t68.5 -13t62.5 -26t63 -25t70 -10t84 18.5t105 60.5v-38q-63 -44 -111 -61.5t-86 -19t-69 10t-60.5 25l-59.5 26t-66.5 14t-81.5 -12.5t-104 -52v37z" />
    <glyph glyph-name="emacron" unicode="&#x113;" horiz-adv-x="956" 
d="M479 604q93 0 170.5 -16.5t134 -50t87.5 -85t31 -121.5v-57h-797q2 -121 99 -186.5t275 -65.5q77 0 141 10t112 29t77 47.5t36 66.5h52q-9 -49 -43.5 -85.5t-89.5 -61t-127.5 -36.5t-157.5 -12q-98 0 -176.5 19t-134 57.5t-85 97t-29.5 138.5q0 79 29.5 138t85 97.5
t134 57.5t176.5 19zM479 562q-181 0 -276 -64t-98 -182v-5h745v38q0 54 -27 94t-76 66.5t-117.5 39.5t-150.5 13zM130 753h695v-42h-695v42z" />
    <glyph glyph-name="tbar" unicode="&#x167;" horiz-adv-x="747" 
d="M21 724h172v86h52v-86h444v-36h-444v-110h452v-36h-452v-369q0 -45 29.5 -79t88.5 -52.5t147 -19.5t204 20v-42q-133 -21 -231 -18t-162.5 26t-96 65t-31.5 100v369h-168v36h168v110h-172v36z" />
    <glyph glyph-name="Edotaccent" unicode="&#x116;" horiz-adv-x="929" 
d="M62 0v800h846v-43h-794v-311h724v-42h-724v-362h804v-42h-856zM427 945q0 18 10.5 27.5t26.5 9.5t26.5 -9.5t10.5 -27.5q0 -17 -10.5 -27t-26.5 -10t-26.5 10t-10.5 27z" />
    <glyph glyph-name="edotaccent" unicode="&#x117;" horiz-adv-x="956" 
d="M479 604q93 0 170.5 -16.5t134 -50t87.5 -85t31 -121.5v-57h-797q2 -121 99 -186.5t275 -65.5q77 0 141 10t112 29t77 47.5t36 66.5h52q-9 -49 -43.5 -85.5t-89.5 -61t-127.5 -36.5t-157.5 -12q-98 0 -176.5 19t-134 57.5t-85 97t-29.5 138.5q0 79 29.5 138t85 97.5
t134 57.5t176.5 19zM479 562q-181 0 -276 -64t-98 -182v-5h745v38q0 54 -27 94t-76 66.5t-117.5 39.5t-150.5 13zM440 730q0 18 10.5 27.5t26.5 9.5t26.5 -9.5t10.5 -27.5q0 -17 -10.5 -27t-26.5 -10t-26.5 10t-10.5 27z" />
    <glyph glyph-name="imacron" unicode="&#x12b;" horiz-adv-x="329" 
d="M139 0v584h51v-584h-51zM-183 753h695v-42h-695v42z" />
    <glyph glyph-name="Imacron" unicode="&#x12a;" horiz-adv-x="232" 
d="M90 0v800h52v-800h-52zM-231 968h695v-42h-695v42z" />
    <glyph glyph-name="Omacron" unicode="&#x14c;" horiz-adv-x="1116" 
d="M561 -20q-126 0 -220.5 29.5t-158.5 84t-96 132.5t-32 174t32 174t96 132.5t158.5 84t220.5 29.5t221 -29.5t159 -84t96 -132.5t32 -174t-32 -174t-96 -132.5t-159 -84t-221 -29.5zM561 22q114 0 199.5 26t142.5 75t85.5 119t28.5 158q0 87 -28.5 157t-85.5 118.5
t-142.5 75t-199.5 26.5t-199.5 -26.5t-142.5 -75t-85.5 -118.5t-28.5 -157q0 -88 28.5 -158t85.5 -119t142.5 -75t199.5 -26zM211 968h695v-42h-695v42z" />
    <glyph glyph-name="omacron" unicode="&#x14d;" horiz-adv-x="1033" 
d="M517 -20q-92 0 -176 20t-148.5 59.5t-102.5 97.5t-38 135t38 135.5t102.5 97.5t148.5 59t176 20q91 0 175 -20t148.5 -59t102.5 -97.5t38 -135.5t-38 -135t-102.5 -97.5t-148.5 -59.5t-175 -20zM517 22q75 0 149 15.5t132.5 48.5t95 84t36.5 122q0 70 -36.5 121t-95 84
t-132.5 49t-149 16t-149 -16t-133 -49t-95.5 -84t-36.5 -121q0 -71 36.5 -122t95.5 -84t133 -48.5t149 -15.5zM169 753h695v-42h-695v42z" />
    </font>
</defs>
</svg>
